SplineFontDB: 3.2
FontName: eufont-medium
FullName: Eufont Medium
FamilyName: eufont
Weight: Medium
Copyright: Copyright 2018 All rights reserved.
Version: 1.002
ItalicAngle: 0
UnderlinePosition: -131
UnderlineWidth: 63
Ascent: 800
Descent: 200
InvalidEm: 0
sfntRevision: 0x00010083
LayerCount: 2
Layer: 0 1 "Back" 1
Layer: 1 1 "Fore" 0
XUID: [1021 992 510959400 1705209]
StyleMap: 0x0040
FSType: 0
OS2Version: 4
OS2_WeightWidthSlopeOnly: 0
OS2_UseTypoMetrics: 1
CreationTime: 1524074448
ModificationTime: 1630582811
PfmFamily: 17
TTFWeight: 500
TTFWidth: 5
LineGap: 0
VLineGap: 0
Panose: 2 11 6 2 2 2 3 2 2 4
OS2TypoAscent: 1009
OS2TypoAOffset: 0
OS2TypoDescent: -293
OS2TypoDOffset: 0
OS2TypoLinegap: 0
OS2WinAscent: 1009
OS2WinAOffset: 0
OS2WinDescent: 293
OS2WinDOffset: 0
HheadAscent: 1009
HheadAOffset: 0
HheadDescent: -293
HheadDOffset: 0
OS2SubXSize: 700
OS2SubYSize: 650
OS2SubXOff: 0
OS2SubYOff: 120
OS2SupXSize: 700
OS2SupYSize: 650
OS2SupXOff: 0
OS2SupYOff: 430
OS2StrikeYSize: 65
OS2StrikeYPos: 291
OS2CapHeight: 710
OS2XHeight: 523
OS2FamilyClass: 2052
OS2Vendor: 'DAMA'
OS2CodePages: 00000002.00000000
OS2UnicodeRanges: a100006f.0000004b.00000028.00000000
Lookup: 1 0 0 "'aalt' Access All Alternates in Latin lookup 0" { "'aalt' Access All Alternates in Latin lookup 0 subtable"  } ['aalt' ('DFLT' <'dflt' > 'latn' <'CAT ' 'NLD ' 'dflt' > ) ]
Lookup: 3 0 0 "'aalt' Access All Alternates in Latin lookup 1" { "'aalt' Access All Alternates in Latin lookup 1 subtable"  } ['aalt' ('DFLT' <'dflt' > 'latn' <'CAT ' 'NLD ' 'dflt' > ) ]
Lookup: 6 0 0 "'locl' Localized Forms in Latin lookup 2" { "'locl' Localized Forms in Latin lookup 2 contextual 0"  "'locl' Localized Forms in Latin lookup 2 contextual 1"  } ['locl' ('latn' <'CAT ' > ) ]
Lookup: 1 0 0 "Single Substitution lookup 3" { "Single Substitution lookup 3 subtable"  } []
Lookup: 1 0 0 "Single Substitution lookup 4" { "Single Substitution lookup 4 subtable"  } []

StartChar: .notdef
Encoding: 65536 -1 0
Width: 500
Flags: W
LayerCount: 2
Fore
SplineSet
450 0 m 1,0,-1
 50 0 l 1,1,-1
 50 750 l 1,2,-1
 450 750 l 1,3,-1
 450 0 l 1,0,-1
100 50 m 1,4,-1
 400 50 l 1,5,-1
 400 700 l 1,6,-1
 100 700 l 1,7,-1
 100 50 l 1,4,-1
EndSplineSet
Validated: 1
EndChar

StartChar: period
Encoding: 46 46 4
Width: 254
GlyphClass: 2
Flags: W
LayerCount: 2
Fore
SplineSet
127 -4 m 256,0,1
 106 -4 106 -4 89 6 c 128,-1,2
 72 16 72 16 61.5 33.5 c 128,-1,3
 51 51 51 51 51 72 c 256,4,5
 51 93 51 93 61.5 110.5 c 128,-1,6
 72 128 72 128 89 138 c 128,-1,7
 106 148 106 148 127 148 c 256,8,9
 148 148 148 148 165 138 c 128,-1,10
 182 128 182 128 192.5 110.5 c 128,-1,11
 203 93 203 93 203 72 c 256,12,13
 203 51 203 51 192.5 33.5 c 128,-1,14
 182 16 182 16 165 6 c 128,-1,15
 148 -4 148 -4 127 -4 c 256,0,1
EndSplineSet
Validated: 1
EndChar

StartChar: comma
Encoding: 44 44 6
Width: 254
GlyphClass: 2
Flags: W
LayerCount: 2
Fore
SplineSet
76 -173 m 1,0,-1
 52 -106 l 1,1,2
 95 -91 95 -91 120.5 -61.5 c 128,-1,3
 146 -32 146 -32 146 3 c 0,4,5
 146 16 146 16 143 27 c 1,6,7
 130 17 130 17 113 17 c 256,8,9
 96 17 96 17 81.5 25.5 c 128,-1,10
 67 34 67 34 58.5 49 c 128,-1,11
 50 64 50 64 50 82 c 256,12,13
 50 100 50 100 60 115 c 128,-1,14
 70 130 70 130 86.5 139 c 128,-1,15
 103 148 103 148 123 148 c 0,16,17
 152 148 152 148 175.5 130.5 c 128,-1,18
 199 113 199 113 212.5 83 c 128,-1,19
 226 53 226 53 226 16 c 0,20,21
 226 -28 226 -28 207.5 -65.5 c 128,-1,22
 189 -103 189 -103 155.5 -130.5 c 128,-1,23
 122 -158 122 -158 76 -173 c 1,0,-1
EndSplineSet
Validated: 1
EndChar

StartChar: question
Encoding: 63 63 8
Width: 525
GlyphClass: 2
Flags: W
LayerCount: 2
Fore
SplineSet
193 208 m 1,0,-1
 193 363 l 1,1,2
 279 384 279 384 323.5 422.5 c 128,-1,3
 368 461 368 461 368 514 c 0,4,5
 368 545 368 545 353.5 569 c 128,-1,6
 339 593 339 593 313.5 606.5 c 128,-1,7
 288 620 288 620 255 620 c 0,8,9
 210 620 210 620 176 595 c 128,-1,10
 142 570 142 570 128 526 c 1,11,-1
 20 552 l 1,12,13
 32 603 32 603 65.5 642 c 128,-1,14
 99 681 99 681 148 703 c 128,-1,15
 197 725 197 725 256 725 c 0,16,17
 306 725 306 725 348.5 709.5 c 128,-1,18
 391 694 391 694 422.5 666 c 128,-1,19
 454 638 454 638 471.5 600.5 c 128,-1,20
 489 563 489 563 489 519 c 0,21,22
 489 469 489 469 467 426 c 128,-1,23
 445 383 445 383 403.5 351.5 c 128,-1,24
 362 320 362 320 305 302 c 1,25,-1
 305 208 l 1,26,-1
 193 208 l 1,0,-1
249 -4 m 256,27,28
 228 -4 228 -4 211.5 6 c 128,-1,29
 195 16 195 16 185 33 c 128,-1,30
 175 50 175 50 175 70 c 256,31,32
 175 90 175 90 185 107 c 128,-1,33
 195 124 195 124 211.5 134 c 128,-1,34
 228 144 228 144 249 144 c 256,35,36
 270 144 270 144 286.5 134 c 128,-1,37
 303 124 303 124 313 107 c 128,-1,38
 323 90 323 90 323 70 c 256,39,40
 323 50 323 50 313 33 c 128,-1,41
 303 16 303 16 286.5 6 c 128,-1,42
 270 -4 270 -4 249 -4 c 256,27,28
EndSplineSet
Validated: 1
EndChar

StartChar: exclam
Encoding: 33 33 9
Width: 250
GlyphClass: 2
Flags: W
LayerCount: 2
Fore
SplineSet
69 208 m 1,0,-1
 63 710 l 1,1,-1
 187 710 l 1,2,-1
 181 208 l 1,3,-1
 69 208 l 1,0,-1
125 -4 m 256,4,5
 104 -4 104 -4 87.5 6 c 128,-1,6
 71 16 71 16 61 33 c 128,-1,7
 51 50 51 50 51 70 c 256,8,9
 51 90 51 90 61 107 c 128,-1,10
 71 124 71 124 87.5 134 c 128,-1,11
 104 144 104 144 125 144 c 256,12,13
 146 144 146 144 162.5 134 c 128,-1,14
 179 124 179 124 189 107 c 128,-1,15
 199 90 199 90 199 70 c 256,16,17
 199 50 199 50 189 33 c 128,-1,18
 179 16 179 16 162.5 6 c 128,-1,19
 146 -4 146 -4 125 -4 c 256,4,5
EndSplineSet
Validated: 1
EndChar

StartChar: questiondown
Encoding: 191 191 10
Width: 497
GlyphClass: 2
Flags: W
LayerCount: 2
Fore
SplineSet
268 379 m 256,0,1
 248 379 248 379 231 389 c 128,-1,2
 214 399 214 399 204 415.5 c 128,-1,3
 194 432 194 432 194 453 c 256,4,5
 194 474 194 474 204 490.5 c 128,-1,6
 214 507 214 507 231 517 c 128,-1,7
 248 527 248 527 268 527 c 256,8,9
 288 527 288 527 305 517 c 128,-1,10
 322 507 322 507 332 490.5 c 128,-1,11
 342 474 342 474 342 453 c 256,12,13
 342 432 342 432 332 415.5 c 128,-1,14
 322 399 322 399 305 389 c 128,-1,15
 288 379 288 379 268 379 c 256,0,1
261 -202 m 0,16,17
 211 -202 211 -202 168.5 -186.5 c 128,-1,18
 126 -171 126 -171 94.5 -143 c 128,-1,19
 63 -115 63 -115 45.5 -77.5 c 128,-1,20
 28 -40 28 -40 28 4 c 0,21,22
 28 54 28 54 50 97 c 128,-1,23
 72 140 72 140 113.5 171.5 c 128,-1,24
 155 203 155 203 212 221 c 1,25,-1
 212 315 l 1,26,-1
 324 315 l 1,27,-1
 324 160 l 1,28,29
 238 139 238 139 193.5 100.5 c 128,-1,30
 149 62 149 62 149 9 c 0,31,32
 149 -22 149 -22 163.5 -46 c 128,-1,33
 178 -70 178 -70 203 -83.5 c 128,-1,34
 228 -97 228 -97 262 -97 c 0,35,36
 307 -97 307 -97 341.5 -71.5 c 128,-1,37
 376 -46 376 -46 389 -3 c 1,38,-1
 497 -29 l 1,39,40
 484 -80 484 -80 451 -119 c 128,-1,41
 418 -158 418 -158 369 -180 c 128,-1,42
 320 -202 320 -202 261 -202 c 0,16,17
EndSplineSet
Validated: 1
Substitution2: "'case' Case-Sensitive Forms in Latin lookup 20 subtable" questiondown.aalt
Substitution2: "'aalt' Access All Alternates in Latin lookup 0 subtable" questiondown.aalt
EndChar

StartChar: exclamdown
Encoding: 161 161 11
Width: 250
GlyphClass: 2
Flags: W
LayerCount: 2
Fore
SplineSet
125 379 m 256,0,1
 104 379 104 379 87.5 389 c 128,-1,2
 71 399 71 399 61 415.5 c 128,-1,3
 51 432 51 432 51 453 c 256,4,5
 51 474 51 474 61 490.5 c 128,-1,6
 71 507 71 507 87.5 517 c 128,-1,7
 104 527 104 527 125 527 c 256,8,9
 146 527 146 527 162.5 517 c 128,-1,10
 179 507 179 507 189 490.5 c 128,-1,11
 199 474 199 474 199 453 c 256,12,13
 199 432 199 432 189 415.5 c 128,-1,14
 179 399 179 399 162.5 389 c 128,-1,15
 146 379 146 379 125 379 c 256,0,1
63 -187 m 1,16,-1
 69 315 l 1,17,-1
 181 315 l 1,18,-1
 187 -187 l 1,19,-1
 63 -187 l 1,16,-1
EndSplineSet
Validated: 1
Substitution2: "'case' Case-Sensitive Forms in Latin lookup 20 subtable" exclamdown.aalt
Substitution2: "'aalt' Access All Alternates in Latin lookup 0 subtable" exclamdown.aalt
EndChar

StartChar: quotesingle
Encoding: 39 39 12
Width: 216
GlyphClass: 2
Flags: W
LayerCount: 2
Fore
SplineSet
61 440 m 1,0,-1
 56 710 l 1,1,-1
 160 710 l 1,2,-1
 155 440 l 1,3,-1
 61 440 l 1,0,-1
EndSplineSet
Validated: 1
EndChar

StartChar: zero.aalt
Encoding: 65537 -1 38
Width: 594
GlyphClass: 2
Flags: W
LayerCount: 2
Fore
SplineSet
295 -15 m 0,0,1
 235 -15 235 -15 187 9.5 c 128,-1,2
 139 34 139 34 105 81 c 128,-1,3
 71 128 71 128 53.5 194 c 128,-1,4
 36 260 36 260 36 342 c 0,5,6
 36 427 36 427 54.5 494 c 128,-1,7
 73 561 73 561 108 608 c 128,-1,8
 143 655 143 655 192 680 c 128,-1,9
 241 705 241 705 301 705 c 0,10,11
 362 705 362 705 409.5 680 c 128,-1,12
 457 655 457 655 490 608 c 128,-1,13
 523 561 523 561 540.5 495.5 c 128,-1,14
 558 430 558 430 558 348 c 0,15,16
 558 264 558 264 540 197 c 128,-1,17
 522 130 522 130 487.5 82.5 c 128,-1,18
 453 35 453 35 404.5 10 c 128,-1,19
 356 -15 356 -15 295 -15 c 0,0,1
297 93 m 256,20,21
 364 93 364 93 401.5 158.5 c 128,-1,22
 439 224 439 224 439 345 c 256,23,24
 439 466 439 466 401.5 531.5 c 128,-1,25
 364 597 364 597 297 597 c 256,26,27
 230 597 230 597 192.5 531.5 c 128,-1,28
 155 466 155 466 155 345 c 256,29,30
 155 224 155 224 192.5 158.5 c 128,-1,31
 230 93 230 93 297 93 c 256,20,21
EndSplineSet
Validated: 1
Substitution2: "'pnum' Proportional Numbers in Latin lookup 21 subtable" zero
Substitution2: "'aalt' Access All Alternates in Latin lookup 0 subtable" zero
EndChar

StartChar: one.aalt
Encoding: 65538 -1 39
Width: 594
GlyphClass: 2
Flags: W
LayerCount: 2
Fore
SplineSet
285 0 m 1,0,-1
 285 563 l 1,1,-1
 135 479 l 1,2,-1
 94 576 l 1,3,-1
 303 690 l 1,4,-1
 401 690 l 1,5,-1
 401 0 l 1,6,-1
 285 0 l 1,0,-1
EndSplineSet
Validated: 1
Substitution2: "'pnum' Proportional Numbers in Latin lookup 21 subtable" one
Substitution2: "'aalt' Access All Alternates in Latin lookup 0 subtable" one
EndChar

StartChar: two.aalt
Encoding: 65539 -1 40
Width: 594
GlyphClass: 2
Flags: W
LayerCount: 2
Fore
SplineSet
61 0 m 1,0,-1
 61 88 l 1,1,2
 112 130 112 130 150.5 163.5 c 128,-1,3
 189 197 189 197 219 225 c 128,-1,4
 249 253 249 253 275 279 c 0,5,6
 320 324 320 324 347.5 358 c 128,-1,7
 375 392 375 392 388 422 c 128,-1,8
 401 452 401 452 401 484 c 0,9,10
 401 519 401 519 387 545 c 128,-1,11
 373 571 373 571 348.5 585.5 c 128,-1,12
 324 600 324 600 291 600 c 0,13,14
 246 600 246 600 213 571.5 c 128,-1,15
 180 543 180 543 167 493 c 1,16,-1
 57 515 l 1,17,18
 70 572 70 572 103.5 615 c 128,-1,19
 137 658 137 658 186.5 681.5 c 128,-1,20
 236 705 236 705 294 705 c 0,21,22
 343 705 343 705 384 688.5 c 128,-1,23
 425 672 425 672 455.5 642.5 c 128,-1,24
 486 613 486 613 502.5 573.5 c 128,-1,25
 519 534 519 534 519 487 c 0,26,27
 519 444 519 444 503 403 c 128,-1,28
 487 362 487 362 452.5 318 c 128,-1,29
 418 274 418 274 364 221 c 0,30,31
 308 166 308 166 235 105 c 1,32,-1
 531 105 l 1,33,-1
 531 0 l 1,34,-1
 61 0 l 1,0,-1
EndSplineSet
Validated: 1
Substitution2: "'pnum' Proportional Numbers in Latin lookup 21 subtable" two
Substitution2: "'aalt' Access All Alternates in Latin lookup 0 subtable" two
EndChar

StartChar: three.aalt
Encoding: 65540 -1 41
Width: 594
GlyphClass: 2
Flags: W
LayerCount: 2
Fore
SplineSet
293 -15 m 0,0,1
 234 -15 234 -15 183.5 5.5 c 128,-1,2
 133 26 133 26 96.5 67 c 128,-1,3
 60 108 60 108 45 167 c 1,4,-1
 153 188 l 1,5,6
 169 140 169 140 205 114 c 128,-1,7
 241 88 241 88 291 88 c 0,8,9
 328 88 328 88 357 102 c 128,-1,10
 386 116 386 116 402.5 141 c 128,-1,11
 419 166 419 166 419 198 c 256,12,13
 419 230 419 230 402.5 254.5 c 128,-1,14
 386 279 386 279 356.5 292 c 128,-1,15
 327 305 327 305 287 305 c 2,16,-1
 213 305 l 1,17,-1
 213 407 l 1,18,-1
 282 407 l 2,19,20
 319 407 319 407 346.5 419.5 c 128,-1,21
 374 432 374 432 389 455 c 128,-1,22
 404 478 404 478 404 508 c 0,23,24
 404 536 404 536 390 557 c 128,-1,25
 376 578 376 578 351.5 590 c 128,-1,26
 327 602 327 602 294 602 c 0,27,28
 249 602 249 602 214.5 577 c 128,-1,29
 180 552 180 552 166 505 c 1,30,-1
 58 526 l 1,31,32
 70 580 70 580 104 620 c 128,-1,33
 138 660 138 660 188 682.5 c 128,-1,34
 238 705 238 705 299 705 c 0,35,36
 347 705 347 705 387.5 691.5 c 128,-1,37
 428 678 428 678 458 653 c 128,-1,38
 488 628 488 628 504.5 593.5 c 128,-1,39
 521 559 521 559 521 517 c 0,40,41
 521 465 521 465 494.5 425 c 128,-1,42
 468 385 468 385 419 362 c 1,43,44
 474 342 474 342 505.5 298 c 128,-1,45
 537 254 537 254 537 195 c 0,46,47
 537 150 537 150 518.5 111.5 c 128,-1,48
 500 73 500 73 467 45 c 128,-1,49
 434 17 434 17 389.5 1 c 128,-1,50
 345 -15 345 -15 293 -15 c 0,0,1
EndSplineSet
Validated: 1
Substitution2: "'pnum' Proportional Numbers in Latin lookup 21 subtable" three
Substitution2: "'aalt' Access All Alternates in Latin lookup 0 subtable" three
EndChar

StartChar: four.aalt
Encoding: 65541 -1 42
Width: 594
GlyphClass: 2
Flags: W
LayerCount: 2
Fore
SplineSet
357 0 m 1,0,-1
 357 151 l 1,1,-1
 35 151 l 1,2,-1
 35 244 l 1,3,-1
 344 690 l 1,4,-1
 471 690 l 1,5,-1
 471 250 l 1,6,-1
 553 250 l 1,7,-1
 553 151 l 1,8,-1
 471 151 l 1,9,-1
 471 0 l 1,10,-1
 357 0 l 1,0,-1
150 250 m 1,11,-1
 357 250 l 1,12,-1
 357 547 l 1,13,-1
 150 250 l 1,11,-1
EndSplineSet
Validated: 1
Substitution2: "'pnum' Proportional Numbers in Latin lookup 21 subtable" four
Substitution2: "'aalt' Access All Alternates in Latin lookup 0 subtable" four
EndChar

StartChar: five.aalt
Encoding: 65542 -1 43
Width: 594
GlyphClass: 2
Flags: W
LayerCount: 2
Fore
SplineSet
299 -15 m 0,0,1
 239 -15 239 -15 189.5 7 c 128,-1,2
 140 29 140 29 105 69.5 c 128,-1,3
 70 110 70 110 56 164 c 1,4,-1
 166 183 l 1,5,6
 182 138 182 138 217.5 113 c 128,-1,7
 253 88 253 88 299 88 c 0,8,9
 336 88 336 88 365.5 104.5 c 128,-1,10
 395 121 395 121 411.5 149.5 c 128,-1,11
 428 178 428 178 428 215 c 0,12,13
 428 251 428 251 411.5 279 c 128,-1,14
 395 307 395 307 366 323 c 128,-1,15
 337 339 337 339 300 339 c 0,16,17
 268 339 268 339 238 326.5 c 128,-1,18
 208 314 208 314 188 294 c 1,19,-1
 94 304 l 1,20,-1
 94 690 l 1,21,-1
 495 690 l 1,22,-1
 495 583 l 1,23,-1
 204 583 l 1,24,-1
 204 404 l 1,25,26
 251 442 251 442 322 442 c 0,27,28
 370 442 370 442 411 425 c 128,-1,29
 452 408 452 408 482 377.5 c 128,-1,30
 512 347 512 347 529 306 c 128,-1,31
 546 265 546 265 546 217 c 0,32,33
 546 167 546 167 527 124.5 c 128,-1,34
 508 82 508 82 474 50.5 c 128,-1,35
 440 19 440 19 395.5 2 c 128,-1,36
 351 -15 351 -15 299 -15 c 0,0,1
EndSplineSet
Validated: 1
Substitution2: "'pnum' Proportional Numbers in Latin lookup 21 subtable" five
Substitution2: "'aalt' Access All Alternates in Latin lookup 0 subtable" five
EndChar

StartChar: six.aalt
Encoding: 65543 -1 44
Width: 594
GlyphClass: 2
Flags: W
LayerCount: 2
Fore
SplineSet
310 -15 m 0,0,1
 250 -15 250 -15 200.5 9 c 128,-1,2
 151 33 151 33 115.5 77 c 128,-1,3
 80 121 80 121 60.5 183.5 c 128,-1,4
 41 246 41 246 41 322 c 0,5,6
 41 405 41 405 64 475 c 128,-1,7
 87 545 87 545 129 596.5 c 128,-1,8
 171 648 171 648 229 676.5 c 128,-1,9
 287 705 287 705 358 705 c 0,10,11
 402 705 402 705 442 693.5 c 128,-1,12
 482 682 482 682 517 659 c 1,13,-1
 482 563 l 1,14,15
 457 579 457 579 425.5 588.5 c 128,-1,16
 394 598 394 598 360 598 c 0,17,18
 304 598 304 598 260.5 570.5 c 128,-1,19
 217 543 217 543 190.5 488.5 c 128,-1,20
 164 434 164 434 157 355 c 1,21,22
 182 396 182 396 225.5 419.5 c 128,-1,23
 269 443 269 443 327 443 c 0,24,25
 376 443 376 443 418 426 c 128,-1,26
 460 409 460 409 491 378.5 c 128,-1,27
 522 348 522 348 539.5 307.5 c 128,-1,28
 557 267 557 267 557 220 c 0,29,30
 557 170 557 170 538.5 127.5 c 128,-1,31
 520 85 520 85 486 53 c 128,-1,32
 452 21 452 21 407 3 c 128,-1,33
 362 -15 362 -15 310 -15 c 0,0,1
309 87 m 0,34,35
 346 87 346 87 375.5 104.5 c 128,-1,36
 405 122 405 122 422 151.5 c 128,-1,37
 439 181 439 181 439 218 c 256,38,39
 439 255 439 255 422 283.5 c 128,-1,40
 405 312 405 312 376 328.5 c 128,-1,41
 347 345 347 345 310 345 c 256,42,43
 273 345 273 345 244 328.5 c 128,-1,44
 215 312 215 312 198 284 c 128,-1,45
 181 256 181 256 181 219 c 256,46,47
 181 182 181 182 198 152 c 128,-1,48
 215 122 215 122 244 104.5 c 128,-1,49
 273 87 273 87 309 87 c 0,34,35
EndSplineSet
Validated: 1
Substitution2: "'pnum' Proportional Numbers in Latin lookup 21 subtable" six
Substitution2: "'aalt' Access All Alternates in Latin lookup 0 subtable" six
EndChar

StartChar: seven.aalt
Encoding: 65544 -1 45
Width: 594
GlyphClass: 2
Flags: W
LayerCount: 2
Fore
SplineSet
148 0 m 1,0,-1
 401 583 l 1,1,-1
 56 583 l 1,2,-1
 56 690 l 1,3,-1
 530 690 l 1,4,-1
 530 600 l 1,5,-1
 278 0 l 1,6,-1
 148 0 l 1,0,-1
EndSplineSet
Validated: 1
Substitution2: "'pnum' Proportional Numbers in Latin lookup 21 subtable" seven
Substitution2: "'aalt' Access All Alternates in Latin lookup 0 subtable" seven
EndChar

StartChar: eight.aalt
Encoding: 65545 -1 46
Width: 594
GlyphClass: 2
Flags: W
LayerCount: 2
Fore
SplineSet
296 -15 m 256,0,1
 240 -15 240 -15 193.5 0 c 128,-1,2
 147 15 147 15 113.5 42 c 128,-1,3
 80 69 80 69 61.5 107 c 128,-1,4
 43 145 43 145 43 190 c 0,5,6
 43 249 43 249 74.5 294.5 c 128,-1,7
 106 340 106 340 162 361 c 1,8,9
 115 384 115 384 90 423.5 c 128,-1,10
 65 463 65 463 65 512 c 0,11,12
 65 554 65 554 82.5 589.5 c 128,-1,13
 100 625 100 625 131.5 650.5 c 128,-1,14
 163 676 163 676 205.5 690.5 c 128,-1,15
 248 705 248 705 298 705 c 256,16,17
 348 705 348 705 389.5 691 c 128,-1,18
 431 677 431 677 462.5 651 c 128,-1,19
 494 625 494 625 511 590.5 c 128,-1,20
 528 556 528 556 528 514 c 0,21,22
 528 465 528 465 503.5 425.5 c 128,-1,23
 479 386 479 386 433 362 c 1,24,25
 489 342 489 342 520 297.5 c 128,-1,26
 551 253 551 253 551 194 c 0,27,28
 551 148 551 148 532.5 109.5 c 128,-1,29
 514 71 514 71 479.5 43 c 128,-1,30
 445 15 445 15 398.5 0 c 128,-1,31
 352 -15 352 -15 296 -15 c 256,0,1
297 406 m 256,32,33
 331 406 331 406 357.5 419 c 128,-1,34
 384 432 384 432 399 454 c 128,-1,35
 414 476 414 476 414 505 c 256,36,37
 414 534 414 534 399 556 c 128,-1,38
 384 578 384 578 357.5 591 c 128,-1,39
 331 604 331 604 297 604 c 256,40,41
 263 604 263 604 236.5 591 c 128,-1,42
 210 578 210 578 195 556 c 128,-1,43
 180 534 180 534 180 505 c 256,44,45
 180 476 180 476 195 454 c 128,-1,46
 210 432 210 432 236.5 419 c 128,-1,47
 263 406 263 406 297 406 c 256,32,33
297 86 m 256,48,49
 338 86 338 86 368.5 100 c 128,-1,50
 399 114 399 114 416 139 c 128,-1,51
 433 164 433 164 433 197 c 256,52,53
 433 230 433 230 416 255 c 128,-1,54
 399 280 399 280 368.5 294 c 128,-1,55
 338 308 338 308 297 308 c 256,56,57
 256 308 256 308 225.5 294 c 128,-1,58
 195 280 195 280 178 255 c 128,-1,59
 161 230 161 230 161 197 c 256,60,61
 161 164 161 164 178 139 c 128,-1,62
 195 114 195 114 225.5 100 c 128,-1,63
 256 86 256 86 297 86 c 256,48,49
EndSplineSet
Validated: 1
Substitution2: "'pnum' Proportional Numbers in Latin lookup 21 subtable" eight
Substitution2: "'aalt' Access All Alternates in Latin lookup 0 subtable" eight
EndChar

StartChar: nine.aalt
Encoding: 65546 -1 47
Width: 594
GlyphClass: 2
Flags: W
LayerCount: 2
Fore
SplineSet
241 -15 m 0,0,1
 146 -15 146 -15 75 31 c 1,2,-1
 110 127 l 1,3,4
 135 111 135 111 167.5 101.5 c 128,-1,5
 200 92 200 92 238 92 c 0,6,7
 293 92 293 92 336 115.5 c 128,-1,8
 379 139 379 139 406 192.5 c 128,-1,9
 433 246 433 246 439 335 c 1,10,11
 414 294 414 294 370.5 270.5 c 128,-1,12
 327 247 327 247 269 247 c 0,13,14
 220 247 220 247 178.5 264 c 128,-1,15
 137 281 137 281 106 311.5 c 128,-1,16
 75 342 75 342 58 382.5 c 128,-1,17
 41 423 41 423 41 470 c 0,18,19
 41 520 41 520 59.5 562.5 c 128,-1,20
 78 605 78 605 111.5 637 c 128,-1,21
 145 669 145 669 189.5 687 c 128,-1,22
 234 705 234 705 287 705 c 0,23,24
 347 705 347 705 396 681.5 c 128,-1,25
 445 658 445 658 480.5 613.5 c 128,-1,26
 516 569 516 569 535 505 c 128,-1,27
 554 441 554 441 554 360 c 0,28,29
 554 271 554 271 531.5 201 c 128,-1,30
 509 131 509 131 467 83 c 128,-1,31
 425 35 425 35 367.5 10 c 128,-1,32
 310 -15 310 -15 241 -15 c 0,0,1
286 345 m 0,33,34
 323 345 323 345 352 361.5 c 128,-1,35
 381 378 381 378 397.5 406 c 128,-1,36
 414 434 414 434 414 471 c 256,37,38
 414 508 414 508 397 538 c 128,-1,39
 380 568 380 568 351.5 585.5 c 128,-1,40
 323 603 323 603 287 603 c 256,41,42
 251 603 251 603 222 585.5 c 128,-1,43
 193 568 193 568 176 538.5 c 128,-1,44
 159 509 159 509 159 472 c 256,45,46
 159 435 159 435 175.5 406.5 c 128,-1,47
 192 378 192 378 221 361.5 c 128,-1,48
 250 345 250 345 286 345 c 0,33,34
EndSplineSet
Validated: 1
Substitution2: "'pnum' Proportional Numbers in Latin lookup 21 subtable" nine
Substitution2: "'aalt' Access All Alternates in Latin lookup 0 subtable" nine
EndChar

StartChar: uni2080
Encoding: 8320 8320 48
Width: 357
GlyphClass: 2
Flags: W
LayerCount: 2
Fore
SplineSet
178 -9 m 0,0,1
 132 -9 132 -9 98.5 14.5 c 128,-1,2
 65 38 65 38 46.5 83 c 128,-1,3
 28 128 28 128 28 190 c 0,4,5
 28 251 28 251 46 295.5 c 128,-1,6
 64 340 64 340 97.5 364.5 c 128,-1,7
 131 389 131 389 178 389 c 0,8,9
 224 389 224 389 257.5 365.5 c 128,-1,10
 291 342 291 342 309.5 297 c 128,-1,11
 328 252 328 252 328 190 c 0,12,13
 328 129 328 129 310 84.5 c 128,-1,14
 292 40 292 40 258.5 15.5 c 128,-1,15
 225 -9 225 -9 178 -9 c 0,0,1
178 67 m 256,16,17
 209 67 209 67 226 98.5 c 128,-1,18
 243 130 243 130 243 190 c 256,19,20
 243 250 243 250 226 281.5 c 128,-1,21
 209 313 209 313 178 313 c 256,22,23
 147 313 147 313 130 281.5 c 128,-1,24
 113 250 113 250 113 190 c 256,25,26
 113 130 113 130 130 98.5 c 128,-1,27
 147 67 147 67 178 67 c 256,16,17
EndSplineSet
Validated: 1
EndChar

StartChar: uni2081
Encoding: 8321 8321 49
Width: 357
GlyphClass: 2
Flags: W
LayerCount: 2
Fore
SplineSet
166 0 m 1,0,-1
 166 292 l 1,1,-1
 83 248 l 1,2,-1
 57 317 l 1,3,-1
 177 380 l 1,4,-1
 249 380 l 1,5,-1
 249 0 l 1,6,-1
 166 0 l 1,0,-1
EndSplineSet
Validated: 1
EndChar

StartChar: uni2082
Encoding: 8322 8322 50
Width: 357
GlyphClass: 2
Flags: W
LayerCount: 2
Fore
SplineSet
44 0 m 1,0,-1
 44 61 l 1,1,2
 66 78 66 78 88.5 97 c 128,-1,3
 111 116 111 116 129.5 132 c 128,-1,4
 148 148 148 148 157 156 c 0,5,6
 191 186 191 186 208.5 213.5 c 128,-1,7
 226 241 226 241 226 265 c 0,8,9
 226 285 226 285 212.5 300 c 128,-1,10
 199 315 199 315 176 315 c 0,11,12
 156 315 156 315 140 302.5 c 128,-1,13
 124 290 124 290 118 265 c 1,14,-1
 40 278 l 1,15,16
 46 311 46 311 66 336 c 128,-1,17
 86 361 86 361 115.5 375 c 128,-1,18
 145 389 145 389 180 389 c 0,19,20
 218 389 218 389 247.5 373 c 128,-1,21
 277 357 277 357 294 329.5 c 128,-1,22
 311 302 311 302 311 267 c 0,23,24
 311 228 311 228 288.5 193 c 128,-1,25
 266 158 266 158 222 119 c 0,26,27
 210 108 210 108 196 97 c 128,-1,28
 182 86 182 86 167 74 c 1,29,-1
 318 74 l 1,30,-1
 318 0 l 1,31,-1
 44 0 l 1,0,-1
EndSplineSet
Validated: 1
EndChar

StartChar: uni2083
Encoding: 8323 8323 51
Width: 357
GlyphClass: 2
Flags: W
LayerCount: 2
Fore
SplineSet
174 -9 m 0,0,1
 117 -9 117 -9 79.5 19.5 c 128,-1,2
 42 48 42 48 30 95 c 1,3,-1
 107 108 l 1,4,5
 113 88 113 88 130 76 c 128,-1,6
 147 64 147 64 171 64 c 0,7,8
 197 64 197 64 214.5 77.5 c 128,-1,9
 232 91 232 91 232 113 c 0,10,11
 232 133 232 133 216 146 c 128,-1,12
 200 159 200 159 173 159 c 2,13,-1
 132 159 l 1,14,-1
 132 231 l 1,15,-1
 167 231 l 2,16,17
 192 231 192 231 208 243.5 c 128,-1,18
 224 256 224 256 224 275 c 0,19,20
 224 293 224 293 209 304.5 c 128,-1,21
 194 316 194 316 172 316 c 0,22,23
 151 316 151 316 135.5 306 c 128,-1,24
 120 296 120 296 114 276 c 1,25,-1
 37 289 l 1,26,27
 44 320 44 320 63.5 342 c 128,-1,28
 83 364 83 364 112 376.5 c 128,-1,29
 141 389 141 389 177 389 c 0,30,31
 214 389 214 389 243.5 375.5 c 128,-1,32
 273 362 273 362 290 338 c 128,-1,33
 307 314 307 314 307 283 c 0,34,35
 307 255 307 255 292.5 233.5 c 128,-1,36
 278 212 278 212 251 199 c 1,37,38
 282 187 282 187 299 163.5 c 128,-1,39
 316 140 316 140 316 107 c 256,40,41
 316 74 316 74 297.5 47.5 c 128,-1,42
 279 21 279 21 247 6 c 128,-1,43
 215 -9 215 -9 174 -9 c 0,0,1
EndSplineSet
Validated: 1
EndChar

StartChar: uni2084
Encoding: 8324 8324 52
Width: 357
GlyphClass: 2
Flags: W
LayerCount: 2
Fore
SplineSet
199 0 m 1,0,-1
 199 76 l 1,1,-1
 22 76 l 1,2,-1
 22 143 l 1,3,-1
 186 380 l 1,4,-1
 280 380 l 1,5,-1
 280 145 l 1,6,-1
 321 145 l 1,7,-1
 321 76 l 1,8,-1
 280 76 l 1,9,-1
 280 0 l 1,10,-1
 199 0 l 1,0,-1
101 145 m 1,11,-1
 199 145 l 1,12,-1
 199 286 l 1,13,-1
 101 145 l 1,11,-1
EndSplineSet
Validated: 1
EndChar

StartChar: fraction
Encoding: 8260 8260 53
Width: 93
GlyphClass: 2
Flags: W
LayerCount: 2
Fore
SplineSet
-217 0 m 1,0,-1
 219 690 l 1,1,-1
 310 690 l 1,2,-1
 -126 0 l 1,3,-1
 -217 0 l 1,0,-1
EndSplineSet
Validated: 1
EndChar

StartChar: percent
Encoding: 37 37 54
Width: 743
GlyphClass: 2
Flags: W
LayerCount: 2
Fore
SplineSet
191 387 m 256,0,1
 146 387 146 387 111 407 c 128,-1,2
 76 427 76 427 55.5 462 c 128,-1,3
 35 497 35 497 35 542 c 256,4,5
 35 587 35 587 55.5 622.5 c 128,-1,6
 76 658 76 658 112 678.5 c 128,-1,7
 148 699 148 699 193 699 c 256,8,9
 238 699 238 699 273 678.5 c 128,-1,10
 308 658 308 658 328.5 623 c 128,-1,11
 349 588 349 588 349 543 c 256,12,13
 349 498 349 498 328.5 463 c 128,-1,14
 308 428 308 428 272 407.5 c 128,-1,15
 236 387 236 387 191 387 c 256,0,1
204 0 m 1,16,-1
 108 0 l 1,17,-1
 539 690 l 1,18,-1
 635 690 l 1,19,-1
 204 0 l 1,16,-1
124 543 m 256,20,21
 124 520 124 520 133 502.5 c 128,-1,22
 142 485 142 485 157 475 c 128,-1,23
 172 465 172 465 192 465 c 256,24,25
 212 465 212 465 227 475 c 128,-1,26
 242 485 242 485 251 502.5 c 128,-1,27
 260 520 260 520 260 543 c 256,28,29
 260 566 260 566 251 583.5 c 128,-1,30
 242 601 242 601 227 611 c 128,-1,31
 212 621 212 621 192 621 c 256,32,33
 172 621 172 621 157 611 c 128,-1,34
 142 601 142 601 133 583.5 c 128,-1,35
 124 566 124 566 124 543 c 256,20,21
550 -9 m 0,36,37
 506 -9 506 -9 470.5 11 c 128,-1,38
 435 31 435 31 414.5 66 c 128,-1,39
 394 101 394 101 394 146 c 256,40,41
 394 191 394 191 414.5 226.5 c 128,-1,42
 435 262 435 262 470.5 282.5 c 128,-1,43
 506 303 506 303 552 303 c 0,44,45
 596 303 596 303 631.5 282.5 c 128,-1,46
 667 262 667 262 687.5 227 c 128,-1,47
 708 192 708 192 708 147 c 256,48,49
 708 102 708 102 687.5 67 c 128,-1,50
 667 32 667 32 631.5 11.5 c 128,-1,51
 596 -9 596 -9 550 -9 c 0,36,37
551 69 m 256,52,53
 570 69 570 69 585.5 79 c 128,-1,54
 601 89 601 89 610 106.5 c 128,-1,55
 619 124 619 124 619 147 c 256,56,57
 619 170 619 170 610 187.5 c 128,-1,58
 601 205 601 205 585.5 215 c 128,-1,59
 570 225 570 225 551 225 c 256,60,61
 532 225 532 225 516.5 215 c 128,-1,62
 501 205 501 205 492 187.5 c 128,-1,63
 483 170 483 170 483 147 c 256,64,65
 483 124 483 124 492 106.5 c 128,-1,66
 501 89 501 89 516.5 79 c 128,-1,67
 532 69 532 69 551 69 c 256,52,53
EndSplineSet
Validated: 1
EndChar

StartChar: perthousand
Encoding: 8240 8240 55
Width: 1104
GlyphClass: 2
Flags: W
LayerCount: 2
Fore
SplineSet
191 387 m 256,0,1
 146 387 146 387 111 407 c 128,-1,2
 76 427 76 427 55.5 462 c 128,-1,3
 35 497 35 497 35 542 c 256,4,5
 35 587 35 587 55.5 622.5 c 128,-1,6
 76 658 76 658 112 678.5 c 128,-1,7
 148 699 148 699 193 699 c 256,8,9
 238 699 238 699 273 678.5 c 128,-1,10
 308 658 308 658 328.5 623 c 128,-1,11
 349 588 349 588 349 543 c 256,12,13
 349 498 349 498 328.5 463 c 128,-1,14
 308 428 308 428 272 407.5 c 128,-1,15
 236 387 236 387 191 387 c 256,0,1
204 0 m 1,16,-1
 108 0 l 1,17,-1
 539 690 l 1,18,-1
 635 690 l 1,19,-1
 204 0 l 1,16,-1
124 543 m 256,20,21
 124 520 124 520 133 502.5 c 128,-1,22
 142 485 142 485 157 475 c 128,-1,23
 172 465 172 465 192 465 c 256,24,25
 212 465 212 465 227 475 c 128,-1,26
 242 485 242 485 251 502.5 c 128,-1,27
 260 520 260 520 260 543 c 256,28,29
 260 566 260 566 251 583.5 c 128,-1,30
 242 601 242 601 227 611 c 128,-1,31
 212 621 212 621 192 621 c 256,32,33
 172 621 172 621 157 611 c 128,-1,34
 142 601 142 601 133 583.5 c 128,-1,35
 124 566 124 566 124 543 c 256,20,21
550 -9 m 0,36,37
 506 -9 506 -9 470.5 11 c 128,-1,38
 435 31 435 31 414.5 66 c 128,-1,39
 394 101 394 101 394 146 c 256,40,41
 394 191 394 191 414.5 226.5 c 128,-1,42
 435 262 435 262 470.5 282.5 c 128,-1,43
 506 303 506 303 552 303 c 0,44,45
 596 303 596 303 631.5 282.5 c 128,-1,46
 667 262 667 262 687.5 227 c 128,-1,47
 708 192 708 192 708 147 c 256,48,49
 708 102 708 102 687.5 67 c 128,-1,50
 667 32 667 32 631.5 11.5 c 128,-1,51
 596 -9 596 -9 550 -9 c 0,36,37
911 -9 m 256,52,53
 866 -9 866 -9 831 11 c 128,-1,54
 796 31 796 31 775.5 66 c 128,-1,55
 755 101 755 101 755 146 c 256,56,57
 755 191 755 191 775.5 226.5 c 128,-1,58
 796 262 796 262 832 282.5 c 128,-1,59
 868 303 868 303 913 303 c 256,60,61
 958 303 958 303 993 282.5 c 128,-1,62
 1028 262 1028 262 1048.5 227 c 128,-1,63
 1069 192 1069 192 1069 147 c 256,64,65
 1069 102 1069 102 1048.5 67 c 128,-1,66
 1028 32 1028 32 992 11.5 c 128,-1,67
 956 -9 956 -9 911 -9 c 256,52,53
551 69 m 256,68,69
 570 69 570 69 585.5 79 c 128,-1,70
 601 89 601 89 610 106.5 c 128,-1,71
 619 124 619 124 619 147 c 256,72,73
 619 170 619 170 610 187.5 c 128,-1,74
 601 205 601 205 585.5 215 c 128,-1,75
 570 225 570 225 551 225 c 256,76,77
 532 225 532 225 516.5 215 c 128,-1,78
 501 205 501 205 492 187.5 c 128,-1,79
 483 170 483 170 483 147 c 256,80,81
 483 124 483 124 492 106.5 c 128,-1,82
 501 89 501 89 516.5 79 c 128,-1,83
 532 69 532 69 551 69 c 256,68,69
912 69 m 256,84,85
 932 69 932 69 947 79 c 128,-1,86
 962 89 962 89 971 106.5 c 128,-1,87
 980 124 980 124 980 147 c 256,88,89
 980 170 980 170 971 187.5 c 128,-1,90
 962 205 962 205 947 215 c 128,-1,91
 932 225 932 225 912 225 c 256,92,93
 892 225 892 225 877 215 c 128,-1,94
 862 205 862 205 853 187.5 c 128,-1,95
 844 170 844 170 844 147 c 256,96,97
 844 124 844 124 853 106.5 c 128,-1,98
 862 89 862 89 877 79 c 128,-1,99
 892 69 892 69 912 69 c 256,84,85
EndSplineSet
Validated: 1
EndChar

StartChar: dollar
Encoding: 36 36 59
Width: 594
GlyphClass: 2
Flags: W
LayerCount: 2
Fore
SplineSet
267 -140 m 1,0,-1
 267 -8 l 1,1,2
 215 -1 215 -1 171.5 22 c 128,-1,3
 128 45 128 45 97 83 c 128,-1,4
 66 121 66 121 51 171 c 1,5,-1
 158 195 l 1,6,7
 173 153 173 153 200.5 126.5 c 128,-1,8
 228 100 228 100 267 91 c 1,9,-1
 267 304 l 1,10,11
 172 321 172 321 119.5 372 c 128,-1,12
 67 423 67 423 67 498 c 0,13,14
 67 552 67 552 92.5 595 c 128,-1,15
 118 638 118 638 163 665.5 c 128,-1,16
 208 693 208 693 267 699 c 1,17,-1
 267 820 l 1,18,-1
 334 820 l 1,19,-1
 334 698 l 1,20,21
 384 692 384 692 425 669 c 128,-1,22
 466 646 466 646 494 609 c 128,-1,23
 522 572 522 572 534 523 c 1,24,-1
 429 499 l 1,25,26
 415 540 415 540 391.5 564.5 c 128,-1,27
 368 589 368 589 334 597 c 1,28,-1
 334 403 l 1,29,-1
 351 400 l 2,30,31
 445 383 445 383 494.5 331 c 128,-1,32
 544 279 544 279 544 202 c 0,33,34
 544 143 544 143 517 97.5 c 128,-1,35
 490 52 490 52 443 24.5 c 128,-1,36
 396 -3 396 -3 334 -9 c 1,37,-1
 334 -140 l 1,38,-1
 267 -140 l 1,0,-1
179 508 m 0,39,40
 179 478 179 478 198.5 454.5 c 128,-1,41
 218 431 218 431 267 417 c 1,42,-1
 267 599 l 1,43,44
 226 592 226 592 202.5 568 c 128,-1,45
 179 544 179 544 179 508 c 0,39,40
432 191 m 0,46,47
 432 228 432 228 407.5 253.5 c 128,-1,48
 383 279 383 279 334 291 c 1,49,-1
 334 89 l 1,50,51
 378 96 378 96 405 123 c 128,-1,52
 432 150 432 150 432 191 c 0,46,47
EndSplineSet
Validated: 1
EndChar

StartChar: cent
Encoding: 162 162 60
Width: 594
GlyphClass: 2
Flags: W
LayerCount: 2
Fore
SplineSet
273 -138 m 1,0,-1
 273 -7 l 1,1,2
 225 0 225 0 185 22.5 c 128,-1,3
 145 45 145 45 115.5 80 c 128,-1,4
 86 115 86 115 70 160.5 c 128,-1,5
 54 206 54 206 54 258 c 256,6,7
 54 310 54 310 70 356 c 128,-1,8
 86 402 86 402 115.5 438.5 c 128,-1,9
 145 475 145 475 185 498.5 c 128,-1,10
 225 522 225 522 273 530 c 1,11,-1
 273 650 l 1,12,-1
 340 650 l 1,13,-1
 340 532 l 1,14,15
 388 528 388 528 428 508 c 128,-1,16
 468 488 468 488 496.5 455.5 c 128,-1,17
 525 423 525 423 538 380 c 1,18,-1
 429 354 l 1,19,20
 415 385 415 385 392 404.5 c 128,-1,21
 369 424 369 424 340 431 c 1,22,-1
 340 92 l 1,23,24
 371 98 371 98 396 117.5 c 128,-1,25
 421 137 421 137 435 168 c 1,26,-1
 543 143 l 1,27,28
 530 100 530 100 500 68 c 128,-1,29
 470 36 470 36 429 16 c 128,-1,30
 388 -4 388 -4 340 -9 c 1,31,-1
 340 -138 l 1,32,-1
 273 -138 l 1,0,-1
172 259 m 256,33,34
 172 218 172 218 184.5 184.5 c 128,-1,35
 197 151 197 151 219.5 127.5 c 128,-1,36
 242 104 242 104 273 95 c 1,37,-1
 273 428 l 1,38,39
 243 417 243 417 220.5 393 c 128,-1,40
 198 369 198 369 185 334.5 c 128,-1,41
 172 300 172 300 172 259 c 256,33,34
EndSplineSet
Validated: 1
EndChar

StartChar: sterling
Encoding: 163 163 61
Width: 594
GlyphClass: 2
Flags: W
LayerCount: 2
Fore
SplineSet
31 0 m 1,0,-1
 31 105 l 1,1,-1
 92 105 l 1,2,-1
 107 287 l 1,3,-1
 30 287 l 1,4,-1
 30 379 l 1,5,-1
 114 379 l 1,6,-1
 123 483 l 2,7,8
 128 552 128 552 156.5 601.5 c 128,-1,9
 185 651 185 651 232.5 678 c 128,-1,10
 280 705 280 705 342 705 c 0,11,12
 398 705 398 705 442.5 683.5 c 128,-1,13
 487 662 487 662 516.5 621.5 c 128,-1,14
 546 581 546 581 558 525 c 1,15,-1
 448 503 l 1,16,17
 438 551 438 551 411 575.5 c 128,-1,18
 384 600 384 600 343 600 c 0,19,20
 298 600 298 600 270 569 c 128,-1,21
 242 538 242 538 238 482 c 2,22,-1
 230 379 l 1,23,-1
 413 379 l 1,24,-1
 413 287 l 1,25,-1
 222 287 l 1,26,-1
 208 105 l 1,27,-1
 557 105 l 1,28,-1
 557 0 l 1,29,-1
 31 0 l 1,0,-1
EndSplineSet
Validated: 1
EndChar

StartChar: yen
Encoding: 165 165 62
Width: 594
GlyphClass: 2
Flags: W
LayerCount: 2
Fore
SplineSet
92 124 m 1,0,-1
 92 199 l 1,1,-1
 239 199 l 1,2,-1
 239 279 l 1,3,-1
 92 279 l 1,4,-1
 92 354 l 1,5,-1
 203 354 l 1,6,-1
 21 690 l 1,7,-1
 150 690 l 1,8,-1
 299 383 l 1,9,-1
 448 690 l 1,10,-1
 573 690 l 1,11,-1
 391 354 l 1,12,-1
 502 354 l 1,13,-1
 502 279 l 1,14,-1
 355 279 l 1,15,-1
 355 199 l 1,16,-1
 502 199 l 1,17,-1
 502 124 l 1,18,-1
 355 124 l 1,19,-1
 355 0 l 1,20,-1
 239 0 l 1,21,-1
 239 124 l 1,22,-1
 92 124 l 1,0,-1
EndSplineSet
Validated: 1
EndChar

StartChar: Euro
Encoding: 8364 8364 63
Width: 594
GlyphClass: 2
Flags: W
LayerCount: 2
Fore
SplineSet
-4 229 m 1,0,-1
 14 304 l 1,1,-1
 72 304 l 1,2,3
 71 321 71 321 71 339 c 0,4,5
 71 361 71 361 72 381 c 1,6,-1
 -4 381 l 1,7,-1
 14 456 l 1,8,-1
 81 456 l 1,9,10
 96 534 96 534 131 590 c 128,-1,11
 166 646 166 646 218.5 675.5 c 128,-1,12
 271 705 271 705 337 705 c 0,13,14
 394 705 394 705 441 683 c 128,-1,15
 488 661 488 661 520 621 c 128,-1,16
 552 581 552 581 566 526 c 1,17,-1
 457 504 l 1,18,19
 443 550 443 550 411 574.5 c 128,-1,20
 379 599 379 599 336 599 c 0,21,22
 283 599 283 599 248 562 c 128,-1,23
 213 525 213 525 198 456 c 1,24,-1
 413 456 l 1,25,-1
 395 381 l 1,26,-1
 188 381 l 1,27,28
 187 362 187 362 187 341 c 0,29,30
 187 322 187 322 188 304 c 1,31,-1
 380 304 l 1,32,-1
 363 229 l 1,33,-1
 198 229 l 1,34,35
 212 161 212 161 247 126 c 128,-1,36
 282 91 282 91 335 91 c 0,37,38
 380 91 380 91 413.5 116 c 128,-1,39
 447 141 447 141 461 186 c 1,40,-1
 570 164 l 1,41,42
 556 109 556 109 522.5 69 c 128,-1,43
 489 29 489 29 440.5 7 c 128,-1,44
 392 -15 392 -15 333 -15 c 0,45,46
 266 -15 266 -15 214 14 c 128,-1,47
 162 43 162 43 128 97.5 c 128,-1,48
 94 152 94 152 80 229 c 1,49,-1
 -4 229 l 1,0,-1
EndSplineSet
Validated: 1
EndChar

StartChar: uni20BA
Encoding: 8378 8378 64
Width: 594
GlyphClass: 2
Flags: W
LayerCount: 2
Fore
SplineSet
122 0 m 1,0,-1
 122 202 l 1,1,-1
 50 168 l 1,2,-1
 50 250 l 1,3,-1
 122 284 l 1,4,-1
 122 366 l 1,5,-1
 51 332 l 1,6,-1
 51 414 l 1,7,-1
 122 448 l 1,8,-1
 122 690 l 1,9,-1
 238 690 l 1,10,-1
 238 504 l 1,11,-1
 379 571 l 1,12,-1
 379 489 l 1,13,-1
 238 422 l 1,14,-1
 238 340 l 1,15,-1
 379 407 l 1,16,-1
 379 325 l 1,17,-1
 238 258 l 1,18,-1
 238 111 l 1,19,-1
 240 111 l 2,20,21
 326 111 326 111 376.5 158.5 c 128,-1,22
 427 206 427 206 443 297 c 1,23,-1
 553 287 l 1,24,25
 531 145 531 145 449.5 72.5 c 128,-1,26
 368 0 368 0 228 0 c 2,27,-1
 122 0 l 1,0,-1
EndSplineSet
Validated: 1
EndChar

StartChar: uni20B9
Encoding: 8377 8377 65
Width: 594
GlyphClass: 2
Flags: W
LayerCount: 2
Fore
SplineSet
75 602 m 1,0,-1
 75 690 l 1,1,-1
 544 690 l 1,2,-1
 522 602 l 1,3,-1
 412 602 l 1,4,5
 450 566 450 566 464 513 c 1,6,-1
 544 513 l 1,7,-1
 522 426 l 1,8,-1
 468 426 l 1,9,10
 461 376 461 376 433 337.5 c 128,-1,11
 405 299 405 299 360.5 275.5 c 128,-1,12
 316 252 316 252 259 246 c 1,13,-1
 543 0 l 1,14,-1
 373 0 l 1,15,-1
 76 261 l 1,16,-1
 75 261 l 1,17,-1
 75 342 l 1,18,19
 96 337 96 337 128 333.5 c 128,-1,20
 160 330 160 330 190 330 c 0,21,22
 258 330 258 330 298.5 354.5 c 128,-1,23
 339 379 339 379 350 426 c 1,24,-1
 75 426 l 1,25,-1
 75 513 l 1,26,-1
 349 513 l 1,27,28
 336 556 336 556 299 579 c 128,-1,29
 262 602 262 602 205 602 c 2,30,-1
 75 602 l 1,0,-1
EndSplineSet
Validated: 1
EndChar

StartChar: colonmonetary
Encoding: 8353 8353 66
Width: 594
GlyphClass: 2
Flags: W
LayerCount: 2
Fore
SplineSet
138 -140 m 1,0,-1
 167 35 l 1,1,2
 110 77 110 77 78.5 155.5 c 128,-1,3
 47 234 47 234 47 341 c 0,4,5
 47 443 47 443 75 519.5 c 128,-1,6
 103 596 103 596 155 642 c 128,-1,7
 207 688 207 688 278 697 c 1,8,-1
 298 815 l 1,9,-1
 355 815 l 1,10,-1
 336 699 l 1,11,12
 364 697 364 697 390 690 c 1,13,-1
 411 815 l 1,14,-1
 468 815 l 1,15,-1
 443 666 l 1,16,17
 521 618 521 618 549 515 c 1,18,-1
 446 494 l 1,19,20
 437 522 437 522 422 543 c 1,21,-1
 347 95 l 1,22,23
 385 103 385 103 410.5 130 c 128,-1,24
 436 157 436 157 447 196 c 1,25,-1
 553 175 l 1,26,27
 539 122 539 122 508 82 c 128,-1,28
 477 42 477 42 431.5 18 c 128,-1,29
 386 -6 386 -6 330 -9 c 1,30,-1
 308 -140 l 1,31,-1
 251 -140 l 1,32,-1
 273 -7 l 1,33,34
 245 -4 245 -4 219 6 c 1,35,-1
 195 -140 l 1,36,-1
 138 -140 l 1,0,-1
238 114 m 1,37,38
 261 98 261 98 290 93 c 1,39,-1
 373 586 l 1,40,41
 347 599 347 599 319 599 c 1,42,-1
 238 114 l 1,37,38
161 342 m 0,43,44
 161 237 161 237 191 174 c 1,45,-1
 260 587 l 1,46,47
 212 565 212 565 186.5 502.5 c 128,-1,48
 161 440 161 440 161 342 c 0,43,44
EndSplineSet
Validated: 1
EndChar

StartChar: uni20AA
Encoding: 8362 8362 67
Width: 919
GlyphClass: 2
Flags: W
LayerCount: 2
Fore
SplineSet
83 0 m 1,0,-1
 83 690 l 1,1,-1
 379 690 l 2,2,3
 454 690 454 690 508 660 c 128,-1,4
 562 630 562 630 591.5 575 c 128,-1,5
 621 520 621 520 621 445 c 2,6,-1
 621 210 l 1,7,-1
 515 210 l 1,8,-1
 515 441 l 2,9,10
 515 506 515 506 478.5 541.5 c 128,-1,11
 442 577 442 577 375 577 c 2,12,-1
 189 577 l 1,13,-1
 189 0 l 1,14,-1
 83 0 l 1,0,-1
299 0 m 1,15,-1
 299 478 l 1,16,-1
 405 478 l 1,17,-1
 405 113 l 1,18,-1
 591 113 l 2,19,20
 658 113 658 113 694.5 148.5 c 128,-1,21
 731 184 731 184 731 249 c 2,22,-1
 731 690 l 1,23,-1
 837 690 l 1,24,-1
 837 245 l 2,25,26
 837 170 837 170 807.5 115 c 128,-1,27
 778 60 778 60 724 30 c 128,-1,28
 670 0 670 0 595 0 c 2,29,-1
 299 0 l 1,15,-1
EndSplineSet
Validated: 1
EndChar

StartChar: uni20A9
Encoding: 8361 8361 68
Width: 945
GlyphClass: 2
Flags: W
LayerCount: 2
Fore
SplineSet
233 0 m 1,0,-1
 164 265 l 1,1,-1
 34 265 l 1,2,-1
 34 334 l 1,3,-1
 146 334 l 1,4,-1
 124 416 l 1,5,-1
 34 416 l 1,6,-1
 34 485 l 1,7,-1
 106 485 l 1,8,-1
 53 690 l 1,9,-1
 174 690 l 1,10,-1
 218 485 l 1,11,-1
 377 485 l 1,12,-1
 424 690 l 1,13,-1
 525 690 l 1,14,-1
 573 485 l 1,15,-1
 732 485 l 1,16,-1
 776 690 l 1,17,-1
 892 690 l 1,18,-1
 839 485 l 1,19,-1
 911 485 l 1,20,-1
 911 416 l 1,21,-1
 821 416 l 1,22,-1
 799 334 l 1,23,-1
 911 334 l 1,24,-1
 911 265 l 1,25,-1
 781 265 l 1,26,-1
 712 0 l 1,27,-1
 593 0 l 1,28,-1
 532 265 l 1,29,-1
 414 265 l 1,30,-1
 353 0 l 1,31,-1
 233 0 l 1,0,-1
430 334 m 1,32,-1
 516 334 l 1,33,-1
 473 518 l 1,34,-1
 430 334 l 1,32,-1
589 416 m 1,35,-1
 608 334 l 1,36,-1
 699 334 l 1,37,-1
 717 416 l 1,38,-1
 589 416 l 1,35,-1
251 334 m 1,39,-1
 342 334 l 1,40,-1
 361 416 l 1,41,-1
 233 416 l 1,42,-1
 251 334 l 1,39,-1
266 265 m 1,43,-1
 295 131 l 1,44,-1
 326 265 l 1,45,-1
 266 265 l 1,43,-1
624 265 m 1,46,-1
 655 131 l 1,47,-1
 684 265 l 1,48,-1
 624 265 l 1,46,-1
EndSplineSet
Validated: 1
EndChar

StartChar: uni20AD
Encoding: 8365 8365 69
Width: 594
GlyphClass: 2
Flags: W
LayerCount: 2
Fore
SplineSet
85 0 m 1,0,-1
 85 316 l 1,1,-1
 12 316 l 1,2,-1
 12 408 l 1,3,-1
 85 408 l 1,4,-1
 85 690 l 1,5,-1
 201 690 l 1,6,-1
 201 386 l 1,7,-1
 424 690 l 1,8,-1
 559 690 l 1,9,-1
 337 408 l 1,10,-1
 517 408 l 1,11,-1
 517 316 l 1,12,-1
 343 316 l 1,13,-1
 595 0 l 1,14,-1
 445 0 l 1,15,-1
 201 334 l 1,16,-1
 201 0 l 1,17,-1
 85 0 l 1,0,-1
EndSplineSet
Validated: 1
EndChar

StartChar: uni20A8
Encoding: 8360 8360 70
Width: 1053
GlyphClass: 2
Flags: W
LayerCount: 2
Fore
SplineSet
68 0 m 1,0,-1
 68 690 l 1,1,-1
 269 690 l 2,2,3
 349 690 349 690 407 664 c 128,-1,4
 465 638 465 638 496 589.5 c 128,-1,5
 527 541 527 541 527 474 c 0,6,7
 527 433 527 433 512.5 396 c 128,-1,8
 498 359 498 359 471 330 c 128,-1,9
 444 301 444 301 407 283 c 1,10,-1
 564 0 l 1,11,-1
 432 0 l 1,12,-1
 302 251 l 1,13,14
 277 249 277 249 257 249 c 0,15,16
 225 249 225 249 184 255 c 1,17,-1
 184 0 l 1,18,-1
 68 0 l 1,0,-1
184 587 m 1,19,-1
 184 359 l 1,20,21
 203 355 203 355 223 353.5 c 128,-1,22
 243 352 243 352 263 352 c 0,23,24
 334 352 334 352 372 383 c 128,-1,25
 410 414 410 414 410 470 c 0,26,27
 410 525 410 525 373 556 c 128,-1,28
 336 587 336 587 269 587 c 2,29,-1
 184 587 l 1,19,-1
804 -15 m 0,30,31
 752 -15 752 -15 709 2 c 128,-1,32
 666 19 666 19 636 50.5 c 128,-1,33
 606 82 606 82 592 125 c 1,34,-1
 696 152 l 1,35,36
 710 118 710 118 738.5 99 c 128,-1,37
 767 80 767 80 805 80 c 0,38,39
 844 80 844 80 869 98.5 c 128,-1,40
 894 117 894 117 894 146 c 0,41,42
 894 171 894 171 874 188 c 128,-1,43
 854 205 854 205 809 213 c 2,44,-1
 776 219 l 2,45,46
 692 234 692 234 649.5 273 c 128,-1,47
 607 312 607 312 607 373 c 0,48,49
 607 422 607 422 632 459 c 128,-1,50
 657 496 657 496 700.5 517 c 128,-1,51
 744 538 744 538 802 538 c 0,52,53
 852 538 852 538 892.5 521 c 128,-1,54
 933 504 933 504 961 473 c 128,-1,55
 989 442 989 442 1001 400 c 1,56,-1
 898 375 l 1,57,58
 886 407 886 407 860.5 425.5 c 128,-1,59
 835 444 835 444 801 444 c 0,60,61
 766 444 766 444 743 426.5 c 128,-1,62
 720 409 720 409 720 382 c 0,63,64
 720 359 720 359 740 344 c 128,-1,65
 760 329 760 329 810 320 c 2,66,-1
 843 314 l 2,67,68
 923 300 923 300 966 259 c 128,-1,69
 1009 218 1009 218 1009 157 c 0,70,71
 1009 120 1009 120 994 88.5 c 128,-1,72
 979 57 979 57 951.5 33.5 c 128,-1,73
 924 10 924 10 886.5 -2.5 c 128,-1,74
 849 -15 849 -15 804 -15 c 0,30,31
EndSplineSet
Validated: 1
EndChar

StartChar: uni20B1
Encoding: 8369 8369 71
Width: 594
GlyphClass: 2
Flags: W
LayerCount: 2
Fore
SplineSet
91 0 m 1,0,-1
 91 354 l 1,1,-1
 15 354 l 1,2,-1
 15 411 l 1,3,-1
 91 411 l 1,4,-1
 91 479 l 1,5,-1
 16 479 l 1,6,-1
 16 536 l 1,7,-1
 91 536 l 1,8,-1
 91 690 l 1,9,-1
 272 690 l 2,10,11
 331 690 331 690 378 671.5 c 128,-1,12
 425 653 425 653 458 618.5 c 128,-1,13
 491 584 491 584 507 536 c 1,14,-1
 581 536 l 1,15,-1
 581 479 l 1,16,-1
 520 479 l 1,17,18
 522 460 522 460 522 440 c 0,19,20
 522 425 522 425 521 411 c 1,21,-1
 581 411 l 1,22,-1
 581 354 l 1,23,-1
 509 354 l 1,24,25
 493 304 493 304 459 267.5 c 128,-1,26
 425 231 425 231 376.5 211 c 128,-1,27
 328 191 328 191 268 191 c 0,28,29
 240 191 240 191 205 196 c 1,30,-1
 205 0 l 1,31,-1
 91 0 l 1,0,-1
205 590 m 1,32,-1
 205 536 l 1,33,-1
 383 536 l 1,34,35
 364 562 364 562 335 576 c 128,-1,36
 306 590 306 590 269 590 c 2,37,-1
 205 590 l 1,32,-1
410 441 m 0,38,39
 410 461 410 461 406 479 c 1,40,-1
 205 479 l 1,41,-1
 205 411 l 1,42,-1
 408 411 l 1,43,44
 410 425 410 425 410 441 c 0,38,39
259 291 m 0,45,46
 303 291 303 291 335.5 307.5 c 128,-1,47
 368 324 368 324 387 354 c 1,48,-1
 205 354 l 1,49,-1
 205 296 l 1,50,51
 235 291 235 291 259 291 c 0,45,46
EndSplineSet
Validated: 1
EndChar

StartChar: uni0E3F
Encoding: 3647 3647 72
Width: 594
GlyphClass: 2
Flags: W
LayerCount: 2
Fore
SplineSet
72 0 m 1,0,-1
 72 690 l 1,1,-1
 258 690 l 1,2,-1
 258 815 l 1,3,-1
 325 815 l 1,4,-1
 325 689 l 1,5,6
 387 685 387 685 432 662.5 c 128,-1,7
 477 640 477 640 501 602 c 128,-1,8
 525 564 525 564 525 513 c 0,9,10
 525 465 525 465 503 427 c 128,-1,11
 481 389 481 389 439 367 c 1,12,13
 494 348 494 348 524.5 302.5 c 128,-1,14
 555 257 555 257 555 195 c 0,15,16
 555 138 555 138 527 95.5 c 128,-1,17
 499 53 499 53 447.5 28.5 c 128,-1,18
 396 4 396 4 325 0 c 1,19,-1
 325 -140 l 1,20,-1
 258 -140 l 1,21,-1
 258 0 l 1,22,-1
 72 0 l 1,0,-1
182 593 m 1,23,-1
 182 403 l 1,24,-1
 258 403 l 1,25,-1
 258 593 l 1,26,-1
 182 593 l 1,23,-1
411 498 m 256,27,28
 411 537 411 537 388.5 561 c 128,-1,29
 366 585 366 585 325 591 c 1,30,-1
 325 405 l 1,31,32
 367 410 367 410 389 434.5 c 128,-1,33
 411 459 411 459 411 498 c 256,27,28
182 97 m 1,34,-1
 258 97 l 1,35,-1
 258 312 l 1,36,-1
 182 312 l 1,37,-1
 182 97 l 1,34,-1
440 204 m 0,38,39
 440 252 440 252 410 280 c 128,-1,40
 380 308 380 308 325 312 c 1,41,-1
 325 97 l 1,42,43
 380 101 380 101 410 129 c 128,-1,44
 440 157 440 157 440 204 c 0,38,39
EndSplineSet
Validated: 1
EndChar

StartChar: dong
Encoding: 8363 8363 73
Width: 594
GlyphClass: 2
Flags: W
LayerCount: 2
Fore
SplineSet
245 -15 m 0,0,1
 197 -15 197 -15 156.5 4.5 c 128,-1,2
 116 24 116 24 85.5 58.5 c 128,-1,3
 55 93 55 93 38 139.5 c 128,-1,4
 21 186 21 186 21 240 c 0,5,6
 21 295 21 295 38.5 342 c 128,-1,7
 56 389 56 389 87 424 c 128,-1,8
 118 459 118 459 160 478.5 c 128,-1,9
 202 498 202 498 251 498 c 0,10,11
 298 498 298 498 337 477.5 c 128,-1,12
 376 457 376 457 401 421 c 1,13,-1
 401 543 l 1,14,-1
 270 543 l 1,15,-1
 270 623 l 1,16,-1
 401 623 l 1,17,-1
 401 690 l 1,18,-1
 517 690 l 1,19,-1
 517 623 l 1,20,-1
 583 623 l 1,21,-1
 583 543 l 1,22,-1
 517 543 l 1,23,-1
 517 0 l 1,24,-1
 411 0 l 1,25,-1
 407 75 l 1,26,27
 381 33 381 33 339 9 c 128,-1,28
 297 -15 297 -15 245 -15 c 0,0,1
270 87 m 256,29,30
 308 87 308 87 338 107 c 128,-1,31
 368 127 368 127 385.5 162 c 128,-1,32
 403 197 403 197 403 242 c 256,33,34
 403 287 403 287 385.5 322 c 128,-1,35
 368 357 368 357 338 377 c 128,-1,36
 308 397 308 397 270 397 c 256,37,38
 232 397 232 397 202 377 c 128,-1,39
 172 357 172 357 155 322 c 128,-1,40
 138 287 138 287 138 242 c 256,41,42
 138 197 138 197 155 162 c 128,-1,43
 172 127 172 127 202 107 c 128,-1,44
 232 87 232 87 270 87 c 256,29,30
26 -153 m 1,45,-1
 26 -73 l 1,46,-1
 547 -73 l 1,47,-1
 547 -153 l 1,48,-1
 26 -153 l 1,45,-1
EndSplineSet
Validated: 1
EndChar

StartChar: currency
Encoding: 164 164 74
Width: 594
GlyphClass: 2
Flags: W
LayerCount: 2
Fore
SplineSet
47 177 m 1,0,-1
 126 256 l 1,1,2
 111 279 111 279 103 306 c 128,-1,3
 95 333 95 333 95 363 c 256,4,5
 95 393 95 393 103 420.5 c 128,-1,6
 111 448 111 448 126 471 c 1,7,-1
 47 550 l 1,8,-1
 114 617 l 1,9,-1
 193 538 l 1,10,11
 216 552 216 552 242.5 559.5 c 128,-1,12
 269 567 269 567 297 567 c 256,13,14
 325 567 325 567 351.5 559.5 c 128,-1,15
 378 552 378 552 401 538 c 1,16,-1
 480 617 l 1,17,-1
 547 550 l 1,18,-1
 468 471 l 1,19,20
 483 448 483 448 491 421 c 128,-1,21
 499 394 499 394 499 364 c 256,22,23
 499 334 499 334 491 306.5 c 128,-1,24
 483 279 483 279 468 256 c 1,25,-1
 547 177 l 1,26,-1
 480 110 l 1,27,-1
 401 189 l 1,28,29
 378 175 378 175 351.5 167.5 c 128,-1,30
 325 160 325 160 296 160 c 0,31,32
 268 160 268 160 242 167.5 c 128,-1,33
 216 175 216 175 193 189 c 1,34,-1
 114 110 l 1,35,-1
 47 177 l 1,0,-1
297 253 m 256,36,37
 326 253 326 253 348 267.5 c 128,-1,38
 370 282 370 282 382.5 307 c 128,-1,39
 395 332 395 332 395 363 c 256,40,41
 395 394 395 394 382.5 419 c 128,-1,42
 370 444 370 444 348 458 c 128,-1,43
 326 472 326 472 297 472 c 256,44,45
 268 472 268 472 246 458 c 128,-1,46
 224 444 224 444 211 419 c 128,-1,47
 198 394 198 394 198 363 c 256,48,49
 198 332 198 332 211 307 c 128,-1,50
 224 282 224 282 246 267.5 c 128,-1,51
 268 253 268 253 297 253 c 256,36,37
EndSplineSet
Validated: 1
EndChar

StartChar: asciicircum
Encoding: 94 94 75
Width: 594
GlyphClass: 2
Flags: W
LayerCount: 2
Fore
SplineSet
76 344 m 1,0,-1
 247 690 l 1,1,-1
 348 690 l 1,2,-1
 519 344 l 1,3,-1
 409 344 l 1,4,-1
 296 578 l 1,5,-1
 182 344 l 1,6,-1
 76 344 l 1,0,-1
EndSplineSet
Validated: 1
EndChar

StartChar: plus
Encoding: 43 43 76
Width: 594
GlyphClass: 2
Flags: W
LayerCount: 2
Fore
SplineSet
83 227 m 1,0,-1
 83 324 l 1,1,-1
 247 324 l 1,2,-1
 247 490 l 1,3,-1
 347 490 l 1,4,-1
 347 324 l 1,5,-1
 511 324 l 1,6,-1
 511 227 l 1,7,-1
 347 227 l 1,8,-1
 347 55 l 1,9,-1
 247 55 l 1,10,-1
 247 227 l 1,11,-1
 83 227 l 1,0,-1
EndSplineSet
Validated: 1
EndChar

StartChar: minus
Encoding: 8722 8722 77
Width: 594
GlyphClass: 2
Flags: W
LayerCount: 2
Fore
SplineSet
92 225 m 1,0,-1
 92 326 l 1,1,-1
 502 326 l 1,2,-1
 502 225 l 1,3,-1
 92 225 l 1,0,-1
EndSplineSet
Validated: 1
EndChar

StartChar: plusminus
Encoding: 177 177 78
Width: 594
GlyphClass: 2
Flags: W
LayerCount: 2
Fore
SplineSet
249 154 m 1,0,-1
 249 317 l 1,1,-1
 88 317 l 1,2,-1
 88 408 l 1,3,-1
 249 408 l 1,4,-1
 249 565 l 1,5,-1
 345 565 l 1,6,-1
 345 408 l 1,7,-1
 507 408 l 1,8,-1
 507 317 l 1,9,-1
 345 317 l 1,10,-1
 345 154 l 1,11,-1
 249 154 l 1,0,-1
98 0 m 1,12,-1
 98 96 l 1,13,-1
 497 96 l 1,14,-1
 497 0 l 1,15,-1
 98 0 l 1,12,-1
EndSplineSet
Validated: 1
EndChar

StartChar: equal
Encoding: 61 61 79
Width: 594
GlyphClass: 2
Flags: W
LayerCount: 2
Fore
SplineSet
86 339 m 1,0,-1
 86 440 l 1,1,-1
 509 440 l 1,2,-1
 509 339 l 1,3,-1
 86 339 l 1,0,-1
86 111 m 1,4,-1
 86 212 l 1,5,-1
 509 212 l 1,6,-1
 509 111 l 1,7,-1
 86 111 l 1,4,-1
EndSplineSet
Validated: 1
EndChar

StartChar: divide
Encoding: 247 247 80
Width: 594
GlyphClass: 2
Flags: W
LayerCount: 2
Fore
SplineSet
297 380 m 256,0,1
 280 380 280 380 265.5 388.5 c 128,-1,2
 251 397 251 397 243 411 c 128,-1,3
 235 425 235 425 235 442 c 256,4,5
 235 459 235 459 243 473 c 128,-1,6
 251 487 251 487 265.5 495.5 c 128,-1,7
 280 504 280 504 297 504 c 256,8,9
 314 504 314 504 328.5 495.5 c 128,-1,10
 343 487 343 487 351 473 c 128,-1,11
 359 459 359 459 359 442 c 256,12,13
 359 425 359 425 351 411 c 128,-1,14
 343 397 343 397 328.5 388.5 c 128,-1,15
 314 380 314 380 297 380 c 256,0,1
88 225 m 1,16,-1
 88 326 l 1,17,-1
 506 326 l 1,18,-1
 506 225 l 1,19,-1
 88 225 l 1,16,-1
297 47 m 256,20,21
 280 47 280 47 265.5 55.5 c 128,-1,22
 251 64 251 64 243 78 c 128,-1,23
 235 92 235 92 235 109 c 256,24,25
 235 126 235 126 243 140 c 128,-1,26
 251 154 251 154 265.5 162.5 c 128,-1,27
 280 171 280 171 297 171 c 256,28,29
 314 171 314 171 328.5 162.5 c 128,-1,30
 343 154 343 154 351 140 c 128,-1,31
 359 126 359 126 359 109 c 256,32,33
 359 92 359 92 351 78 c 128,-1,34
 343 64 343 64 328.5 55.5 c 128,-1,35
 314 47 314 47 297 47 c 256,20,21
EndSplineSet
Validated: 1
EndChar

StartChar: less
Encoding: 60 60 81
Width: 594
GlyphClass: 2
Flags: W
LayerCount: 2
Fore
SplineSet
473 484 m 1,0,-1
 473 383 l 1,1,-1
 210 277 l 1,2,-1
 473 171 l 1,3,-1
 473 66 l 1,4,-1
 95 229 l 1,5,-1
 95 321 l 1,6,-1
 473 484 l 1,0,-1
EndSplineSet
Validated: 1
EndChar

StartChar: greater
Encoding: 62 62 82
Width: 594
GlyphClass: 2
Flags: W
LayerCount: 2
Fore
SplineSet
122 66 m 1,0,-1
 122 167 l 1,1,-1
 385 273 l 1,2,-1
 122 379 l 1,3,-1
 122 484 l 1,4,-1
 500 321 l 1,5,-1
 500 229 l 1,6,-1
 122 66 l 1,0,-1
EndSplineSet
Validated: 1
EndChar

StartChar: asciitilde
Encoding: 126 126 83
Width: 594
GlyphClass: 2
Flags: W
LayerCount: 2
Fore
SplineSet
385 183 m 0,0,1
 360 183 360 183 340 191 c 128,-1,2
 320 199 320 199 304 210.5 c 128,-1,3
 288 222 288 222 273.5 233.5 c 128,-1,4
 259 245 259 245 245.5 253 c 128,-1,5
 232 261 232 261 217 261 c 0,6,7
 177 261 177 261 164 190 c 1,8,-1
 66 190 l 1,9,10
 76 273 76 273 113.5 319 c 128,-1,11
 151 365 151 365 209 365 c 0,12,13
 234 365 234 365 254 357 c 128,-1,14
 274 349 274 349 290 337.5 c 128,-1,15
 306 326 306 326 320.5 314.5 c 128,-1,16
 335 303 335 303 348.5 295 c 128,-1,17
 362 287 362 287 377 287 c 0,18,19
 417 287 417 287 430 358 c 1,20,-1
 528 358 l 1,21,22
 518 275 518 275 480.5 229 c 128,-1,23
 443 183 443 183 385 183 c 0,0,1
EndSplineSet
Validated: 1
EndChar

StartChar: logicalnot
Encoding: 172 172 84
Width: 594
GlyphClass: 2
Flags: W
LayerCount: 2
Fore
SplineSet
80 271 m 1,0,-1
 80 368 l 1,1,-1
 494 368 l 1,2,-1
 494 100 l 1,3,-1
 394 100 l 1,4,-1
 394 271 l 1,5,-1
 80 271 l 1,0,-1
EndSplineSet
Validated: 1
EndChar

StartChar: multiply
Encoding: 215 215 85
Width: 594
GlyphClass: 2
Flags: W
LayerCount: 2
Fore
SplineSet
158 73 m 1,0,-1
 94 137 l 1,1,-1
 234 277 l 1,2,-1
 101 410 l 1,3,-1
 165 474 l 1,4,-1
 298 341 l 1,5,-1
 430 474 l 1,6,-1
 494 410 l 1,7,-1
 361 277 l 1,8,-1
 501 137 l 1,9,-1
 437 73 l 1,10,-1
 298 213 l 1,11,-1
 158 73 l 1,0,-1
EndSplineSet
Validated: 1
EndChar

StartChar: underscore
Encoding: 95 95 86
Width: 573
GlyphClass: 2
Flags: W
LayerCount: 2
Fore
SplineSet
30 -150 m 1,0,-1
 30 -63 l 1,1,-1
 543 -63 l 1,2,-1
 543 -150 l 1,3,-1
 30 -150 l 1,0,-1
EndSplineSet
Validated: 1
EndChar

StartChar: section
Encoding: 167 167 87
Width: 506
GlyphClass: 2
Flags: W
LayerCount: 2
Fore
SplineSet
249 -95 m 0,0,1
 171 -95 171 -95 113.5 -60 c 128,-1,2
 56 -25 56 -25 31 42 c 1,3,-1
 136 68 l 1,4,5
 170 -1 170 -1 251 -1 c 0,6,7
 294 -1 294 -1 320.5 17 c 128,-1,8
 347 35 347 35 347 66 c 0,9,10
 347 92 347 92 325 108.5 c 128,-1,11
 303 125 303 125 255 134 c 2,12,-1
 207 143 l 2,13,14
 126 158 126 158 82.5 199 c 128,-1,15
 39 240 39 240 39 302 c 0,16,17
 39 348 39 348 62.5 384 c 128,-1,18
 86 420 86 420 128 440 c 1,19,20
 90 461 90 461 71 491.5 c 128,-1,21
 52 522 52 522 52 561 c 0,22,23
 52 596 52 596 67 626 c 128,-1,24
 82 656 82 656 109.5 678 c 128,-1,25
 137 700 137 700 174 712.5 c 128,-1,26
 211 725 211 725 255 725 c 0,27,28
 334 725 334 725 386.5 688.5 c 128,-1,29
 439 652 439 652 459 590 c 1,30,-1
 354 564 l 1,31,32
 326 630 326 630 251 630 c 0,33,34
 214 630 214 630 189.5 613.5 c 128,-1,35
 165 597 165 597 165 570 c 0,36,37
 165 544 165 544 189.5 527 c 128,-1,38
 214 510 214 510 260 503 c 2,39,-1
 310 495 l 2,40,41
 393 482 393 482 434 440 c 128,-1,42
 475 398 475 398 475 339 c 0,43,44
 475 290 475 290 449.5 254 c 128,-1,45
 424 218 424 218 382 198 c 1,46,47
 462 156 462 156 462 73 c 0,48,49
 462 36 462 36 446.5 5.5 c 128,-1,50
 431 -25 431 -25 402 -47.5 c 128,-1,51
 373 -70 373 -70 334.5 -82.5 c 128,-1,52
 296 -95 296 -95 249 -95 c 0,0,1
365 315 m 0,53,54
 365 346 365 346 343.5 365 c 128,-1,55
 322 384 322 384 280 393 c 2,56,-1
 257 398 l 2,57,58
 244 401 244 401 231 401 c 0,59,60
 195 401 195 401 171.5 379.5 c 128,-1,61
 148 358 148 358 148 323 c 0,62,63
 148 292 148 292 169.5 273 c 128,-1,64
 191 254 191 254 233 245 c 2,65,-1
 256 240 l 2,66,67
 270 237 270 237 282 237 c 0,68,69
 318 237 318 237 341.5 258.5 c 128,-1,70
 365 280 365 280 365 315 c 0,53,54
EndSplineSet
Validated: 1
EndChar

StartChar: paragraph
Encoding: 182 182 88
Width: 587
GlyphClass: 2
Flags: W
LayerCount: 2
Fore
SplineSet
273 -92 m 1,0,-1
 273 246 l 1,1,2
 201 253 201 253 149 283.5 c 128,-1,3
 97 314 97 314 69 363.5 c 128,-1,4
 41 413 41 413 41 479 c 0,5,6
 41 550 41 550 73.5 602 c 128,-1,7
 106 654 106 654 167 682 c 128,-1,8
 228 710 228 710 313 710 c 2,9,-1
 353 710 l 1,10,-1
 353 -92 l 1,11,-1
 273 -92 l 1,0,-1
430 -92 m 1,12,-1
 430 710 l 1,13,-1
 510 710 l 1,14,-1
 510 -92 l 1,15,-1
 430 -92 l 1,12,-1
EndSplineSet
Validated: 1
EndChar

StartChar: numbersign
Encoding: 35 35 89
Width: 661
GlyphClass: 2
Flags: W
LayerCount: 2
Fore
SplineSet
134 0 m 1,0,-1
 149 182 l 1,1,-1
 52 182 l 1,2,-1
 59 267 l 1,3,-1
 156 267 l 1,4,-1
 168 424 l 1,5,-1
 73 424 l 1,6,-1
 80 510 l 1,7,-1
 175 510 l 1,8,-1
 190 690 l 1,9,-1
 286 690 l 1,10,-1
 271 510 l 1,11,-1
 416 510 l 1,12,-1
 431 690 l 1,13,-1
 527 690 l 1,14,-1
 512 510 l 1,15,-1
 609 510 l 1,16,-1
 602 424 l 1,17,-1
 505 424 l 1,18,-1
 493 267 l 1,19,-1
 588 267 l 1,20,-1
 581 182 l 1,21,-1
 486 182 l 1,22,-1
 471 0 l 1,23,-1
 375 0 l 1,24,-1
 390 182 l 1,25,-1
 245 182 l 1,26,-1
 230 0 l 1,27,-1
 134 0 l 1,0,-1
252 267 m 1,28,-1
 397 267 l 1,29,-1
 409 424 l 1,30,-1
 264 424 l 1,31,-1
 252 267 l 1,28,-1
EndSplineSet
Validated: 1
EndChar

StartChar: bar
Encoding: 124 124 90
Width: 262
GlyphClass: 2
Flags: W
LayerCount: 2
Fore
SplineSet
80 -111 m 1,0,-1
 80 759 l 1,1,-1
 182 759 l 1,2,-1
 182 -111 l 1,3,-1
 80 -111 l 1,0,-1
EndSplineSet
Validated: 1
EndChar

StartChar: dagger
Encoding: 8224 8224 91
Width: 471
GlyphClass: 2
Flags: W
LayerCount: 2
Fore
SplineSet
183 -82 m 1,0,-1
 183 442 l 1,1,-1
 30 442 l 1,2,-1
 30 534 l 1,3,-1
 183 534 l 1,4,-1
 183 710 l 1,5,-1
 288 710 l 1,6,-1
 288 534 l 1,7,-1
 441 534 l 1,8,-1
 441 442 l 1,9,-1
 288 442 l 1,10,-1
 288 -82 l 1,11,-1
 183 -82 l 1,0,-1
EndSplineSet
Validated: 1
EndChar

StartChar: daggerdbl
Encoding: 8225 8225 92
Width: 518
GlyphClass: 2
Flags: W
LayerCount: 2
Fore
SplineSet
53 99 m 1,0,-1
 53 191 l 1,1,-1
 206 191 l 1,2,-1
 206 442 l 1,3,-1
 53 442 l 1,4,-1
 53 534 l 1,5,-1
 206 534 l 1,6,-1
 206 710 l 1,7,-1
 311 710 l 1,8,-1
 311 534 l 1,9,-1
 464 534 l 1,10,-1
 464 442 l 1,11,-1
 311 442 l 1,12,-1
 311 191 l 1,13,-1
 464 191 l 1,14,-1
 464 99 l 1,15,-1
 311 99 l 1,16,-1
 311 -82 l 1,17,-1
 206 -82 l 1,18,-1
 206 99 l 1,19,-1
 53 99 l 1,0,-1
EndSplineSet
Validated: 1
EndChar

StartChar: ampersand
Encoding: 38 38 93
Width: 697
GlyphClass: 2
Flags: W
LayerCount: 2
Fore
SplineSet
279 -20 m 0,0,1
 225 -20 225 -20 180.5 -5 c 128,-1,2
 136 10 136 10 103.5 37 c 128,-1,3
 71 64 71 64 53.5 101 c 128,-1,4
 36 138 36 138 36 182 c 0,5,6
 36 244 36 244 71 295.5 c 128,-1,7
 106 347 106 347 167 379 c 1,8,9
 139 409 139 409 122 435.5 c 128,-1,10
 105 462 105 462 97 488 c 128,-1,11
 89 514 89 514 89 542 c 0,12,13
 89 582 89 582 103.5 615.5 c 128,-1,14
 118 649 118 649 143.5 673.5 c 128,-1,15
 169 698 169 698 204 711.5 c 128,-1,16
 239 725 239 725 281 725 c 0,17,18
 322 725 322 725 356 712.5 c 128,-1,19
 390 700 390 700 415 677 c 128,-1,20
 440 654 440 654 454 623 c 128,-1,21
 468 592 468 592 468 556 c 0,22,23
 468 444 468 444 329 366 c 1,24,-1
 486 208 l 1,25,26
 506 244 506 244 518.5 289.5 c 128,-1,27
 531 335 531 335 535 388 c 1,28,-1
 638 379 l 1,29,30
 630 306 630 306 610 245 c 128,-1,31
 590 184 590 184 559 136 c 1,32,-1
 694 0 l 1,33,-1
 540 0 l 1,34,-1
 487 54 l 1,35,36
 444 18 444 18 391.5 -1 c 128,-1,37
 339 -20 339 -20 279 -20 c 0,0,1
198 546 m 0,38,39
 198 520 198 520 214 492.5 c 128,-1,40
 230 465 230 465 265 430 c 1,41,42
 313 454 313 454 337 485.5 c 128,-1,43
 361 517 361 517 361 551 c 0,44,45
 361 586 361 586 338.5 607 c 128,-1,46
 316 628 316 628 282 628 c 0,47,48
 258 628 258 628 239 617.5 c 128,-1,49
 220 607 220 607 209 588.5 c 128,-1,50
 198 570 198 570 198 546 c 0,38,39
155 194 m 0,51,52
 155 160 155 160 171.5 134.5 c 128,-1,53
 188 109 188 109 218.5 94.5 c 128,-1,54
 249 80 249 80 290 80 c 0,55,56
 326 80 326 80 358 91.5 c 128,-1,57
 390 103 390 103 417 124 c 1,58,-1
 230 314 l 1,59,60
 194 294 194 294 174.5 262 c 128,-1,61
 155 230 155 230 155 194 c 0,51,52
EndSplineSet
Validated: 1
EndChar

StartChar: asterisk
Encoding: 42 42 94
Width: 413
GlyphClass: 2
Flags: W
LayerCount: 2
Fore
SplineSet
129 332 m 1,0,-1
 54 385 l 1,1,-1
 147 498 l 1,2,-1
 10 533 l 1,3,-1
 37 620 l 1,4,-1
 169 567 l 1,5,-1
 160 710 l 1,6,-1
 253 710 l 1,7,-1
 244 567 l 1,8,-1
 376 620 l 1,9,-1
 403 533 l 1,10,-1
 266 498 l 1,11,-1
 359 385 l 1,12,-1
 284 332 l 1,13,-1
 206 455 l 1,14,-1
 129 332 l 1,0,-1
EndSplineSet
Validated: 1
EndChar

StartChar: hyphen
Encoding: 45 45 95
Width: 372
GlyphClass: 2
Flags: W
LayerCount: 2
Fore
SplineSet
46 224 m 1,0,-1
 46 326 l 1,1,-1
 326 326 l 1,2,-1
 326 224 l 1,3,-1
 46 224 l 1,0,-1
EndSplineSet
Validated: 1
Substitution2: "'case' Case-Sensitive Forms in Latin lookup 20 subtable" hyphen.aalt
Substitution2: "'aalt' Access All Alternates in Latin lookup 0 subtable" hyphen.aalt
EndChar

StartChar: endash
Encoding: 8211 8211 96
Width: 500
GlyphClass: 2
Flags: W
LayerCount: 2
Fore
SplineSet
0 231 m 1,0,-1
 0 319 l 1,1,-1
 500 319 l 1,2,-1
 500 231 l 1,3,-1
 0 231 l 1,0,-1
EndSplineSet
Validated: 1
Substitution2: "'case' Case-Sensitive Forms in Latin lookup 20 subtable" endash.aalt
Substitution2: "'aalt' Access All Alternates in Latin lookup 0 subtable" endash.aalt
EndChar

StartChar: emdash
Encoding: 8212 8212 97
Width: 1000
GlyphClass: 2
Flags: W
LayerCount: 2
Fore
SplineSet
0 231 m 1,0,-1
 0 319 l 1,1,-1
 1000 319 l 1,2,-1
 1000 231 l 1,3,-1
 0 231 l 1,0,-1
EndSplineSet
Validated: 1
Substitution2: "'case' Case-Sensitive Forms in Latin lookup 20 subtable" emdash.aalt
Substitution2: "'aalt' Access All Alternates in Latin lookup 0 subtable" emdash.aalt
EndChar

StartChar: parenleft
Encoding: 40 40 98
Width: 342
GlyphClass: 2
Flags: W
LayerCount: 2
Fore
SplineSet
326 -141 m 1,0,-1
 213 -141 l 1,1,2
 130 -40 130 -40 88 78 c 128,-1,3
 46 196 46 196 46 324 c 256,4,5
 46 452 46 452 88 570 c 128,-1,6
 130 688 130 688 213 789 c 1,7,-1
 326 789 l 1,8,9
 240 684 240 684 196 565.5 c 128,-1,10
 152 447 152 447 152 324 c 256,11,12
 152 201 152 201 196 82.5 c 128,-1,13
 240 -36 240 -36 326 -141 c 1,0,-1
EndSplineSet
Validated: 1
Substitution2: "'case' Case-Sensitive Forms in Latin lookup 20 subtable" parenleft.aalt
Substitution2: "'aalt' Access All Alternates in Latin lookup 0 subtable" parenleft.aalt
EndChar

StartChar: parenright
Encoding: 41 41 99
Width: 342
GlyphClass: 2
Flags: W
LayerCount: 2
Fore
SplineSet
16 789 m 1,0,-1
 129 789 l 1,1,2
 212 688 212 688 254 570 c 128,-1,3
 296 452 296 452 296 324 c 256,4,5
 296 196 296 196 254 78 c 128,-1,6
 212 -40 212 -40 129 -141 c 1,7,-1
 16 -141 l 1,8,9
 102 -36 102 -36 146 82.5 c 128,-1,10
 190 201 190 201 190 324 c 256,11,12
 190 447 190 447 146 565.5 c 128,-1,13
 102 684 102 684 16 789 c 1,0,-1
EndSplineSet
Validated: 1
Substitution2: "'case' Case-Sensitive Forms in Latin lookup 20 subtable" parenright.aalt
Substitution2: "'aalt' Access All Alternates in Latin lookup 0 subtable" parenright.aalt
EndChar

StartChar: slash
Encoding: 47 47 100
Width: 454
GlyphClass: 2
Flags: W
LayerCount: 2
Fore
SplineSet
10 -111 m 1,0,-1
 338 759 l 1,1,-1
 444 759 l 1,2,-1
 116 -111 l 1,3,-1
 10 -111 l 1,0,-1
EndSplineSet
Validated: 1
Substitution2: "'case' Case-Sensitive Forms in Latin lookup 20 subtable" slash.case
Substitution2: "Single Substitution lookup 18 subtable" fraction
Substitution2: "Single Substitution lookup 17 subtable" fraction
Substitution2: "Single Substitution lookup 16 subtable" fraction
AlternateSubs2: "'aalt' Access All Alternates in Latin lookup 1 subtable" fraction slash.case
EndChar

StartChar: backslash
Encoding: 92 92 101
Width: 454
GlyphClass: 2
Flags: W
LayerCount: 2
Fore
SplineSet
338 -111 m 1,0,-1
 10 759 l 1,1,-1
 116 759 l 1,2,-1
 444 -111 l 1,3,-1
 338 -111 l 1,0,-1
EndSplineSet
Validated: 1
Substitution2: "'case' Case-Sensitive Forms in Latin lookup 20 subtable" backslash.aalt
Substitution2: "'aalt' Access All Alternates in Latin lookup 0 subtable" backslash.aalt
EndChar

StartChar: bracketleft
Encoding: 91 91 102
Width: 358
GlyphClass: 2
Flags: W
LayerCount: 2
Fore
SplineSet
80 -141 m 1,0,-1
 80 789 l 1,1,-1
 318 789 l 1,2,-1
 318 700 l 1,3,-1
 182 700 l 1,4,-1
 182 -52 l 1,5,-1
 318 -52 l 1,6,-1
 318 -141 l 1,7,-1
 80 -141 l 1,0,-1
EndSplineSet
Validated: 1
Substitution2: "'case' Case-Sensitive Forms in Latin lookup 20 subtable" bracketleft.aalt
Substitution2: "'aalt' Access All Alternates in Latin lookup 0 subtable" bracketleft.aalt
EndChar

StartChar: bracketright
Encoding: 93 93 103
Width: 358
GlyphClass: 2
Flags: W
LayerCount: 2
Fore
SplineSet
40 -141 m 1,0,-1
 40 -52 l 1,1,-1
 176 -52 l 1,2,-1
 176 700 l 1,3,-1
 40 700 l 1,4,-1
 40 789 l 1,5,-1
 278 789 l 1,6,-1
 278 -141 l 1,7,-1
 40 -141 l 1,0,-1
EndSplineSet
Validated: 1
Substitution2: "'case' Case-Sensitive Forms in Latin lookup 20 subtable" bracketright.aalt
Substitution2: "'aalt' Access All Alternates in Latin lookup 0 subtable" bracketright.aalt
EndChar

StartChar: braceleft
Encoding: 123 123 104
Width: 367
GlyphClass: 2
Flags: W
LayerCount: 2
Fore
SplineSet
327 789 m 1,0,-1
 327 700 l 1,1,-1
 296 700 l 2,2,3
 252 700 252 700 229 676.5 c 128,-1,4
 206 653 206 653 206 606 c 0,5,6
 206 580 206 580 210 551.5 c 128,-1,7
 214 523 214 523 217.5 495 c 128,-1,8
 221 467 221 467 221 444 c 0,9,10
 221 414 221 414 211.5 389.5 c 128,-1,11
 202 365 202 365 187 348 c 128,-1,12
 172 331 172 331 153 324 c 1,13,14
 172 317 172 317 187 300 c 128,-1,15
 202 283 202 283 211.5 258.5 c 128,-1,16
 221 234 221 234 221 204 c 0,17,18
 221 181 221 181 217.5 153 c 128,-1,19
 214 125 214 125 210 96.5 c 128,-1,20
 206 68 206 68 206 42 c 0,21,22
 206 -5 206 -5 229 -28.5 c 128,-1,23
 252 -52 252 -52 296 -52 c 2,24,-1
 327 -52 l 1,25,-1
 327 -141 l 1,26,-1
 289 -141 l 2,27,28
 227 -141 227 -141 185 -120 c 128,-1,29
 143 -99 143 -99 122 -61 c 128,-1,30
 101 -23 101 -23 101 29 c 0,31,32
 101 61 101 61 104.5 94.5 c 128,-1,33
 108 128 108 128 112 157.5 c 128,-1,34
 116 187 116 187 116 208 c 0,35,36
 116 242 116 242 98 262 c 128,-1,37
 80 282 80 282 45 282 c 2,38,-1
 30 282 l 1,39,-1
 30 366 l 1,40,-1
 45 366 l 2,41,42
 80 366 80 366 98 386 c 128,-1,43
 116 406 116 406 116 440 c 0,44,45
 116 461 116 461 112 490.5 c 128,-1,46
 108 520 108 520 104.5 553.5 c 128,-1,47
 101 587 101 587 101 619 c 0,48,49
 101 671 101 671 122 709 c 128,-1,50
 143 747 143 747 185 768 c 128,-1,51
 227 789 227 789 289 789 c 2,52,-1
 327 789 l 1,0,-1
EndSplineSet
Validated: 1
Substitution2: "'case' Case-Sensitive Forms in Latin lookup 20 subtable" braceleft.aalt
Substitution2: "'aalt' Access All Alternates in Latin lookup 0 subtable" braceleft.aalt
EndChar

StartChar: braceright
Encoding: 125 125 105
Width: 367
GlyphClass: 2
Flags: W
LayerCount: 2
Fore
SplineSet
40 -141 m 1,0,-1
 40 -52 l 1,1,-1
 71 -52 l 2,2,3
 114 -52 114 -52 137.5 -28.5 c 128,-1,4
 161 -5 161 -5 161 42 c 0,5,6
 161 68 161 68 157.5 96.5 c 128,-1,7
 154 125 154 125 150 153 c 128,-1,8
 146 181 146 181 146 204 c 0,9,10
 146 234 146 234 155.5 258.5 c 128,-1,11
 165 283 165 283 180.5 300 c 128,-1,12
 196 317 196 317 214 324 c 1,13,14
 196 331 196 331 180.5 348 c 128,-1,15
 165 365 165 365 155.5 389.5 c 128,-1,16
 146 414 146 414 146 444 c 0,17,18
 146 467 146 467 150 495 c 128,-1,19
 154 523 154 523 157.5 551.5 c 128,-1,20
 161 580 161 580 161 606 c 0,21,22
 161 653 161 653 137.5 676.5 c 128,-1,23
 114 700 114 700 71 700 c 2,24,-1
 40 700 l 1,25,-1
 40 789 l 1,26,-1
 78 789 l 2,27,28
 140 789 140 789 182 768 c 128,-1,29
 224 747 224 747 245 709 c 128,-1,30
 266 671 266 671 266 619 c 0,31,32
 266 587 266 587 262 553.5 c 128,-1,33
 258 520 258 520 254.5 490.5 c 128,-1,34
 251 461 251 461 251 440 c 0,35,36
 251 406 251 406 269.5 386 c 128,-1,37
 288 366 288 366 322 366 c 2,38,-1
 337 366 l 1,39,-1
 337 282 l 1,40,-1
 322 282 l 2,41,42
 288 282 288 282 269.5 262 c 128,-1,43
 251 242 251 242 251 208 c 0,44,45
 251 187 251 187 254.5 157.5 c 128,-1,46
 258 128 258 128 262 94.5 c 128,-1,47
 266 61 266 61 266 29 c 0,48,49
 266 -23 266 -23 245 -61 c 128,-1,50
 224 -99 224 -99 182 -120 c 128,-1,51
 140 -141 140 -141 78 -141 c 2,52,-1
 40 -141 l 1,0,-1
EndSplineSet
Validated: 1
Substitution2: "'case' Case-Sensitive Forms in Latin lookup 20 subtable" braceright.aalt
Substitution2: "'aalt' Access All Alternates in Latin lookup 0 subtable" braceright.aalt
EndChar

StartChar: bullet
Encoding: 8226 8226 106
Width: 286
GlyphClass: 2
Flags: W
LayerCount: 2
Fore
SplineSet
143 176 m 256,0,1
 116 176 116 176 93 189.5 c 128,-1,2
 70 203 70 203 56.5 226 c 128,-1,3
 43 249 43 249 43 276 c 0,4,5
 43 304 43 304 56.5 326.5 c 128,-1,6
 70 349 70 349 93 362.5 c 128,-1,7
 116 376 116 376 143 376 c 256,8,9
 170 376 170 376 193 362.5 c 128,-1,10
 216 349 216 349 229.5 326.5 c 128,-1,11
 243 304 243 304 243 276 c 0,12,13
 243 249 243 249 229.5 226 c 128,-1,14
 216 203 216 203 193 189.5 c 128,-1,15
 170 176 170 176 143 176 c 256,0,1
EndSplineSet
Validated: 1
Substitution2: "'case' Case-Sensitive Forms in Latin lookup 20 subtable" bullet.aalt
Substitution2: "'aalt' Access All Alternates in Latin lookup 0 subtable" bullet.aalt
EndChar

StartChar: guilsinglleft
Encoding: 8249 8249 107
Width: 296
GlyphClass: 2
Flags: W
LayerCount: 2
Fore
SplineSet
156 95 m 1,0,-1
 20 285 l 1,1,-1
 156 475 l 1,2,-1
 261 475 l 1,3,-1
 129 285 l 1,4,-1
 261 95 l 1,5,-1
 156 95 l 1,0,-1
EndSplineSet
Validated: 1
Substitution2: "'case' Case-Sensitive Forms in Latin lookup 20 subtable" guilsinglleft.aalt
Substitution2: "'aalt' Access All Alternates in Latin lookup 0 subtable" guilsinglleft.aalt
EndChar

StartChar: guilsinglright
Encoding: 8250 8250 108
Width: 296
GlyphClass: 2
Flags: W
LayerCount: 2
Fore
SplineSet
35 95 m 1,0,-1
 167 285 l 1,1,-1
 35 475 l 1,2,-1
 140 475 l 1,3,-1
 276 285 l 1,4,-1
 140 95 l 1,5,-1
 35 95 l 1,0,-1
EndSplineSet
Validated: 1
Substitution2: "'case' Case-Sensitive Forms in Latin lookup 20 subtable" guilsinglright.aalt
Substitution2: "'aalt' Access All Alternates in Latin lookup 0 subtable" guilsinglright.aalt
EndChar

StartChar: at
Encoding: 64 64 111
Width: 1011
GlyphClass: 2
Flags: W
LayerCount: 2
Fore
SplineSet
483 28 m 0,0,1
 439 28 439 28 401 45.5 c 128,-1,2
 363 63 363 63 334.5 94 c 128,-1,3
 306 125 306 125 290.5 167.5 c 128,-1,4
 275 210 275 210 275 259 c 256,5,6
 275 308 275 308 290.5 350.5 c 128,-1,7
 306 393 306 393 334.5 424.5 c 128,-1,8
 363 456 363 456 400.5 474 c 128,-1,9
 438 492 438 492 481 492 c 0,10,11
 527 492 527 492 564 471.5 c 128,-1,12
 601 451 601 451 624 414 c 1,13,-1
 627 480 l 1,14,-1
 726 480 l 1,15,-1
 726 186 l 2,16,17
 726 155 726 155 740.5 136.5 c 128,-1,18
 755 118 755 118 779 118 c 0,19,20
 804 118 804 118 823 140 c 128,-1,21
 842 162 842 162 853 200.5 c 128,-1,22
 864 239 864 239 864 289 c 0,23,24
 864 362 864 362 839 422.5 c 128,-1,25
 814 483 814 483 768 527.5 c 128,-1,26
 722 572 722 572 658.5 596 c 128,-1,27
 595 620 595 620 519 620 c 0,28,29
 455 620 455 620 399 602 c 128,-1,30
 343 584 343 584 297.5 551.5 c 128,-1,31
 252 519 252 519 219 473.5 c 128,-1,32
 186 428 186 428 168 372.5 c 128,-1,33
 150 317 150 317 150 254 c 0,34,35
 150 193 150 193 167.5 139 c 128,-1,36
 185 85 185 85 217.5 40.5 c 128,-1,37
 250 -4 250 -4 294 -36.5 c 128,-1,38
 338 -69 338 -69 392 -86.5 c 128,-1,39
 446 -104 446 -104 506 -104 c 0,40,41
 564 -104 564 -104 620.5 -89.5 c 128,-1,42
 677 -75 677 -75 724 -49 c 1,43,-1
 764 -131 l 1,44,45
 652 -196 652 -196 505 -196 c 0,46,47
 427 -196 427 -196 357.5 -174 c 128,-1,48
 288 -152 288 -152 231 -111 c 128,-1,49
 174 -70 174 -70 132.5 -14.5 c 128,-1,50
 91 41 91 41 68.5 109.5 c 128,-1,51
 46 178 46 178 46 254 c 0,52,53
 46 333 46 333 69 402 c 128,-1,54
 92 471 92 471 134.5 528 c 128,-1,55
 177 585 177 585 235.5 626 c 128,-1,56
 294 667 294 667 365.5 689.5 c 128,-1,57
 437 712 437 712 518 712 c 0,58,59
 596 712 596 712 664 692 c 128,-1,60
 732 672 732 672 787.5 634.5 c 128,-1,61
 843 597 843 597 882.5 544.5 c 128,-1,62
 922 492 922 492 943.5 428 c 128,-1,63
 965 364 965 364 965 290 c 0,64,65
 965 211 965 211 941 152.5 c 128,-1,66
 917 94 917 94 873.5 61.5 c 128,-1,67
 830 29 830 29 772 29 c 0,68,69
 721 29 721 29 685.5 53 c 128,-1,70
 650 77 650 77 635 120 c 1,71,72
 613 76 613 76 573.5 52 c 128,-1,73
 534 28 534 28 483 28 c 0,0,1
502 127 m 256,74,75
 536 127 536 127 562.5 144.5 c 128,-1,76
 589 162 589 162 604.5 192 c 128,-1,77
 620 222 620 222 620 261 c 256,78,79
 620 300 620 300 604.5 330 c 128,-1,80
 589 360 589 360 562.5 377.5 c 128,-1,81
 536 395 536 395 502 395 c 256,82,83
 468 395 468 395 441 377.5 c 128,-1,84
 414 360 414 360 399 329.5 c 128,-1,85
 384 299 384 299 384 261 c 0,86,87
 384 222 384 222 399 192 c 128,-1,88
 414 162 414 162 441 144.5 c 128,-1,89
 468 127 468 127 502 127 c 256,74,75
EndSplineSet
Validated: 1
Substitution2: "'case' Case-Sensitive Forms in Latin lookup 20 subtable" at.aalt
Substitution2: "'aalt' Access All Alternates in Latin lookup 0 subtable" at.aalt
EndChar

StartChar: A
Encoding: 65 65 133
Width: 735
GlyphClass: 2
Flags: W
AnchorPoint: "Anchor-7" 367 760 basechar 0
AnchorPoint: "Anchor-4" 716 -50 basechar 0
LayerCount: 2
Fore
SplineSet
19 0 m 1,0,-1
 302 710 l 1,1,-1
 432 710 l 1,2,-1
 716 0 l 1,3,-1
 590 0 l 1,4,-1
 523 176 l 1,5,-1
 207 176 l 1,6,-1
 140 0 l 1,7,-1
 19 0 l 1,0,-1
247 280 m 1,8,-1
 483 280 l 1,9,-1
 365 587 l 1,10,-1
 247 280 l 1,8,-1
EndSplineSet
Validated: 1
Substitution2: "'ordn' Ordinals in Latin lookup 25 subtable" ordfeminine
Substitution2: "'aalt' Access All Alternates in Latin lookup 0 subtable" ordfeminine
Position2: "'case' Case-Sensitive Forms in Latin lookup 0 subtable" dx=10 dy=0 dh=20 dv=0
EndChar

StartChar: B
Encoding: 66 66 134
Width: 613
GlyphClass: 2
Flags: W
LayerCount: 2
Fore
SplineSet
70 0 m 1,0,-1
 70 710 l 1,1,-1
 316 710 l 2,2,3
 386 710 386 710 436.5 687.5 c 128,-1,4
 487 665 487 665 515 624 c 128,-1,5
 543 583 543 583 543 527 c 0,6,7
 543 476 543 476 519.5 437 c 128,-1,8
 496 398 496 398 452 376 c 1,9,10
 509 356 509 356 541 309.5 c 128,-1,11
 573 263 573 263 573 201 c 0,12,13
 573 140 573 140 542 95 c 128,-1,14
 511 50 511 50 454.5 25 c 128,-1,15
 398 0 398 0 321 0 c 2,16,-1
 70 0 l 1,0,-1
188 606 m 1,17,-1
 188 418 l 1,18,-1
 305 418 l 2,19,20
 361 418 361 418 391 442 c 128,-1,21
 421 466 421 466 421 512 c 0,22,23
 421 556 421 556 390.5 581 c 128,-1,24
 360 606 360 606 305 606 c 2,25,-1
 188 606 l 1,17,-1
188 104 m 1,26,-1
 316 104 l 2,27,28
 380 104 380 104 415 132.5 c 128,-1,29
 450 161 450 161 450 211 c 0,30,31
 450 263 450 263 415 291 c 128,-1,32
 380 319 380 319 316 319 c 2,33,-1
 188 319 l 1,34,-1
 188 104 l 1,26,-1
EndSplineSet
Validated: 1
Position2: "'case' Case-Sensitive Forms in Latin lookup 0 subtable" dx=10 dy=0 dh=20 dv=0
EndChar

StartChar: C
Encoding: 67 67 135
Width: 733
GlyphClass: 2
Flags: W
AnchorPoint: "Anchor-7" 392 760 basechar 0
AnchorPoint: "Anchor-1" 394 -50 basechar 0
LayerCount: 2
Fore
SplineSet
393 -20 m 0,0,1
 318 -20 318 -20 254.5 7.5 c 128,-1,2
 191 35 191 35 144.5 85 c 128,-1,3
 98 135 98 135 72 202.5 c 128,-1,4
 46 270 46 270 46 350 c 0,5,6
 46 414 46 414 63 471.5 c 128,-1,7
 80 529 80 529 111.5 576.5 c 128,-1,8
 143 624 143 624 186 658.5 c 128,-1,9
 229 693 229 693 281.5 711.5 c 128,-1,10
 334 730 334 730 393 730 c 0,11,12
 462 730 462 730 521.5 705.5 c 128,-1,13
 581 681 581 681 624.5 636.5 c 128,-1,14
 668 592 668 592 690 531 c 1,15,-1
 573 498 l 1,16,17
 547 555 547 555 499.5 586.5 c 128,-1,18
 452 618 452 618 392 618 c 0,19,20
 345 618 345 618 305 598 c 128,-1,21
 265 578 265 578 235 542 c 128,-1,22
 205 506 205 506 188.5 457 c 128,-1,23
 172 408 172 408 172 351 c 256,24,25
 172 294 172 294 188.5 246.5 c 128,-1,26
 205 199 205 199 234.5 164.5 c 128,-1,27
 264 130 264 130 304.5 111 c 128,-1,28
 345 92 345 92 394 92 c 0,29,30
 456 92 456 92 503.5 123 c 128,-1,31
 551 154 551 154 580 212 c 1,32,-1
 697 179 l 1,33,34
 674 118 674 118 630 73 c 128,-1,35
 586 28 586 28 525 4 c 128,-1,36
 464 -20 464 -20 393 -20 c 0,0,1
EndSplineSet
Validated: 1
Position2: "'case' Case-Sensitive Forms in Latin lookup 0 subtable" dx=10 dy=0 dh=20 dv=0
EndChar

StartChar: D
Encoding: 68 68 136
Width: 751
GlyphClass: 2
Flags: W
AnchorPoint: "Anchor-7" 349 760 basechar 0
LayerCount: 2
Fore
SplineSet
70 0 m 1,0,-1
 70 710 l 1,1,-1
 329 710 l 2,2,3
 413 710 413 710 482.5 684.5 c 128,-1,4
 552 659 552 659 601.5 612.5 c 128,-1,5
 651 566 651 566 678 501 c 128,-1,6
 705 436 705 436 705 356 c 256,7,8
 705 276 705 276 678 210.5 c 128,-1,9
 651 145 651 145 601 98 c 128,-1,10
 551 51 551 51 482 25.5 c 128,-1,11
 413 0 413 0 329 0 c 2,12,-1
 70 0 l 1,0,-1
192 109 m 1,13,-1
 323 109 l 2,14,15
 402 109 402 109 459 139 c 128,-1,16
 516 169 516 169 547.5 224.5 c 128,-1,17
 579 280 579 280 579 355 c 256,18,19
 579 430 579 430 547.5 485.5 c 128,-1,20
 516 541 516 541 458.5 571 c 128,-1,21
 401 601 401 601 323 601 c 2,22,-1
 192 601 l 1,23,-1
 192 109 l 1,13,-1
EndSplineSet
Validated: 1
Position2: "'case' Case-Sensitive Forms in Latin lookup 0 subtable" dx=10 dy=0 dh=20 dv=0
EndChar

StartChar: E
Encoding: 69 69 137
Width: 568
GlyphClass: 2
Flags: W
AnchorPoint: "Anchor-7" 285 760 basechar 0
AnchorPoint: "Anchor-4" 511 -50 basechar 0
LayerCount: 2
Fore
SplineSet
70 0 m 1,0,-1
 70 710 l 1,1,-1
 500 710 l 1,2,-1
 500 605 l 1,3,-1
 190 605 l 1,4,-1
 190 419 l 1,5,-1
 470 419 l 1,6,-1
 470 314 l 1,7,-1
 190 314 l 1,8,-1
 190 105 l 1,9,-1
 510 105 l 1,10,-1
 510 0 l 1,11,-1
 70 0 l 1,0,-1
EndSplineSet
Validated: 1
Position2: "'case' Case-Sensitive Forms in Latin lookup 0 subtable" dx=10 dy=0 dh=20 dv=0
EndChar

StartChar: F
Encoding: 70 70 138
Width: 537
GlyphClass: 2
Flags: W
LayerCount: 2
Fore
SplineSet
70 0 m 1,0,-1
 70 710 l 1,1,-1
 491 710 l 1,2,-1
 491 603 l 1,3,-1
 190 603 l 1,4,-1
 190 399 l 1,5,-1
 460 399 l 1,6,-1
 460 292 l 1,7,-1
 190 292 l 1,8,-1
 190 0 l 1,9,-1
 70 0 l 1,0,-1
EndSplineSet
Validated: 1
Position2: "'case' Case-Sensitive Forms in Latin lookup 0 subtable" dx=10 dy=0 dh=20 dv=0
EndChar

StartChar: G
Encoding: 71 71 139
Width: 786
GlyphClass: 2
Flags: W
AnchorPoint: "Anchor-7" 412 760 basechar 0
AnchorPoint: "Anchor-1" 409 -50 basechar 0
LayerCount: 2
Fore
SplineSet
404 -20 m 0,0,1
 342 -20 342 -20 287.5 -2 c 128,-1,2
 233 16 233 16 189 49.5 c 128,-1,3
 145 83 145 83 113 129 c 128,-1,4
 81 175 81 175 63.5 231.5 c 128,-1,5
 46 288 46 288 46 353 c 256,6,7
 46 418 46 418 63.5 475 c 128,-1,8
 81 532 81 532 113.5 579 c 128,-1,9
 146 626 146 626 190.5 659.5 c 128,-1,10
 235 693 235 693 289.5 711.5 c 128,-1,11
 344 730 344 730 406 730 c 0,12,13
 473 730 473 730 531.5 708 c 128,-1,14
 590 686 590 686 635 645 c 128,-1,15
 680 604 680 604 706 548 c 1,16,-1
 590 509 l 1,17,18
 561 561 561 561 513.5 589.5 c 128,-1,19
 466 618 466 618 406 618 c 0,20,21
 356 618 356 618 313.5 598 c 128,-1,22
 271 578 271 578 239 542.5 c 128,-1,23
 207 507 207 507 189.5 459 c 128,-1,24
 172 411 172 411 172 355 c 0,25,26
 172 298 172 298 189.5 249.5 c 128,-1,27
 207 201 207 201 239 166 c 128,-1,28
 271 131 271 131 314.5 111.5 c 128,-1,29
 358 92 358 92 409 92 c 0,30,31
 468 92 468 92 513.5 115.5 c 128,-1,32
 559 139 559 139 586 181 c 128,-1,33
 613 223 613 223 617 279 c 1,34,-1
 423 279 l 1,35,-1
 423 381 l 1,36,-1
 742 381 l 1,37,-1
 742 314 l 2,38,39
 742 240 742 240 717.5 179 c 128,-1,40
 693 118 693 118 647.5 73.5 c 128,-1,41
 602 29 602 29 540.5 4.5 c 128,-1,42
 479 -20 479 -20 404 -20 c 0,0,1
EndSplineSet
Validated: 1
Position2: "'case' Case-Sensitive Forms in Latin lookup 0 subtable" dx=10 dy=0 dh=20 dv=0
EndChar

StartChar: H
Encoding: 72 72 140
Width: 731
GlyphClass: 2
Flags: W
AnchorPoint: "Anchor-1" 366 -50 basechar 0
LayerCount: 2
Fore
SplineSet
70 0 m 1,0,-1
 70 710 l 1,1,-1
 192 710 l 1,2,-1
 192 422 l 1,3,-1
 539 422 l 1,4,-1
 539 710 l 1,5,-1
 661 710 l 1,6,-1
 661 0 l 1,7,-1
 539 0 l 1,8,-1
 539 313 l 1,9,-1
 192 313 l 1,10,-1
 192 0 l 1,11,-1
 70 0 l 1,0,-1
EndSplineSet
Validated: 1
Position2: "'case' Case-Sensitive Forms in Latin lookup 0 subtable" dx=10 dy=0 dh=20 dv=0
EndChar

StartChar: I
Encoding: 73 73 141
Width: 262
GlyphClass: 2
Flags: W
AnchorPoint: "Anchor-7" 131 760 basechar 0
AnchorPoint: "Anchor-4" 192 -50 basechar 0
LayerCount: 2
Fore
SplineSet
70 0 m 1,0,-1
 70 710 l 1,1,-1
 192 710 l 1,2,-1
 192 0 l 1,3,-1
 70 0 l 1,0,-1
EndSplineSet
Validated: 1
Position2: "'case' Case-Sensitive Forms in Latin lookup 0 subtable" dx=10 dy=0 dh=20 dv=0
EndChar

StartChar: J
Encoding: 74 74 142
Width: 542
GlyphClass: 2
Flags: W
LayerCount: 2
Fore
SplineSet
249 -15 m 0,0,1
 192 -15 192 -15 145.5 6.5 c 128,-1,2
 99 28 99 28 66 68 c 128,-1,3
 33 108 33 108 16 166 c 1,4,-1
 134 191 l 1,5,6
 169 95 169 95 250 95 c 0,7,8
 283 95 283 95 307.5 111.5 c 128,-1,9
 332 128 332 128 345 158 c 128,-1,10
 358 188 358 188 358 228 c 2,11,-1
 358 710 l 1,12,-1
 480 710 l 1,13,-1
 480 231 l 2,14,15
 480 176 480 176 463.5 130.5 c 128,-1,16
 447 85 447 85 416.5 52.5 c 128,-1,17
 386 20 386 20 343.5 2.5 c 128,-1,18
 301 -15 301 -15 249 -15 c 0,0,1
EndSplineSet
Validated: 1
Position2: "'case' Case-Sensitive Forms in Latin lookup 0 subtable" dx=10 dy=0 dh=20 dv=0
EndChar

StartChar: K
Encoding: 75 75 143
Width: 676
GlyphClass: 2
Flags: W
AnchorPoint: "Anchor-1" 339 -50 basechar 0
LayerCount: 2
Fore
SplineSet
70 0 m 1,0,-1
 70 710 l 1,1,-1
 192 710 l 1,2,-1
 192 393 l 1,3,-1
 483 710 l 1,4,-1
 629 710 l 1,5,-1
 319 377 l 1,6,-1
 665 0 l 1,7,-1
 503 0 l 1,8,-1
 192 347 l 1,9,-1
 192 0 l 1,10,-1
 70 0 l 1,0,-1
EndSplineSet
Validated: 1
Position2: "'case' Case-Sensitive Forms in Latin lookup 0 subtable" dx=10 dy=0 dh=20 dv=0
EndChar

StartChar: L
Encoding: 76 76 144
Width: 536
GlyphClass: 2
Flags: W
AnchorPoint: "Anchor-8" 192 790 basechar 0
AnchorPoint: "Anchor-7" 131 760 basechar 0
AnchorPoint: "Anchor-1" 281 -50 basechar 0
LayerCount: 2
Fore
SplineSet
70 0 m 1,0,-1
 70 710 l 1,1,-1
 192 710 l 1,2,-1
 192 109 l 1,3,-1
 493 109 l 1,4,-1
 493 0 l 1,5,-1
 70 0 l 1,0,-1
EndSplineSet
Validated: 1
Position2: "'case' Case-Sensitive Forms in Latin lookup 0 subtable" dx=10 dy=0 dh=20 dv=0
EndChar

StartChar: M
Encoding: 77 77 145
Width: 844
GlyphClass: 2
Flags: W
LayerCount: 2
Fore
SplineSet
70 0 m 1,0,-1
 70 710 l 1,1,-1
 188 710 l 1,2,-1
 424 275 l 1,3,-1
 661 710 l 1,4,-1
 774 710 l 1,5,-1
 774 0 l 1,6,-1
 653 0 l 1,7,-1
 653 490 l 1,8,-1
 467 148 l 1,9,-1
 377 148 l 1,10,-1
 191 490 l 1,11,-1
 191 0 l 1,12,-1
 70 0 l 1,0,-1
EndSplineSet
Validated: 1
Position2: "'case' Case-Sensitive Forms in Latin lookup 0 subtable" dx=10 dy=0 dh=20 dv=0
EndChar

StartChar: N
Encoding: 78 78 146
Width: 721
GlyphClass: 2
Flags: W
AnchorPoint: "Anchor-7" 361 760 basechar 0
AnchorPoint: "Anchor-1" 361 -50 basechar 0
LayerCount: 2
Fore
SplineSet
70 0 m 1,0,-1
 70 710 l 1,1,-1
 178 710 l 1,2,-1
 532 202 l 1,3,-1
 532 710 l 1,4,-1
 651 710 l 1,5,-1
 651 0 l 1,6,-1
 543 0 l 1,7,-1
 189 510 l 1,8,-1
 189 0 l 1,9,-1
 70 0 l 1,0,-1
EndSplineSet
Validated: 1
Position2: "'case' Case-Sensitive Forms in Latin lookup 0 subtable" dx=10 dy=0 dh=20 dv=0
EndChar

StartChar: O
Encoding: 79 79 147
Width: 810
GlyphClass: 2
Flags: W
AnchorPoint: "Anchor-7" 405 760 basechar 0
LayerCount: 2
Fore
SplineSet
405 -20 m 256,0,1
 343 -20 343 -20 288.5 -2 c 128,-1,2
 234 16 234 16 189.5 49.5 c 128,-1,3
 145 83 145 83 113 129 c 128,-1,4
 81 175 81 175 63.5 232 c 128,-1,5
 46 289 46 289 46 354 c 256,6,7
 46 419 46 419 63.5 476 c 128,-1,8
 81 533 81 533 113 579.5 c 128,-1,9
 145 626 145 626 190 660 c 128,-1,10
 235 694 235 694 289.5 712 c 128,-1,11
 344 730 344 730 406 730 c 256,12,13
 468 730 468 730 522.5 712 c 128,-1,14
 577 694 577 694 621.5 660.5 c 128,-1,15
 666 627 666 627 698 581 c 128,-1,16
 730 535 730 535 747 478 c 128,-1,17
 764 421 764 421 764 356 c 256,18,19
 764 291 764 291 746.5 234 c 128,-1,20
 729 177 729 177 697 130.5 c 128,-1,21
 665 84 665 84 620.5 50 c 128,-1,22
 576 16 576 16 521.5 -2 c 128,-1,23
 467 -20 467 -20 405 -20 c 256,0,1
405 92 m 256,24,25
 456 92 456 92 498.5 111.5 c 128,-1,26
 541 131 541 131 572 166 c 128,-1,27
 603 201 603 201 620.5 249.5 c 128,-1,28
 638 298 638 298 638 355 c 256,29,30
 638 412 638 412 620.5 460.5 c 128,-1,31
 603 509 603 509 572 544 c 128,-1,32
 541 579 541 579 498.5 598.5 c 128,-1,33
 456 618 456 618 405 618 c 256,34,35
 354 618 354 618 311.5 598.5 c 128,-1,36
 269 579 269 579 238 544 c 128,-1,37
 207 509 207 509 189.5 460.5 c 128,-1,38
 172 412 172 412 172 355 c 256,39,40
 172 298 172 298 189.5 249.5 c 128,-1,41
 207 201 207 201 238 166 c 128,-1,42
 269 131 269 131 311.5 111.5 c 128,-1,43
 354 92 354 92 405 92 c 256,24,25
EndSplineSet
Validated: 1
Substitution2: "'ordn' Ordinals in Latin lookup 25 subtable" ordmasculine
Substitution2: "'aalt' Access All Alternates in Latin lookup 0 subtable" ordmasculine
Position2: "'case' Case-Sensitive Forms in Latin lookup 0 subtable" dx=10 dy=0 dh=20 dv=0
EndChar

StartChar: P
Encoding: 80 80 148
Width: 587
GlyphClass: 2
Flags: W
LayerCount: 2
Fore
SplineSet
70 0 m 1,0,-1
 70 710 l 1,1,-1
 285 710 l 2,2,3
 370 710 370 710 430.5 682 c 128,-1,4
 491 654 491 654 523.5 602 c 128,-1,5
 556 550 556 550 556 476 c 0,6,7
 556 406 556 406 522 353.5 c 128,-1,8
 488 301 488 301 426 272.5 c 128,-1,9
 364 244 364 244 280 244 c 0,10,11
 260 244 260 244 237.5 246 c 128,-1,12
 215 248 215 248 190 251 c 1,13,-1
 190 0 l 1,14,-1
 70 0 l 1,0,-1
190 604 m 1,15,-1
 190 357 l 1,16,17
 212 354 212 354 234 352 c 128,-1,18
 256 350 256 350 275 350 c 0,19,20
 351 350 351 350 391.5 383 c 128,-1,21
 432 416 432 416 432 477 c 0,22,23
 432 537 432 537 393 570.5 c 128,-1,24
 354 604 354 604 283 604 c 2,25,-1
 190 604 l 1,15,-1
EndSplineSet
Validated: 1
Position2: "'case' Case-Sensitive Forms in Latin lookup 0 subtable" dx=10 dy=0 dh=20 dv=0
EndChar

StartChar: Q
Encoding: 81 81 149
Width: 810
GlyphClass: 2
Flags: W
LayerCount: 2
Fore
SplineSet
405 -20 m 0,0,1
 343 -20 343 -20 288.5 -2 c 128,-1,2
 234 16 234 16 189.5 49.5 c 128,-1,3
 145 83 145 83 113 129 c 128,-1,4
 81 175 81 175 63.5 232 c 128,-1,5
 46 289 46 289 46 354 c 256,6,7
 46 419 46 419 63.5 476 c 128,-1,8
 81 533 81 533 113 579.5 c 128,-1,9
 145 626 145 626 190 660 c 128,-1,10
 235 694 235 694 289.5 712 c 128,-1,11
 344 730 344 730 406 730 c 256,12,13
 468 730 468 730 522.5 712 c 128,-1,14
 577 694 577 694 621.5 660.5 c 128,-1,15
 666 627 666 627 698 581 c 128,-1,16
 730 535 730 535 747 478 c 128,-1,17
 764 421 764 421 764 356 c 0,18,19
 764 275 764 275 736 205.5 c 128,-1,20
 708 136 708 136 659 85 c 1,21,-1
 744 -20 l 1,22,-1
 662 -86 l 1,23,-1
 575 22 l 1,24,25
 537 2 537 2 494.5 -9 c 128,-1,26
 452 -20 452 -20 405 -20 c 0,0,1
405 92 m 0,27,28
 458 92 458 92 502 112 c 1,29,-1
 381 263 l 1,30,-1
 462 328 l 1,31,-1
 583 177 l 1,32,33
 609 211 609 211 623.5 256.5 c 128,-1,34
 638 302 638 302 638 355 c 0,35,36
 638 412 638 412 620.5 460.5 c 128,-1,37
 603 509 603 509 572 544 c 128,-1,38
 541 579 541 579 498.5 598.5 c 128,-1,39
 456 618 456 618 405 618 c 256,40,41
 354 618 354 618 311.5 598.5 c 128,-1,42
 269 579 269 579 238 544 c 128,-1,43
 207 509 207 509 189.5 460.5 c 128,-1,44
 172 412 172 412 172 355 c 256,45,46
 172 298 172 298 189.5 249.5 c 128,-1,47
 207 201 207 201 238 166 c 128,-1,48
 269 131 269 131 311.5 111.5 c 128,-1,49
 354 92 354 92 405 92 c 0,27,28
EndSplineSet
Validated: 1
Position2: "'case' Case-Sensitive Forms in Latin lookup 0 subtable" dx=10 dy=0 dh=20 dv=0
EndChar

StartChar: R
Encoding: 82 82 150
Width: 618
GlyphClass: 2
Flags: W
AnchorPoint: "Anchor-7" 279 760 basechar 0
LayerCount: 2
Fore
SplineSet
70 0 m 1,0,-1
 70 710 l 1,1,-1
 284 710 l 2,2,3
 369 710 369 710 430.5 683 c 128,-1,4
 492 656 492 656 525 606 c 128,-1,5
 558 556 558 556 558 487 c 0,6,7
 558 444 558 444 542.5 406.5 c 128,-1,8
 527 369 527 369 498.5 339 c 128,-1,9
 470 309 470 309 430 290 c 1,10,-1
 595 0 l 1,11,-1
 460 0 l 1,12,-1
 323 258 l 1,13,14
 312 257 312 257 298.5 256.5 c 128,-1,15
 285 256 285 256 271 256 c 0,16,17
 236 256 236 256 190 263 c 1,18,-1
 190 0 l 1,19,-1
 70 0 l 1,0,-1
190 604 m 1,20,-1
 190 369 l 1,21,22
 211 365 211 365 233.5 363.5 c 128,-1,23
 256 362 256 362 278 362 c 0,24,25
 352 362 352 362 393 394 c 128,-1,26
 434 426 434 426 434 483 c 256,27,28
 434 540 434 540 394 572 c 128,-1,29
 354 604 354 604 282 604 c 2,30,-1
 190 604 l 1,20,-1
EndSplineSet
Validated: 1
Position2: "'case' Case-Sensitive Forms in Latin lookup 0 subtable" dx=10 dy=0 dh=20 dv=0
EndChar

StartChar: S
Encoding: 83 83 151
Width: 564
GlyphClass: 2
Flags: W
AnchorPoint: "Anchor-7" 282 760 basechar 0
AnchorPoint: "Anchor-1" 279 -50 basechar 0
LayerCount: 2
Fore
SplineSet
279 -15 m 0,0,1
 219 -15 219 -15 167.5 6.5 c 128,-1,2
 116 28 116 28 80 67 c 128,-1,3
 44 106 44 106 29 160 c 1,4,-1
 144 188 l 1,5,6
 160 142 160 142 195 117 c 128,-1,7
 230 92 230 92 280 92 c 0,8,9
 316 92 316 92 344 106 c 128,-1,10
 372 120 372 120 388.5 144 c 128,-1,11
 405 168 405 168 405 199 c 0,12,13
 405 237 405 237 377.5 262.5 c 128,-1,14
 350 288 350 288 291 301 c 2,15,-1
 254 309 l 2,16,17
 148 332 148 332 97.5 385 c 128,-1,18
 47 438 47 438 47 514 c 0,19,20
 47 560 47 560 65 598.5 c 128,-1,21
 83 637 83 637 115 665.5 c 128,-1,22
 147 694 147 694 190 709.5 c 128,-1,23
 233 725 233 725 283 725 c 0,24,25
 340 725 340 725 388 704 c 128,-1,26
 436 683 436 683 470 644.5 c 128,-1,27
 504 606 504 606 518 553 c 1,28,-1
 404 525 l 1,29,30
 388 570 388 570 356 594 c 128,-1,31
 324 618 324 618 280 618 c 0,32,33
 248 618 248 618 223.5 605.5 c 128,-1,34
 199 593 199 593 184.5 571.5 c 128,-1,35
 170 550 170 550 170 523 c 0,36,37
 170 484 170 484 199 461 c 128,-1,38
 228 438 228 438 288 424 c 2,39,-1
 325 416 l 2,40,41
 529 370 529 370 529 209 c 0,42,43
 529 160 529 160 510.5 118.5 c 128,-1,44
 492 77 492 77 458 47.5 c 128,-1,45
 424 18 424 18 378.5 1.5 c 128,-1,46
 333 -15 333 -15 279 -15 c 0,0,1
EndSplineSet
Validated: 1
Position2: "'case' Case-Sensitive Forms in Latin lookup 0 subtable" dx=10 dy=0 dh=20 dv=0
EndChar

StartChar: T
Encoding: 84 84 152
Width: 624
GlyphClass: 2
Flags: W
AnchorPoint: "Anchor-7" 312 760 basechar 0
AnchorPoint: "Anchor-1" 312 -50 basechar 0
LayerCount: 2
Fore
SplineSet
251 0 m 1,0,-1
 251 601 l 1,1,-1
 44 601 l 1,2,-1
 44 710 l 1,3,-1
 580 710 l 1,4,-1
 580 601 l 1,5,-1
 373 601 l 1,6,-1
 373 0 l 1,7,-1
 251 0 l 1,0,-1
EndSplineSet
Validated: 1
Position2: "'case' Case-Sensitive Forms in Latin lookup 0 subtable" dx=10 dy=0 dh=20 dv=0
EndChar

StartChar: U
Encoding: 85 85 153
Width: 716
GlyphClass: 2
Flags: W
AnchorPoint: "Anchor-7" 358 760 basechar 0
AnchorPoint: "Anchor-5" 553 -50 basechar 0
LayerCount: 2
Fore
SplineSet
356 -20 m 256,0,1
 288 -20 288 -20 234 1 c 128,-1,2
 180 22 180 22 141.5 62 c 128,-1,3
 103 102 103 102 82.5 157.5 c 128,-1,4
 62 213 62 213 62 282 c 2,5,-1
 62 710 l 1,6,-1
 184 710 l 1,7,-1
 184 287 l 2,8,9
 184 227 184 227 205.5 183.5 c 128,-1,10
 227 140 227 140 266 116 c 128,-1,11
 305 92 305 92 358 92 c 256,12,13
 411 92 411 92 450 116 c 128,-1,14
 489 140 489 140 510.5 183.5 c 128,-1,15
 532 227 532 227 532 287 c 2,16,-1
 532 710 l 1,17,-1
 654 710 l 1,18,-1
 654 282 l 2,19,20
 654 213 654 213 633 157.5 c 128,-1,21
 612 102 612 102 572.5 62.5 c 128,-1,22
 533 23 533 23 478.5 1.5 c 128,-1,23
 424 -20 424 -20 356 -20 c 256,0,1
EndSplineSet
Validated: 1
Position2: "'case' Case-Sensitive Forms in Latin lookup 0 subtable" dx=10 dy=0 dh=20 dv=0
EndChar

StartChar: V
Encoding: 86 86 154
Width: 712
GlyphClass: 2
Flags: W
LayerCount: 2
Fore
SplineSet
291 0 m 1,0,-1
 19 710 l 1,1,-1
 152 710 l 1,2,-1
 359 138 l 1,3,-1
 565 710 l 1,4,-1
 693 710 l 1,5,-1
 421 0 l 1,6,-1
 291 0 l 1,0,-1
EndSplineSet
Validated: 1
Position2: "'case' Case-Sensitive Forms in Latin lookup 0 subtable" dx=10 dy=0 dh=20 dv=0
EndChar

StartChar: W
Encoding: 87 87 155
Width: 1029
GlyphClass: 2
Flags: W
AnchorPoint: "Anchor-7" 514 760 basechar 0
LayerCount: 2
Fore
SplineSet
998 710 m 1,0,-1
 788 0 l 1,1,-1
 664 0 l 1,2,-1
 515 540 l 1,3,-1
 366 0 l 1,4,-1
 241 0 l 1,5,-1
 31 710 l 1,6,-1
 161 710 l 1,7,-1
 307 162 l 1,8,-1
 457 710 l 1,9,-1
 575 710 l 1,10,-1
 726 162 l 1,11,-1
 871 710 l 1,12,-1
 998 710 l 1,0,-1
EndSplineSet
Validated: 1
Position2: "'case' Case-Sensitive Forms in Latin lookup 0 subtable" dx=10 dy=0 dh=20 dv=0
EndChar

StartChar: X
Encoding: 88 88 156
Width: 669
GlyphClass: 2
Flags: W
LayerCount: 2
Fore
SplineSet
11 0 m 1,0,-1
 266 375 l 1,1,-1
 39 710 l 1,2,-1
 178 710 l 1,3,-1
 336 461 l 1,4,-1
 493 710 l 1,5,-1
 628 710 l 1,6,-1
 403 375 l 1,7,-1
 658 0 l 1,8,-1
 513 0 l 1,9,-1
 332 281 l 1,10,-1
 151 0 l 1,11,-1
 11 0 l 1,0,-1
EndSplineSet
Validated: 1
Position2: "'case' Case-Sensitive Forms in Latin lookup 0 subtable" dx=10 dy=0 dh=20 dv=0
EndChar

StartChar: Y
Encoding: 89 89 157
Width: 648
GlyphClass: 2
Flags: W
AnchorPoint: "Anchor-7" 323 760 basechar 0
LayerCount: 2
Fore
SplineSet
263 0 m 1,0,-1
 263 280 l 1,1,-1
 14 710 l 1,2,-1
 152 710 l 1,3,-1
 326 392 l 1,4,-1
 499 710 l 1,5,-1
 634 710 l 1,6,-1
 385 280 l 1,7,-1
 385 0 l 1,8,-1
 263 0 l 1,0,-1
EndSplineSet
Validated: 1
Position2: "'case' Case-Sensitive Forms in Latin lookup 0 subtable" dx=10 dy=0 dh=20 dv=0
EndChar

StartChar: Z
Encoding: 90 90 158
Width: 630
GlyphClass: 2
Flags: W
AnchorPoint: "Anchor-7" 312 760 basechar 0
LayerCount: 2
Fore
SplineSet
41 0 m 1,0,-1
 41 88 l 1,1,-1
 418 606 l 1,2,-1
 56 606 l 1,3,-1
 56 710 l 1,4,-1
 569 710 l 1,5,-1
 569 622 l 1,6,-1
 192 104 l 1,7,-1
 591 104 l 1,8,-1
 591 0 l 1,9,-1
 41 0 l 1,0,-1
EndSplineSet
Validated: 1
Position2: "'case' Case-Sensitive Forms in Latin lookup 0 subtable" dx=10 dy=0 dh=20 dv=0
EndChar

StartChar: a
Encoding: 97 97 159
Width: 554
GlyphClass: 2
Flags: W
AnchorPoint: "Anchor-6" 274 562 basechar 0
AnchorPoint: "Anchor-2" 492 -50 basechar 0
LayerCount: 2
Fore
SplineSet
222 -15 m 0,0,1
 182 -15 182 -15 148.5 -3 c 128,-1,2
 115 9 115 9 90 31 c 128,-1,3
 65 53 65 53 51 83 c 128,-1,4
 37 113 37 113 37 149 c 0,5,6
 37 199 37 199 63.5 236.5 c 128,-1,7
 90 274 90 274 138 295 c 128,-1,8
 186 316 186 316 250 316 c 0,9,10
 285 316 285 316 317 309.5 c 128,-1,11
 349 303 349 303 378 291 c 1,12,-1
 378 324 l 2,13,14
 378 359 378 359 365 385.5 c 128,-1,15
 352 412 352 412 328 427 c 128,-1,16
 304 442 304 442 270 442 c 0,17,18
 234 442 234 442 205 423 c 128,-1,19
 176 404 176 404 162 370 c 1,20,-1
 56 394 l 1,21,22
 68 438 68 438 99.5 470 c 128,-1,23
 131 502 131 502 175.5 520 c 128,-1,24
 220 538 220 538 272 538 c 0,25,26
 321 538 321 538 361.5 522 c 128,-1,27
 402 506 402 506 431 477 c 128,-1,28
 460 448 460 448 476 408 c 128,-1,29
 492 368 492 368 492 319 c 2,30,-1
 492 0 l 1,31,-1
 387 0 l 1,32,-1
 383 69 l 1,33,34
 362 31 362 31 320 8 c 128,-1,35
 278 -15 278 -15 222 -15 c 0,0,1
153 154 m 0,36,37
 153 132 153 132 165 114.5 c 128,-1,38
 177 97 177 97 198.5 87 c 128,-1,39
 220 77 220 77 249 77 c 0,40,41
 286 77 286 77 315 93 c 128,-1,42
 344 109 344 109 361 136.5 c 128,-1,43
 378 164 378 164 378 199 c 2,44,-1
 378 211 l 1,45,46
 352 222 352 222 324.5 228.5 c 128,-1,47
 297 235 297 235 268 235 c 0,48,49
 216 235 216 235 184.5 213 c 128,-1,50
 153 191 153 191 153 154 c 0,36,37
EndSplineSet
Validated: 1
Substitution2: "'ordn' Ordinals in Latin lookup 25 subtable" ordfeminine
Substitution2: "'ss01' Style Set 1 in Latin lookup 14 subtable" a.ss01
Substitution2: "'aalt' Access All Alternates in Latin lookup 0 subtable" ordfeminine
EndChar

StartChar: b
Encoding: 98 98 160
Width: 632
GlyphClass: 2
Flags: W
LayerCount: 2
Fore
SplineSet
62 0 m 1,0,-1
 62 744 l 1,1,-1
 177 744 l 1,2,-1
 177 447 l 1,3,4
 205 490 205 490 250 514 c 128,-1,5
 295 538 295 538 349 538 c 0,6,7
 401 538 401 538 445.5 517 c 128,-1,8
 490 496 490 496 523 459 c 128,-1,9
 556 422 556 422 574.5 372 c 128,-1,10
 593 322 593 322 593 264 c 0,11,12
 593 205 593 205 574 154 c 128,-1,13
 555 103 555 103 521 65 c 128,-1,14
 487 27 487 27 441.5 6 c 128,-1,15
 396 -15 396 -15 343 -15 c 0,16,17
 288 -15 288 -15 243.5 9 c 128,-1,18
 199 33 199 33 172 77 c 1,19,-1
 167 0 l 1,20,-1
 62 0 l 1,0,-1
325 89 m 256,21,22
 368 89 368 89 402 111.5 c 128,-1,23
 436 134 436 134 455.5 173 c 128,-1,24
 475 212 475 212 475 262 c 256,25,26
 475 312 475 312 455.5 350.5 c 128,-1,27
 436 389 436 389 402 411.5 c 128,-1,28
 368 434 368 434 325 434 c 256,29,30
 282 434 282 434 248 411.5 c 128,-1,31
 214 389 214 389 194.5 350.5 c 128,-1,32
 175 312 175 312 175 262 c 256,33,34
 175 212 175 212 194.5 173 c 128,-1,35
 214 134 214 134 248 111.5 c 128,-1,36
 282 89 282 89 325 89 c 256,21,22
EndSplineSet
Validated: 1
EndChar

StartChar: c
Encoding: 99 99 161
Width: 561
GlyphClass: 2
Flags: W
AnchorPoint: "Anchor-6" 300 562 basechar 0
AnchorPoint: "Anchor-0" 299 -50 basechar 0
LayerCount: 2
Fore
SplineSet
298 -15 m 0,0,1
 242 -15 242 -15 195 5.5 c 128,-1,2
 148 26 148 26 113 62.5 c 128,-1,3
 78 99 78 99 58.5 149 c 128,-1,4
 39 199 39 199 39 258 c 256,5,6
 39 317 39 317 59 368 c 128,-1,7
 79 419 79 419 114 457 c 128,-1,8
 149 495 149 495 196.5 516.5 c 128,-1,9
 244 538 244 538 300 538 c 0,10,11
 354 538 354 538 399 518.5 c 128,-1,12
 444 499 444 499 476.5 463.5 c 128,-1,13
 509 428 509 428 523 380 c 1,14,-1
 414 354 l 1,15,16
 397 392 397 392 366.5 413 c 128,-1,17
 336 434 336 434 298 434 c 0,18,19
 258 434 258 434 226 411 c 128,-1,20
 194 388 194 388 175.5 348.5 c 128,-1,21
 157 309 157 309 157 259 c 0,22,23
 157 210 157 210 175 171.5 c 128,-1,24
 193 133 193 133 224.5 111 c 128,-1,25
 256 89 256 89 298 89 c 0,26,27
 338 89 338 89 371 109.5 c 128,-1,28
 404 130 404 130 420 168 c 1,29,-1
 528 143 l 1,30,31
 514 95 514 95 480 59.5 c 128,-1,32
 446 24 446 24 399 4.5 c 128,-1,33
 352 -15 352 -15 298 -15 c 0,0,1
EndSplineSet
Validated: 1
EndChar

StartChar: d
Encoding: 100 100 162
Width: 632
GlyphClass: 2
Flags: W
AnchorPoint: "Anchor-8" 570 790 basechar 0
LayerCount: 2
Fore
SplineSet
283 -15 m 0,0,1
 231 -15 231 -15 186.5 6 c 128,-1,2
 142 27 142 27 109 64 c 128,-1,3
 76 101 76 101 57.5 151 c 128,-1,4
 39 201 39 201 39 259 c 0,5,6
 39 318 39 318 58 369 c 128,-1,7
 77 420 77 420 111 458 c 128,-1,8
 145 496 145 496 190.5 517 c 128,-1,9
 236 538 236 538 289 538 c 0,10,11
 341 538 341 538 384 516 c 128,-1,12
 427 494 427 494 455 454 c 1,13,-1
 455 744 l 1,14,-1
 570 744 l 1,15,-1
 570 0 l 1,16,-1
 465 0 l 1,17,-1
 460 84 l 1,18,19
 432 38 432 38 386 11.5 c 128,-1,20
 340 -15 340 -15 283 -15 c 0,0,1
307 89 m 256,21,22
 350 89 350 89 384 111.5 c 128,-1,23
 418 134 418 134 437.5 173 c 128,-1,24
 457 212 457 212 457 261 c 0,25,26
 457 311 457 311 437.5 350 c 128,-1,27
 418 389 418 389 384 411.5 c 128,-1,28
 350 434 350 434 307 434 c 256,29,30
 264 434 264 434 230 411.5 c 128,-1,31
 196 389 196 389 176.5 350 c 128,-1,32
 157 311 157 311 157 261 c 0,33,34
 157 212 157 212 176.5 173 c 128,-1,35
 196 134 196 134 230 111.5 c 128,-1,36
 264 89 264 89 307 89 c 256,21,22
EndSplineSet
Validated: 1
EndChar

StartChar: e
Encoding: 101 101 163
Width: 581
GlyphClass: 2
Flags: W
AnchorPoint: "Anchor-6" 296 562 basechar 0
AnchorPoint: "Anchor-3" 469 -50 basechar 0
LayerCount: 2
Fore
SplineSet
305 -15 m 0,0,1
 247 -15 247 -15 198.5 5.5 c 128,-1,2
 150 26 150 26 114 63 c 128,-1,3
 78 100 78 100 58.5 150.5 c 128,-1,4
 39 201 39 201 39 262 c 0,5,6
 39 321 39 321 58.5 371 c 128,-1,7
 78 421 78 421 112.5 458.5 c 128,-1,8
 147 496 147 496 194 517 c 128,-1,9
 241 538 241 538 296 538 c 256,10,11
 351 538 351 538 396.5 518.5 c 128,-1,12
 442 499 442 499 475.5 463 c 128,-1,13
 509 427 509 427 527 377.5 c 128,-1,14
 545 328 545 328 545 268 c 2,15,-1
 545 234 l 1,16,-1
 158 234 l 1,17,18
 163 188 163 188 182.5 154.5 c 128,-1,19
 202 121 202 121 233 103 c 128,-1,20
 264 85 264 85 305 85 c 0,21,22
 387 85 387 85 433 158 c 1,23,-1
 534 119 l 1,24,25
 516 78 516 78 481.5 47.5 c 128,-1,26
 447 17 447 17 401.5 1 c 128,-1,27
 356 -15 356 -15 305 -15 c 0,0,1
296 445 m 0,28,29
 261 445 261 445 233.5 429 c 128,-1,30
 206 413 206 413 187 384 c 128,-1,31
 168 355 168 355 161 316 c 1,32,-1
 425 316 l 1,33,34
 419 355 419 355 402 384 c 128,-1,35
 385 413 385 413 357.5 429 c 128,-1,36
 330 445 330 445 296 445 c 0,28,29
EndSplineSet
Validated: 1
EndChar

StartChar: f
Encoding: 102 102 164
Width: 397
GlyphClass: 2
Flags: W
LayerCount: 2
Fore
SplineSet
109 0 m 1,0,-1
 109 430 l 1,1,-1
 17 430 l 1,2,-1
 17 523 l 1,3,-1
 109 523 l 1,4,-1
 109 560 l 2,5,6
 109 618 109 618 133 661.5 c 128,-1,7
 157 705 157 705 199 729.5 c 128,-1,8
 241 754 241 754 295 754 c 0,9,10
 326 754 326 754 351.5 746.5 c 128,-1,11
 377 739 377 739 397 728 c 1,12,-1
 371 640 l 1,13,14
 358 647 358 647 341.5 651.5 c 128,-1,15
 325 656 325 656 309 656 c 0,16,17
 266 656 266 656 245 629.5 c 128,-1,18
 224 603 224 603 224 554 c 2,19,-1
 224 523 l 1,20,-1
 374 523 l 1,21,-1
 374 430 l 1,22,-1
 224 430 l 1,23,-1
 224 0 l 1,24,-1
 109 0 l 1,0,-1
EndSplineSet
Validated: 1
EndChar

StartChar: g
Encoding: 103 103 165
Width: 627
GlyphClass: 2
Flags: W
AnchorPoint: "Anchor-6" 303 562 basechar 0
LayerCount: 2
Fore
SplineSet
280 10 m 0,0,1
 229 10 229 10 185 30 c 128,-1,2
 141 50 141 50 108 85.5 c 128,-1,3
 75 121 75 121 57 168.5 c 128,-1,4
 39 216 39 216 39 272 c 256,5,6
 39 328 39 328 57.5 376.5 c 128,-1,7
 76 425 76 425 110 461 c 128,-1,8
 144 497 144 497 189 517.5 c 128,-1,9
 234 538 234 538 286 538 c 0,10,11
 340 538 340 538 384.5 514.5 c 128,-1,12
 429 491 429 491 456 449 c 1,13,-1
 460 523 l 1,14,-1
 565 523 l 1,15,-1
 565 55 l 2,16,17
 565 -5 565 -5 546 -54.5 c 128,-1,18
 527 -104 527 -104 492 -139.5 c 128,-1,19
 457 -175 457 -175 408.5 -194 c 128,-1,20
 360 -213 360 -213 300 -213 c 0,21,22
 220 -213 220 -213 160 -177 c 128,-1,23
 100 -141 100 -141 66 -77 c 1,24,-1
 175 -39 l 1,25,26
 197 -75 197 -75 230 -93.5 c 128,-1,27
 263 -112 263 -112 304 -112 c 0,28,29
 348 -112 348 -112 381 -92.5 c 128,-1,30
 414 -73 414 -73 432 -37.5 c 128,-1,31
 450 -2 450 -2 450 46 c 2,32,-1
 450 96 l 1,33,34
 422 56 422 56 378 33 c 128,-1,35
 334 10 334 10 280 10 c 0,0,1
304 114 m 256,36,37
 346 114 346 114 379.5 135 c 128,-1,38
 413 156 413 156 432.5 192 c 128,-1,39
 452 228 452 228 452 274 c 256,40,41
 452 320 452 320 432.5 356 c 128,-1,42
 413 392 413 392 379.5 413 c 128,-1,43
 346 434 346 434 304 434 c 256,44,45
 262 434 262 434 229 413 c 128,-1,46
 196 392 196 392 176.5 356 c 128,-1,47
 157 320 157 320 157 274 c 256,48,49
 157 228 157 228 176.5 192 c 128,-1,50
 196 156 196 156 229 135 c 128,-1,51
 262 114 262 114 304 114 c 256,36,37
EndSplineSet
Validated: 1
EndChar

StartChar: h
Encoding: 104 104 166
Width: 587
GlyphClass: 2
Flags: W
AnchorPoint: "Anchor-0" 293 -50 basechar 0
LayerCount: 2
Fore
SplineSet
62 0 m 1,0,-1
 62 744 l 1,1,-1
 177 744 l 1,2,-1
 177 460 l 1,3,4
 201 496 201 496 241 517 c 128,-1,5
 281 538 281 538 331 538 c 0,6,7
 390 538 390 538 433.5 510 c 128,-1,8
 477 482 477 482 501 431 c 128,-1,9
 525 380 525 380 525 311 c 2,10,-1
 525 0 l 1,11,-1
 410 0 l 1,12,-1
 410 298 l 2,13,14
 410 362 410 362 381.5 398 c 128,-1,15
 353 434 353 434 302 434 c 0,16,17
 266 434 266 434 237.5 417 c 128,-1,18
 209 400 209 400 193 371 c 128,-1,19
 177 342 177 342 177 304 c 2,20,-1
 177 0 l 1,21,-1
 62 0 l 1,0,-1
EndSplineSet
Validated: 1
EndChar

StartChar: i
Encoding: 105 105 167
Width: 239
GlyphClass: 2
Flags: W
AnchorPoint: "Anchor-2" 177 -50 basechar 0
LayerCount: 2
Fore
SplineSet
189 669 m 256,0,1
 189 650 189 650 179.5 634 c 128,-1,2
 170 618 170 618 154 608.5 c 128,-1,3
 138 599 138 599 119 599 c 256,4,5
 100 599 100 599 84 608.5 c 128,-1,6
 68 618 68 618 58.5 634 c 128,-1,7
 49 650 49 650 49 669 c 256,8,9
 49 688 49 688 58.5 704 c 128,-1,10
 68 720 68 720 84 729.5 c 128,-1,11
 100 739 100 739 119 739 c 256,12,13
 138 739 138 739 154 729.5 c 128,-1,14
 170 720 170 720 179.5 704 c 128,-1,15
 189 688 189 688 189 669 c 256,0,1
62 0 m 1,16,-1
 62 523 l 1,17,-1
 177 523 l 1,18,-1
 177 0 l 1,19,-1
 62 0 l 1,16,-1
EndSplineSet
Validated: 1
EndChar

StartChar: j
Encoding: 106 106 168
Width: 244
GlyphClass: 2
Flags: W
LayerCount: 2
Fore
SplineSet
194 669 m 256,0,1
 194 650 194 650 184.5 634 c 128,-1,2
 175 618 175 618 159.5 608.5 c 128,-1,3
 144 599 144 599 124 599 c 256,4,5
 104 599 104 599 88.5 608.5 c 128,-1,6
 73 618 73 618 63.5 634 c 128,-1,7
 54 650 54 650 54 669 c 256,8,9
 54 688 54 688 63.5 704 c 128,-1,10
 73 720 73 720 88.5 729.5 c 128,-1,11
 104 739 104 739 124 739 c 256,12,13
 144 739 144 739 159.5 729.5 c 128,-1,14
 175 720 175 720 184.5 704 c 128,-1,15
 194 688 194 688 194 669 c 256,0,1
18 -208 m 0,16,17
 -8 -208 -8 -208 -31 -201.5 c 128,-1,18
 -54 -195 -54 -195 -74 -183 c 1,19,-1
 -47 -94 l 1,20,21
 -24 -107 -24 -107 1 -107 c 0,22,23
 32 -107 32 -107 49.5 -86 c 128,-1,24
 67 -65 67 -65 67 -27 c 2,25,-1
 67 523 l 1,26,-1
 182 523 l 1,27,-1
 182 -34 l 2,28,29
 182 -86 182 -86 161.5 -125 c 128,-1,30
 141 -164 141 -164 104 -186 c 128,-1,31
 67 -208 67 -208 18 -208 c 0,16,17
EndSplineSet
Validated: 1
EndChar

StartChar: k
Encoding: 107 107 169
Width: 561
GlyphClass: 2
Flags: W
AnchorPoint: "Anchor-0" 287 -50 basechar 0
LayerCount: 2
Fore
SplineSet
62 0 m 1,0,-1
 62 744 l 1,1,-1
 177 744 l 1,2,-1
 177 307 l 1,3,-1
 391 523 l 1,4,-1
 531 523 l 1,5,-1
 296 291 l 1,6,-1
 555 0 l 1,7,-1
 404 0 l 1,8,-1
 177 264 l 1,9,-1
 177 0 l 1,10,-1
 62 0 l 1,0,-1
EndSplineSet
Validated: 1
EndChar

StartChar: l
Encoding: 108 108 170
Width: 239
GlyphClass: 2
Flags: W
AnchorPoint: "Anchor-8" 177 790 basechar 0
AnchorPoint: "Anchor-6" 118 764 basechar 0
AnchorPoint: "Anchor-0" 118 -50 basechar 0
LayerCount: 2
Fore
SplineSet
62 0 m 1,0,-1
 62 744 l 1,1,-1
 177 744 l 1,2,-1
 177 0 l 1,3,-1
 62 0 l 1,0,-1
EndSplineSet
Validated: 1
EndChar

StartChar: m
Encoding: 109 109 171
Width: 915
GlyphClass: 2
Flags: W
LayerCount: 2
Fore
SplineSet
62 0 m 1,0,-1
 62 523 l 1,1,-1
 167 523 l 1,2,-1
 171 453 l 1,3,4
 194 492 194 492 234 515 c 128,-1,5
 274 538 274 538 325 538 c 0,6,7
 380 538 380 538 422 510.5 c 128,-1,8
 464 483 464 483 487 435 c 1,9,10
 502 466 502 466 527.5 489 c 128,-1,11
 553 512 553 512 587.5 525 c 128,-1,12
 622 538 622 538 662 538 c 0,13,14
 720 538 720 538 763 510.5 c 128,-1,15
 806 483 806 483 829.5 432.5 c 128,-1,16
 853 382 853 382 853 312 c 2,17,-1
 853 0 l 1,18,-1
 738 0 l 1,19,-1
 738 299 l 2,20,21
 738 364 738 364 710 399 c 128,-1,22
 682 434 682 434 633 434 c 0,23,24
 599 434 599 434 572.5 417.5 c 128,-1,25
 546 401 546 401 530.5 371.5 c 128,-1,26
 515 342 515 342 515 305 c 2,27,-1
 515 0 l 1,28,-1
 400 0 l 1,29,-1
 400 299 l 2,30,31
 400 364 400 364 372 399 c 128,-1,32
 344 434 344 434 295 434 c 0,33,34
 261 434 261 434 234.5 417.5 c 128,-1,35
 208 401 208 401 192.5 371.5 c 128,-1,36
 177 342 177 342 177 305 c 2,37,-1
 177 0 l 1,38,-1
 62 0 l 1,0,-1
EndSplineSet
Validated: 1
EndChar

StartChar: n
Encoding: 110 110 172
Width: 587
GlyphClass: 2
Flags: W
AnchorPoint: "Anchor-6" 293 562 basechar 0
AnchorPoint: "Anchor-0" 293 -50 basechar 0
LayerCount: 2
Fore
SplineSet
62 0 m 1,0,-1
 62 523 l 1,1,-1
 167 523 l 1,2,-1
 171 451 l 1,3,4
 194 491 194 491 235.5 514.5 c 128,-1,5
 277 538 277 538 331 538 c 0,6,7
 390 538 390 538 433.5 510 c 128,-1,8
 477 482 477 482 501 431 c 128,-1,9
 525 380 525 380 525 311 c 2,10,-1
 525 0 l 1,11,-1
 410 0 l 1,12,-1
 410 298 l 2,13,14
 410 362 410 362 381.5 398 c 128,-1,15
 353 434 353 434 302 434 c 0,16,17
 266 434 266 434 237.5 417 c 128,-1,18
 209 400 209 400 193 371 c 128,-1,19
 177 342 177 342 177 304 c 2,20,-1
 177 0 l 1,21,-1
 62 0 l 1,0,-1
EndSplineSet
Validated: 1
EndChar

StartChar: o
Encoding: 111 111 173
Width: 614
GlyphClass: 2
Flags: W
AnchorPoint: "Anchor-6" 307 562 basechar 0
LayerCount: 2
Fore
SplineSet
305 -15 m 0,0,1
 248 -15 248 -15 199.5 5.5 c 128,-1,2
 151 26 151 26 115 63.5 c 128,-1,3
 79 101 79 101 59 151.5 c 128,-1,4
 39 202 39 202 39 262 c 0,5,6
 39 321 39 321 59 371.5 c 128,-1,7
 79 422 79 422 115.5 459.5 c 128,-1,8
 152 497 152 497 201.5 517.5 c 128,-1,9
 251 538 251 538 309 538 c 0,10,11
 366 538 366 538 414.5 517.5 c 128,-1,12
 463 497 463 497 499 459.5 c 128,-1,13
 535 422 535 422 555 372 c 128,-1,14
 575 322 575 322 575 262 c 256,15,16
 575 202 575 202 555 151.5 c 128,-1,17
 535 101 535 101 498.5 63.5 c 128,-1,18
 462 26 462 26 412.5 5.5 c 128,-1,19
 363 -15 363 -15 305 -15 c 0,0,1
307 89 m 256,20,21
 350 89 350 89 384 111.5 c 128,-1,22
 418 134 418 134 437.5 173 c 128,-1,23
 457 212 457 212 457 262 c 256,24,25
 457 312 457 312 437.5 350.5 c 128,-1,26
 418 389 418 389 384 411.5 c 128,-1,27
 350 434 350 434 307 434 c 256,28,29
 264 434 264 434 230 411.5 c 128,-1,30
 196 389 196 389 176.5 350.5 c 128,-1,31
 157 312 157 312 157 262 c 256,32,33
 157 212 157 212 176.5 173 c 128,-1,34
 196 134 196 134 230 111.5 c 128,-1,35
 264 89 264 89 307 89 c 256,20,21
EndSplineSet
Validated: 1
Substitution2: "'ordn' Ordinals in Latin lookup 25 subtable" ordmasculine
Substitution2: "'aalt' Access All Alternates in Latin lookup 0 subtable" ordmasculine
EndChar

StartChar: p
Encoding: 112 112 174
Width: 632
GlyphClass: 2
Flags: W
LayerCount: 2
Fore
SplineSet
62 -198 m 1,0,-1
 62 523 l 1,1,-1
 167 523 l 1,2,-1
 172 439 l 1,3,4
 200 485 200 485 246 511.5 c 128,-1,5
 292 538 292 538 349 538 c 0,6,7
 401 538 401 538 445.5 517 c 128,-1,8
 490 496 490 496 523 459 c 128,-1,9
 556 422 556 422 574.5 372 c 128,-1,10
 593 322 593 322 593 264 c 0,11,12
 593 205 593 205 574 154 c 128,-1,13
 555 103 555 103 521 65 c 128,-1,14
 487 27 487 27 441.5 6 c 128,-1,15
 396 -15 396 -15 343 -15 c 0,16,17
 291 -15 291 -15 248 7 c 128,-1,18
 205 29 205 29 177 69 c 1,19,-1
 177 -198 l 1,20,-1
 62 -198 l 1,0,-1
325 89 m 256,21,22
 368 89 368 89 402 111.5 c 128,-1,23
 436 134 436 134 455.5 173 c 128,-1,24
 475 212 475 212 475 262 c 256,25,26
 475 312 475 312 455.5 350.5 c 128,-1,27
 436 389 436 389 402 411.5 c 128,-1,28
 368 434 368 434 325 434 c 256,29,30
 282 434 282 434 248 411.5 c 128,-1,31
 214 389 214 389 194.5 350.5 c 128,-1,32
 175 312 175 312 175 262 c 256,33,34
 175 212 175 212 194.5 173 c 128,-1,35
 214 134 214 134 248 111.5 c 128,-1,36
 282 89 282 89 325 89 c 256,21,22
EndSplineSet
Validated: 1
EndChar

StartChar: q
Encoding: 113 113 175
Width: 632
GlyphClass: 2
Flags: W
LayerCount: 2
Fore
SplineSet
283 -15 m 0,0,1
 231 -15 231 -15 186.5 6 c 128,-1,2
 142 27 142 27 109 64 c 128,-1,3
 76 101 76 101 57.5 151 c 128,-1,4
 39 201 39 201 39 259 c 0,5,6
 39 318 39 318 58 369 c 128,-1,7
 77 420 77 420 111 458 c 128,-1,8
 145 496 145 496 190.5 517 c 128,-1,9
 236 538 236 538 289 538 c 0,10,11
 344 538 344 538 388.5 514 c 128,-1,12
 433 490 433 490 460 446 c 1,13,-1
 465 523 l 1,14,-1
 570 523 l 1,15,-1
 570 -198 l 1,16,-1
 455 -198 l 1,17,-1
 455 76 l 1,18,19
 427 33 427 33 382 9 c 128,-1,20
 337 -15 337 -15 283 -15 c 0,0,1
307 89 m 256,21,22
 350 89 350 89 384 111.5 c 128,-1,23
 418 134 418 134 437.5 173 c 128,-1,24
 457 212 457 212 457 261 c 0,25,26
 457 311 457 311 437.5 350 c 128,-1,27
 418 389 418 389 384 411.5 c 128,-1,28
 350 434 350 434 307 434 c 256,29,30
 264 434 264 434 230 411.5 c 128,-1,31
 196 389 196 389 176.5 350 c 128,-1,32
 157 311 157 311 157 261 c 0,33,34
 157 212 157 212 176.5 173 c 128,-1,35
 196 134 196 134 230 111.5 c 128,-1,36
 264 89 264 89 307 89 c 256,21,22
EndSplineSet
Validated: 1
EndChar

StartChar: r
Encoding: 114 114 176
Width: 388
GlyphClass: 2
Flags: W
AnchorPoint: "Anchor-6" 214 562 basechar 0
LayerCount: 2
Fore
SplineSet
62 0 m 1,0,-1
 62 523 l 1,1,-1
 167 523 l 1,2,-1
 172 437 l 1,3,4
 192 481 192 481 227.5 505.5 c 128,-1,5
 263 530 263 530 311 530 c 0,6,7
 326 530 326 530 340 528 c 128,-1,8
 354 526 354 526 365 521 c 1,9,-1
 352 409 l 1,10,11
 341 413 341 413 329 414.5 c 128,-1,12
 317 416 317 416 305 416 c 0,13,14
 245 416 245 416 211 376 c 128,-1,15
 177 336 177 336 177 265 c 2,16,-1
 177 0 l 1,17,-1
 62 0 l 1,0,-1
EndSplineSet
Validated: 1
EndChar

StartChar: s
Encoding: 115 115 177
Width: 479
GlyphClass: 2
Flags: W
AnchorPoint: "Anchor-6" 238 562 basechar 0
AnchorPoint: "Anchor-0" 240 -50 basechar 0
LayerCount: 2
Fore
SplineSet
241 -15 m 0,0,1
 190 -15 190 -15 146.5 2 c 128,-1,2
 103 19 103 19 72.5 50.5 c 128,-1,3
 42 82 42 82 29 125 c 1,4,-1
 133 152 l 1,5,6
 146 118 146 118 175 99 c 128,-1,7
 204 80 204 80 242 80 c 0,8,9
 281 80 281 80 306 98.5 c 128,-1,10
 331 117 331 117 331 146 c 0,11,12
 331 171 331 171 311 188 c 128,-1,13
 291 205 291 205 246 213 c 2,14,-1
 213 219 l 2,15,16
 129 234 129 234 86.5 273 c 128,-1,17
 44 312 44 312 44 373 c 0,18,19
 44 422 44 422 69 459 c 128,-1,20
 94 496 94 496 138 517 c 128,-1,21
 182 538 182 538 239 538 c 0,22,23
 288 538 288 538 329 521 c 128,-1,24
 370 504 370 504 398 473 c 128,-1,25
 426 442 426 442 438 400 c 1,26,-1
 335 375 l 1,27,28
 323 407 323 407 297.5 425.5 c 128,-1,29
 272 444 272 444 238 444 c 0,30,31
 203 444 203 444 180 426.5 c 128,-1,32
 157 409 157 409 157 382 c 0,33,34
 157 359 157 359 177.5 344 c 128,-1,35
 198 329 198 329 247 320 c 2,36,-1
 280 314 l 2,37,38
 360 300 360 300 403 259 c 128,-1,39
 446 218 446 218 446 157 c 0,40,41
 446 120 446 120 431 88.5 c 128,-1,42
 416 57 416 57 388.5 33.5 c 128,-1,43
 361 10 361 10 323.5 -2.5 c 128,-1,44
 286 -15 286 -15 241 -15 c 0,0,1
EndSplineSet
Validated: 1
EndChar

StartChar: t
Encoding: 116 116 178
Width: 426
GlyphClass: 2
Flags: W
AnchorPoint: "Anchor-9" 234 790 basechar 0
AnchorPoint: "Anchor-0" 246 -50 basechar 0
LayerCount: 2
Fore
SplineSet
278 -15 m 0,0,1
 199 -15 199 -15 154 30.5 c 128,-1,2
 109 76 109 76 109 161 c 2,3,-1
 109 430 l 1,4,-1
 17 430 l 1,5,-1
 17 523 l 1,6,-1
 109 523 l 1,7,-1
 109 700 l 1,8,-1
 224 700 l 1,9,-1
 224 523 l 1,10,-1
 376 523 l 1,11,-1
 376 430 l 1,12,-1
 224 430 l 1,13,-1
 224 173 l 2,14,15
 224 131 224 131 241.5 108.5 c 128,-1,16
 259 86 259 86 293 86 c 0,17,18
 311 86 311 86 332 91.5 c 128,-1,19
 353 97 353 97 371 107 c 1,20,-1
 397 20 l 1,21,22
 374 4 374 4 343.5 -5.5 c 128,-1,23
 313 -15 313 -15 278 -15 c 0,0,1
EndSplineSet
Validated: 1
EndChar

StartChar: u
Encoding: 117 117 179
Width: 586
GlyphClass: 2
Flags: W
AnchorPoint: "Anchor-6" 292 562 basechar 0
AnchorPoint: "Anchor-3" 446 -50 basechar 0
LayerCount: 2
Fore
SplineSet
292 -15 m 0,0,1
 222 -15 222 -15 170.5 15 c 128,-1,2
 119 45 119 45 90.5 100.5 c 128,-1,3
 62 156 62 156 62 231 c 2,4,-1
 62 523 l 1,5,-1
 177 523 l 1,6,-1
 177 229 l 2,7,8
 177 164 177 164 208 126.5 c 128,-1,9
 239 89 239 89 293 89 c 256,10,11
 347 89 347 89 378 126.5 c 128,-1,12
 409 164 409 164 409 229 c 2,13,-1
 409 523 l 1,14,-1
 524 523 l 1,15,-1
 524 231 l 2,16,17
 524 157 524 157 495.5 101.5 c 128,-1,18
 467 46 467 46 415 15.5 c 128,-1,19
 363 -15 363 -15 292 -15 c 0,0,1
EndSplineSet
Validated: 1
EndChar

StartChar: v
Encoding: 118 118 180
Width: 545
GlyphClass: 2
Flags: W
LayerCount: 2
Fore
SplineSet
214 0 m 1,0,-1
 14 523 l 1,1,-1
 140 523 l 1,2,-1
 274 120 l 1,3,-1
 409 523 l 1,4,-1
 531 523 l 1,5,-1
 331 0 l 1,6,-1
 214 0 l 1,0,-1
EndSplineSet
Validated: 1
EndChar

StartChar: w
Encoding: 119 119 181
Width: 824
GlyphClass: 2
Flags: W
AnchorPoint: "Anchor-6" 411 562 basechar 0
LayerCount: 2
Fore
SplineSet
188 0 m 1,0,-1
 14 523 l 1,1,-1
 134 523 l 1,2,-1
 245 141 l 1,3,-1
 362 523 l 1,4,-1
 465 523 l 1,5,-1
 581 141 l 1,6,-1
 694 523 l 1,7,-1
 810 523 l 1,8,-1
 635 0 l 1,9,-1
 527 0 l 1,10,-1
 412 380 l 1,11,-1
 296 0 l 1,12,-1
 188 0 l 1,0,-1
EndSplineSet
Validated: 1
EndChar

StartChar: x
Encoding: 120 120 182
Width: 554
GlyphClass: 2
Flags: W
LayerCount: 2
Fore
SplineSet
14 0 m 1,0,-1
 213 276 l 1,1,-1
 36 523 l 1,2,-1
 166 523 l 1,3,-1
 278 348 l 1,4,-1
 393 523 l 1,5,-1
 518 523 l 1,6,-1
 341 276 l 1,7,-1
 540 0 l 1,8,-1
 405 0 l 1,9,-1
 276 200 l 1,10,-1
 145 0 l 1,11,-1
 14 0 l 1,0,-1
EndSplineSet
Validated: 1
EndChar

StartChar: y
Encoding: 121 121 183
Width: 545
GlyphClass: 2
Flags: W
AnchorPoint: "Anchor-6" 272 562 basechar 0
LayerCount: 2
Fore
SplineSet
132 -208 m 0,0,1
 107 -208 107 -208 85.5 -203 c 128,-1,2
 64 -198 64 -198 44 -187 c 1,3,-1
 69 -96 l 1,4,5
 80 -101 80 -101 94 -104.5 c 128,-1,6
 108 -108 108 -108 121 -108 c 0,7,8
 151 -108 151 -108 173.5 -91 c 128,-1,9
 196 -74 196 -74 211 -36 c 2,10,-1
 227 5 l 1,11,-1
 14 523 l 1,12,-1
 140 523 l 1,13,-1
 281 132 l 1,14,-1
 409 523 l 1,15,-1
 531 523 l 1,16,-1
 309 -63 l 2,17,18
 280 -138 280 -138 236.5 -173 c 128,-1,19
 193 -208 193 -208 132 -208 c 0,0,1
EndSplineSet
Validated: 1
EndChar

StartChar: z
Encoding: 122 122 184
Width: 513
GlyphClass: 2
Flags: W
AnchorPoint: "Anchor-6" 251 562 basechar 0
LayerCount: 2
Fore
SplineSet
41 0 m 1,0,-1
 41 76 l 1,1,-1
 313 430 l 1,2,-1
 48 430 l 1,3,-1
 48 523 l 1,4,-1
 455 523 l 1,5,-1
 455 447 l 1,6,-1
 183 93 l 1,7,-1
 472 93 l 1,8,-1
 472 0 l 1,9,-1
 41 0 l 1,0,-1
EndSplineSet
Validated: 1
EndChar

StartChar: a.ss01
Encoding: 65567 -1 185
Width: 632
Flags: W
AnchorPoint: "Anchor-6" 312 562 basechar 0
AnchorPoint: "Anchor-2" 570 -50 basechar 0
LayerCount: 2
Fore
SplineSet
283 -15 m 0,0,1
 231 -15 231 -15 186.5 6 c 128,-1,2
 142 27 142 27 109 64 c 128,-1,3
 76 101 76 101 57.5 151 c 128,-1,4
 39 201 39 201 39 259 c 0,5,6
 39 318 39 318 58 369 c 128,-1,7
 77 420 77 420 111 458 c 128,-1,8
 145 496 145 496 190.5 517 c 128,-1,9
 236 538 236 538 289 538 c 0,10,11
 344 538 344 538 388.5 514 c 128,-1,12
 433 490 433 490 460 446 c 1,13,-1
 465 523 l 1,14,-1
 570 523 l 1,15,-1
 570 0 l 1,16,-1
 465 0 l 1,17,-1
 460 84 l 1,18,19
 432 38 432 38 386 11.5 c 128,-1,20
 340 -15 340 -15 283 -15 c 0,0,1
307 89 m 256,21,22
 350 89 350 89 384 111.5 c 128,-1,23
 418 134 418 134 437.5 173 c 128,-1,24
 457 212 457 212 457 261 c 0,25,26
 457 311 457 311 437.5 350 c 128,-1,27
 418 389 418 389 384 411.5 c 128,-1,28
 350 434 350 434 307 434 c 256,29,30
 264 434 264 434 230 411.5 c 128,-1,31
 196 389 196 389 176.5 350 c 128,-1,32
 157 311 157 311 157 261 c 0,33,34
 157 212 157 212 176.5 173 c 128,-1,35
 196 134 196 134 230 111.5 c 128,-1,36
 264 89 264 89 307 89 c 256,21,22
EndSplineSet
Validated: 1
Substitution2: "'ordn' Ordinals in Latin lookup 25 subtable" ordfeminine.ss01
Substitution2: "'aalt' Access All Alternates in Latin lookup 0 subtable" ordfeminine.ss01
EndChar

StartChar: trademark
Encoding: 8482 8482 186
Width: 790
GlyphClass: 2
Flags: W
LayerCount: 2
Fore
SplineSet
126 359 m 1,0,-1
 126 636 l 1,1,-1
 27 636 l 1,2,-1
 27 710 l 1,3,-1
 309 710 l 1,4,-1
 309 636 l 1,5,-1
 210 636 l 1,6,-1
 210 359 l 1,7,-1
 126 359 l 1,0,-1
368 359 m 1,8,-1
 368 710 l 1,9,-1
 452 710 l 1,10,-1
 550 515 l 1,11,-1
 648 710 l 1,12,-1
 730 710 l 1,13,-1
 730 359 l 1,14,-1
 649 359 l 1,15,-1
 649 580 l 1,16,-1
 576 432 l 1,17,-1
 522 432 l 1,18,-1
 449 580 l 1,19,-1
 449 359 l 1,20,-1
 368 359 l 1,8,-1
EndSplineSet
Validated: 1
EndChar

StartChar: ordfeminine.ss01
Encoding: 65568 -1 187
Width: 453
Flags: W
LayerCount: 2
Fore
SplineSet
411 321 m 1,0,-1
 320 321 l 1,1,-1
 316 375 l 1,2,3
 296 346 296 346 266.5 329 c 128,-1,4
 237 312 237 312 199 312 c 0,5,6
 164 312 164 312 133 326 c 128,-1,7
 102 340 102 340 78.5 366 c 128,-1,8
 55 392 55 392 41 427.5 c 128,-1,9
 27 463 27 463 27 505 c 256,10,11
 27 547 27 547 40.5 582.5 c 128,-1,12
 54 618 54 618 78.5 644.5 c 128,-1,13
 103 671 103 671 135 685.5 c 128,-1,14
 167 700 167 700 203 700 c 256,15,16
 239 700 239 700 268 685 c 128,-1,17
 297 670 297 670 317 641 c 1,18,-1
 320 691 l 1,19,-1
 411 691 l 1,20,-1
 411 321 l 1,0,-1
220 400 m 256,21,22
 248 400 248 400 269 414 c 128,-1,23
 290 428 290 428 302 452 c 128,-1,24
 314 476 314 476 314 506 c 256,25,26
 314 536 314 536 302 560 c 128,-1,27
 290 584 290 584 269 598 c 128,-1,28
 248 612 248 612 220 612 c 256,29,30
 192 612 192 612 171 598 c 128,-1,31
 150 584 150 584 138 560 c 128,-1,32
 126 536 126 536 126 506 c 256,33,34
 126 476 126 476 138 452 c 128,-1,35
 150 428 150 428 171 414 c 128,-1,36
 192 400 192 400 220 400 c 256,21,22
EndSplineSet
Validated: 1
EndChar

StartChar: ordfeminine
Encoding: 170 170 188
Width: 399
GlyphClass: 2
Flags: W
LayerCount: 2
Fore
SplineSet
159 312 m 256,0,1
 122 312 122 312 92.5 326.5 c 128,-1,2
 63 341 63 341 46 367 c 128,-1,3
 29 393 29 393 29 427 c 0,4,5
 29 462 29 462 48 489 c 128,-1,6
 67 516 67 516 100.5 530.5 c 128,-1,7
 134 545 134 545 180 545 c 256,8,9
 226 545 226 545 263 528 c 1,10,-1
 263 550 l 2,11,12
 263 582 263 582 244 602.5 c 128,-1,13
 225 623 225 623 196 623 c 0,14,15
 172 623 172 623 154 611.5 c 128,-1,16
 136 600 136 600 129 581 c 1,17,-1
 42 598 l 1,18,19
 51 628 51 628 73.5 651 c 128,-1,20
 96 674 96 674 128 687 c 128,-1,21
 160 700 160 700 198 700 c 0,22,23
 246 700 246 700 281.5 680.5 c 128,-1,24
 317 661 317 661 337 626.5 c 128,-1,25
 357 592 357 592 357 545 c 2,26,-1
 357 321 l 1,27,-1
 270 321 l 1,28,-1
 267 366 l 1,29,30
 252 341 252 341 224 326.5 c 128,-1,31
 196 312 196 312 159 312 c 256,0,1
124 431 m 0,32,33
 124 409 124 409 141 396 c 128,-1,34
 158 383 158 383 183 383 c 0,35,36
 206 383 206 383 224 393.5 c 128,-1,37
 242 404 242 404 252.5 422 c 128,-1,38
 263 440 263 440 263 462 c 2,39,-1
 263 468 l 1,40,41
 248 474 248 474 230.5 478 c 128,-1,42
 213 482 213 482 196 482 c 0,43,44
 164 482 164 482 144 469 c 128,-1,45
 124 456 124 456 124 431 c 0,32,33
EndSplineSet
Validated: 1
Substitution2: "'ss01' Style Set 1 in Latin lookup 14 subtable" ordfeminine.ss01
EndChar

StartChar: ordmasculine
Encoding: 186 186 189
Width: 440
GlyphClass: 2
Flags: W
LayerCount: 2
Fore
SplineSet
220 312 m 0,0,1
 179 312 179 312 143.5 326.5 c 128,-1,2
 108 341 108 341 82 367.5 c 128,-1,3
 56 394 56 394 41.5 429.5 c 128,-1,4
 27 465 27 465 27 506 c 256,5,6
 27 547 27 547 41.5 582.5 c 128,-1,7
 56 618 56 618 82 644.5 c 128,-1,8
 108 671 108 671 143 685.5 c 128,-1,9
 178 700 178 700 220 700 c 0,10,11
 261 700 261 700 296.5 685.5 c 128,-1,12
 332 671 332 671 358 644.5 c 128,-1,13
 384 618 384 618 398.5 582.5 c 128,-1,14
 413 547 413 547 413 506 c 256,15,16
 413 465 413 465 398.5 429.5 c 128,-1,17
 384 394 384 394 358 367.5 c 128,-1,18
 332 341 332 341 297 326.5 c 128,-1,19
 262 312 262 312 220 312 c 0,0,1
220 400 m 256,20,21
 248 400 248 400 269 414 c 128,-1,22
 290 428 290 428 302 452 c 128,-1,23
 314 476 314 476 314 506 c 256,24,25
 314 536 314 536 302 560 c 128,-1,26
 290 584 290 584 269 598 c 128,-1,27
 248 612 248 612 220 612 c 256,28,29
 192 612 192 612 171 598 c 128,-1,30
 150 584 150 584 138 560 c 128,-1,31
 126 536 126 536 126 506 c 256,32,33
 126 476 126 476 138 452 c 128,-1,34
 150 428 150 428 171 414 c 128,-1,35
 192 400 192 400 220 400 c 256,20,21
EndSplineSet
Validated: 1
EndChar

StartChar: degree
Encoding: 176 176 190
Width: 372
GlyphClass: 2
Flags: W
LayerCount: 2
Fore
SplineSet
348 592 m 0,0,1
 348 559 348 559 335.5 530 c 128,-1,2
 323 501 323 501 300.5 479 c 128,-1,3
 278 457 278 457 248.5 444.5 c 128,-1,4
 219 432 219 432 185 432 c 0,5,6
 152 432 152 432 122.5 444 c 128,-1,7
 93 456 93 456 71 478 c 128,-1,8
 49 500 49 500 36.5 529 c 128,-1,9
 24 558 24 558 24 592 c 0,10,11
 24 625 24 625 36.5 654 c 128,-1,12
 49 683 49 683 71.5 705 c 128,-1,13
 94 727 94 727 123.5 739.5 c 128,-1,14
 153 752 153 752 187 752 c 0,15,16
 220 752 220 752 249.5 740 c 128,-1,17
 279 728 279 728 301 706 c 128,-1,18
 323 684 323 684 335.5 655 c 128,-1,19
 348 626 348 626 348 592 c 0,0,1
261 592 m 256,20,21
 261 614 261 614 251 632.5 c 128,-1,22
 241 651 241 651 223.5 662 c 128,-1,23
 206 673 206 673 186 673 c 256,24,25
 166 673 166 673 148.5 662 c 128,-1,26
 131 651 131 651 121 632.5 c 128,-1,27
 111 614 111 614 111 592 c 256,28,29
 111 570 111 570 121 551.5 c 128,-1,30
 131 533 131 533 148.5 522 c 128,-1,31
 166 511 166 511 186 511 c 256,32,33
 206 511 206 511 223.5 522 c 128,-1,34
 241 533 241 533 251 551.5 c 128,-1,35
 261 570 261 570 261 592 c 256,20,21
EndSplineSet
Validated: 1
EndChar

StartChar: copyright
Encoding: 169 169 191
Width: 854
GlyphClass: 2
Flags: W
LayerCount: 2
Fore
SplineSet
427 -21 m 256,0,1
 363 -21 363 -21 306 -2.5 c 128,-1,2
 249 16 249 16 202.5 50 c 128,-1,3
 156 84 156 84 122 130.5 c 128,-1,4
 88 177 88 177 69.5 234 c 128,-1,5
 51 291 51 291 51 355 c 256,6,7
 51 419 51 419 69.5 475.5 c 128,-1,8
 88 532 88 532 122 579 c 128,-1,9
 156 626 156 626 202.5 659.5 c 128,-1,10
 249 693 249 693 306 711.5 c 128,-1,11
 363 730 363 730 427 730 c 256,12,13
 491 730 491 730 548 711.5 c 128,-1,14
 605 693 605 693 651.5 659.5 c 128,-1,15
 698 626 698 626 732 579 c 128,-1,16
 766 532 766 532 784.5 475.5 c 128,-1,17
 803 419 803 419 803 355 c 256,18,19
 803 291 803 291 784.5 234 c 128,-1,20
 766 177 766 177 732 130.5 c 128,-1,21
 698 84 698 84 651.5 50 c 128,-1,22
 605 16 605 16 548 -2.5 c 128,-1,23
 491 -21 491 -21 427 -21 c 256,0,1
427 53 m 256,24,25
 476 53 476 53 521 68 c 128,-1,26
 566 83 566 83 603 111 c 128,-1,27
 640 139 640 139 667.5 176.5 c 128,-1,28
 695 214 695 214 710 259.5 c 128,-1,29
 725 305 725 305 725 355 c 256,30,31
 725 405 725 405 710 450 c 128,-1,32
 695 495 695 495 667.5 533 c 128,-1,33
 640 571 640 571 603 598.5 c 128,-1,34
 566 626 566 626 521 641 c 128,-1,35
 476 656 476 656 427 656 c 256,36,37
 378 656 378 656 333 641 c 128,-1,38
 288 626 288 626 251 598.5 c 128,-1,39
 214 571 214 571 186.5 533 c 128,-1,40
 159 495 159 495 144 450 c 128,-1,41
 129 405 129 405 129 355 c 256,42,43
 129 305 129 305 144 259.5 c 128,-1,44
 159 214 159 214 186.5 176.5 c 128,-1,45
 214 139 214 139 251 111 c 128,-1,46
 288 83 288 83 333 68 c 128,-1,47
 378 53 378 53 427 53 c 256,24,25
431 153 m 256,48,49
 390 153 390 153 354.5 168 c 128,-1,50
 319 183 319 183 293 210.5 c 128,-1,51
 267 238 267 238 252.5 275 c 128,-1,52
 238 312 238 312 238 356 c 256,53,54
 238 400 238 400 253 438 c 128,-1,55
 268 476 268 476 294.5 504.5 c 128,-1,56
 321 533 321 533 356.5 549 c 128,-1,57
 392 565 392 565 433 565 c 256,58,59
 474 565 474 565 508 550 c 128,-1,60
 542 535 542 535 566 506.5 c 128,-1,61
 590 478 590 478 601 440 c 1,62,-1
 514 419 l 1,63,64
 502 447 502 447 480.5 463 c 128,-1,65
 459 479 459 479 433 479 c 0,66,67
 405 479 405 479 383 463 c 128,-1,68
 361 447 361 447 348 419.5 c 128,-1,69
 335 392 335 392 335 358 c 0,70,71
 335 323 335 323 347.5 296 c 128,-1,72
 360 269 360 269 382 254 c 128,-1,73
 404 239 404 239 433 239 c 0,74,75
 461 239 461 239 484 254.5 c 128,-1,76
 507 270 507 270 518 298 c 1,77,-1
 605 277 l 1,78,79
 594 240 594 240 568.5 212.5 c 128,-1,80
 543 185 543 185 507.5 169 c 128,-1,81
 472 153 472 153 431 153 c 256,48,49
EndSplineSet
Validated: 1
EndChar

StartChar: registered
Encoding: 174 174 192
Width: 536
GlyphClass: 2
Flags: W
LayerCount: 2
Fore
SplineSet
268 270 m 256,0,1
 219 270 219 270 177.5 287 c 128,-1,2
 136 304 136 304 105 334.5 c 128,-1,3
 74 365 74 365 57 406 c 128,-1,4
 40 447 40 447 40 495 c 256,5,6
 40 543 40 543 57 584 c 128,-1,7
 74 625 74 625 105 655.5 c 128,-1,8
 136 686 136 686 177.5 703 c 128,-1,9
 219 720 219 720 268 720 c 256,10,11
 317 720 317 720 358.5 703 c 128,-1,12
 400 686 400 686 431 655.5 c 128,-1,13
 462 625 462 625 479 584 c 128,-1,14
 496 543 496 543 496 495 c 256,15,16
 496 447 496 447 479 406 c 128,-1,17
 462 365 462 365 431 334.5 c 128,-1,18
 400 304 400 304 358.5 287 c 128,-1,19
 317 270 317 270 268 270 c 256,0,1
268 322 m 256,20,21
 304 322 304 322 335.5 335 c 128,-1,22
 367 348 367 348 391 372 c 128,-1,23
 415 396 415 396 428 427.5 c 128,-1,24
 441 459 441 459 441 495 c 256,25,26
 441 531 441 531 428 562.5 c 128,-1,27
 415 594 415 594 391 618 c 128,-1,28
 367 642 367 642 335.5 655 c 128,-1,29
 304 668 304 668 268 668 c 256,30,31
 232 668 232 668 200.5 655 c 128,-1,32
 169 642 169 642 145 618 c 128,-1,33
 121 594 121 594 108 562.5 c 128,-1,34
 95 531 95 531 95 495 c 256,35,36
 95 459 95 459 108 427.5 c 128,-1,37
 121 396 121 396 145 372 c 128,-1,38
 169 348 169 348 200.5 335 c 128,-1,39
 232 322 232 322 268 322 c 256,20,21
184 379 m 1,40,-1
 184 615 l 1,41,-1
 267 615 l 2,42,43
 313 615 313 615 339 594.5 c 128,-1,44
 365 574 365 574 365 537 c 0,45,46
 365 516 365 516 354.5 498.5 c 128,-1,47
 344 481 344 481 327 471 c 1,48,-1
 377 379 l 1,49,-1
 314 379 l 1,50,-1
 277 455 l 1,51,52
 270 454 270 454 264 454 c 0,53,54
 255 454 255 454 241 456 c 1,55,-1
 241 379 l 1,56,-1
 184 379 l 1,40,-1
241 566 m 1,57,-1
 241 504 l 1,58,59
 252 502 252 502 265 502 c 0,60,61
 284 502 284 502 295 511 c 128,-1,62
 306 520 306 520 306 535 c 0,63,64
 306 549 306 549 295 557.5 c 128,-1,65
 284 566 284 566 265 566 c 2,66,-1
 241 566 l 1,57,-1
EndSplineSet
Validated: 1
EndChar

StartChar: quoteleft
Encoding: 8216 8216 193
Width: 240
GlyphClass: 2
Flags: W
LayerCount: 2
Fore
SplineSet
129 432 m 0,0,1
 104 432 104 432 83 448 c 128,-1,2
 62 464 62 464 49.5 491 c 128,-1,3
 37 518 37 518 37 551 c 0,4,5
 37 590 37 590 53.5 624 c 128,-1,6
 70 658 70 658 100 683 c 128,-1,7
 130 708 130 708 171 722 c 1,8,-1
 194 660 l 1,9,10
 156 646 156 646 133.5 619.5 c 128,-1,11
 111 593 111 593 111 563 c 0,12,13
 111 551 111 551 113 542 c 1,14,15
 124 550 124 550 138 550 c 0,16,17
 154 550 154 550 166.5 542.5 c 128,-1,18
 179 535 179 535 187 521.5 c 128,-1,19
 195 508 195 508 195 492 c 256,20,21
 195 476 195 476 186 462 c 128,-1,22
 177 448 177 448 162 440 c 128,-1,23
 147 432 147 432 129 432 c 0,0,1
EndSplineSet
Validated: 1
EndChar

StartChar: quoteright
Encoding: 8217 8217 194
Width: 240
GlyphClass: 2
Flags: W
LayerCount: 2
Fore
SplineSet
111 714 m 0,0,1
 136 714 136 714 157 698 c 128,-1,2
 178 682 178 682 190.5 655 c 128,-1,3
 203 628 203 628 203 595 c 0,4,5
 203 556 203 556 186.5 522 c 128,-1,6
 170 488 170 488 140 463 c 128,-1,7
 110 438 110 438 69 424 c 1,8,-1
 46 486 l 1,9,10
 84 500 84 500 106.5 526.5 c 128,-1,11
 129 553 129 553 129 583 c 0,12,13
 129 595 129 595 127 604 c 1,14,15
 116 596 116 596 102 596 c 0,16,17
 86 596 86 596 73.5 603.5 c 128,-1,18
 61 611 61 611 53 624.5 c 128,-1,19
 45 638 45 638 45 654 c 256,20,21
 45 670 45 670 54 684 c 128,-1,22
 63 698 63 698 78 706 c 128,-1,23
 93 714 93 714 111 714 c 0,0,1
EndSplineSet
Validated: 1
EndChar

StartChar: glyph199
Encoding: 65569 -1 199
Width: 104
GlyphClass: 2
Flags: W
LayerCount: 2
Fore
SplineSet
52 311 m 256,0,1
 34 311 34 311 19.5 320 c 128,-1,2
 5 329 5 329 -4 344 c 128,-1,3
 -13 359 -13 359 -13 377 c 256,4,5
 -13 395 -13 395 -4 410 c 128,-1,6
 5 425 5 425 19.5 434 c 128,-1,7
 34 443 34 443 52 443 c 256,8,9
 70 443 70 443 84.5 434 c 128,-1,10
 99 425 99 425 108 410 c 128,-1,11
 117 395 117 395 117 377 c 256,12,13
 117 359 117 359 108 344 c 128,-1,14
 99 329 99 329 84.5 320 c 128,-1,15
 70 311 70 311 52 311 c 256,0,1
EndSplineSet
Validated: 1
EndChar

StartChar: glyph200
Encoding: 65570 -1 200
Width: 0
GlyphClass: 2
Flags: W
LayerCount: 2
Fore
SplineSet
-141 322 m 256,0,1
 -160 322 -160 322 -176.5 331.5 c 128,-1,2
 -193 341 -193 341 -202.5 356.5 c 128,-1,3
 -212 372 -212 372 -212 392 c 256,4,5
 -212 412 -212 412 -202.5 427.5 c 128,-1,6
 -193 443 -193 443 -176.5 452.5 c 128,-1,7
 -160 462 -160 462 -141 462 c 256,8,9
 -122 462 -122 462 -105.5 452.5 c 128,-1,10
 -89 443 -89 443 -79.5 427.5 c 128,-1,11
 -70 412 -70 412 -70 392 c 256,12,13
 -70 372 -70 372 -79.5 356.5 c 128,-1,14
 -89 341 -89 341 -105.5 331.5 c 128,-1,15
 -122 322 -122 322 -141 322 c 256,0,1
EndSplineSet
Validated: 1
EndChar

StartChar: dotlessi
Encoding: 305 305 201
Width: 239
GlyphClass: 2
Flags: W
AnchorPoint: "Anchor-6" 118 562 basechar 0
LayerCount: 2
Fore
SplineSet
62 0 m 1,0,-1
 62 523 l 1,1,-1
 177 523 l 1,2,-1
 177 0 l 1,3,-1
 62 0 l 1,0,-1
EndSplineSet
Validated: 1
EndChar

StartChar: uni0237
Encoding: 567 567 202
Width: 244
GlyphClass: 2
Flags: W
LayerCount: 2
Fore
SplineSet
18 -208 m 0,0,1
 -8 -208 -8 -208 -31 -201.5 c 128,-1,2
 -54 -195 -54 -195 -74 -183 c 1,3,-1
 -47 -94 l 1,4,5
 -24 -107 -24 -107 1 -107 c 0,6,7
 32 -107 32 -107 49.5 -86 c 128,-1,8
 67 -65 67 -65 67 -27 c 2,9,-1
 67 523 l 1,10,-1
 182 523 l 1,11,-1
 182 -34 l 2,12,13
 182 -86 182 -86 161.5 -125 c 128,-1,14
 141 -164 141 -164 104 -186 c 128,-1,15
 67 -208 67 -208 18 -208 c 0,0,1
EndSplineSet
Validated: 1
EndChar

StartChar: IJ
Encoding: 306 306 203
Width: 691
GlyphClass: 2
Flags: W
AnchorPoint: "Anchor-11" 123 760 baselig 0
AnchorPoint: "Anchor-11" 568 760 baselig 1
LayerCount: 2
Fore
SplineSet
62 300 m 1,0,-1
 62 710 l 1,1,-1
 184 710 l 1,2,-1
 184 300 l 1,3,-1
 62 300 l 1,0,-1
344 -20 m 0,4,5
 276 -20 276 -20 220 3 c 128,-1,6
 164 26 164 26 124.5 70 c 128,-1,7
 85 114 85 114 65 176 c 1,8,-1
 182 206 l 1,9,10
 204 150 204 150 245 121 c 128,-1,11
 286 92 286 92 339 92 c 0,12,13
 390 92 390 92 428 115.5 c 128,-1,14
 466 139 466 139 486.5 182.5 c 128,-1,15
 507 226 507 226 507 286 c 2,16,-1
 507 710 l 1,17,-1
 629 710 l 1,18,-1
 629 285 l 2,19,20
 629 216 629 216 609 160 c 128,-1,21
 589 104 589 104 551 63.5 c 128,-1,22
 513 23 513 23 460.5 1.5 c 128,-1,23
 408 -20 408 -20 344 -20 c 0,4,5
EndSplineSet
Validated: 1
Ligature2: "Ligature Substitution lookup 8 subtable" I J
Position2: "'case' Case-Sensitive Forms in Latin lookup 0 subtable" dx=10 dy=0 dh=20 dv=0
EndChar

StartChar: ij
Encoding: 307 307 204
Width: 587
GlyphClass: 2
Flags: W
LayerCount: 2
Fore
SplineSet
189 669 m 256,0,1
 189 650 189 650 179.5 634 c 128,-1,2
 170 618 170 618 154 608.5 c 128,-1,3
 138 599 138 599 119 599 c 256,4,5
 100 599 100 599 84 608.5 c 128,-1,6
 68 618 68 618 58.5 634 c 128,-1,7
 49 650 49 650 49 669 c 256,8,9
 49 688 49 688 58.5 704 c 128,-1,10
 68 720 68 720 84 729.5 c 128,-1,11
 100 739 100 739 119 739 c 256,12,13
 138 739 138 739 154 729.5 c 128,-1,14
 170 720 170 720 179.5 704 c 128,-1,15
 189 688 189 688 189 669 c 256,0,1
537 669 m 256,16,17
 537 650 537 650 527.5 634 c 128,-1,18
 518 618 518 618 502 608.5 c 128,-1,19
 486 599 486 599 467 599 c 256,20,21
 448 599 448 599 432 608.5 c 128,-1,22
 416 618 416 618 406.5 634 c 128,-1,23
 397 650 397 650 397 669 c 256,24,25
 397 688 397 688 406.5 704 c 128,-1,26
 416 720 416 720 432 729.5 c 128,-1,27
 448 739 448 739 467 739 c 256,28,29
 486 739 486 739 502 729.5 c 128,-1,30
 518 720 518 720 527.5 704 c 128,-1,31
 537 688 537 688 537 669 c 256,16,17
256 10 m 0,32,33
 197 10 197 10 153.5 38 c 128,-1,34
 110 66 110 66 86 117 c 128,-1,35
 62 168 62 168 62 237 c 2,36,-1
 62 523 l 1,37,-1
 177 523 l 1,38,-1
 177 250 l 2,39,40
 177 186 177 186 205.5 150 c 128,-1,41
 234 114 234 114 285 114 c 0,42,43
 322 114 322 114 350 131 c 128,-1,44
 378 148 378 148 394 177 c 128,-1,45
 410 206 410 206 410 244 c 2,46,-1
 410 523 l 1,47,-1
 525 523 l 1,48,-1
 525 39 l 2,49,50
 525 -18 525 -18 508 -64.5 c 128,-1,51
 491 -111 491 -111 459 -144.5 c 128,-1,52
 427 -178 427 -178 382.5 -195.5 c 128,-1,53
 338 -213 338 -213 284 -213 c 0,54,55
 235 -213 235 -213 192.5 -197.5 c 128,-1,56
 150 -182 150 -182 118 -153.5 c 128,-1,57
 86 -125 86 -125 67 -85 c 1,58,-1
 173 -47 l 1,59,60
 193 -78 193 -78 221.5 -95 c 128,-1,61
 250 -112 250 -112 284 -112 c 0,62,63
 322 -112 322 -112 350.5 -94.5 c 128,-1,64
 379 -77 379 -77 394.5 -45.5 c 128,-1,65
 410 -14 410 -14 410 30 c 2,66,-1
 410 88 l 1,67,68
 386 52 386 52 346 31 c 128,-1,69
 306 10 306 10 256 10 c 0,32,33
EndSplineSet
Validated: 1
Ligature2: "Ligature Substitution lookup 7 subtable" i j
EndChar

StartChar: glyph205
Encoding: 65571 -1 205
Width: 587
GlyphClass: 2
Flags: W
AnchorPoint: "Anchor-10" 119 562 baselig 0
AnchorPoint: "Anchor-10" 467 562 baselig 1
LayerCount: 2
Fore
SplineSet
256 10 m 0,0,1
 197 10 197 10 153.5 38 c 128,-1,2
 110 66 110 66 86 117 c 128,-1,3
 62 168 62 168 62 237 c 2,4,-1
 62 523 l 1,5,-1
 177 523 l 1,6,-1
 177 250 l 2,7,8
 177 186 177 186 205.5 150 c 128,-1,9
 234 114 234 114 285 114 c 0,10,11
 322 114 322 114 350 131 c 128,-1,12
 378 148 378 148 394 177 c 128,-1,13
 410 206 410 206 410 244 c 2,14,-1
 410 523 l 1,15,-1
 525 523 l 1,16,-1
 525 39 l 2,17,18
 525 -18 525 -18 508 -64.5 c 128,-1,19
 491 -111 491 -111 459 -144.5 c 128,-1,20
 427 -178 427 -178 382.5 -195.5 c 128,-1,21
 338 -213 338 -213 284 -213 c 0,22,23
 235 -213 235 -213 192.5 -197.5 c 128,-1,24
 150 -182 150 -182 118 -153.5 c 128,-1,25
 86 -125 86 -125 67 -85 c 1,26,-1
 173 -47 l 1,27,28
 193 -78 193 -78 221.5 -95 c 128,-1,29
 250 -112 250 -112 284 -112 c 0,30,31
 322 -112 322 -112 350.5 -94.5 c 128,-1,32
 379 -77 379 -77 394.5 -45.5 c 128,-1,33
 410 -14 410 -14 410 30 c 2,34,-1
 410 88 l 1,35,36
 386 52 386 52 346 31 c 128,-1,37
 306 10 306 10 256 10 c 0,0,1
EndSplineSet
Validated: 1
EndChar

StartChar: Thorn
Encoding: 222 222 206
Width: 587
GlyphClass: 2
Flags: W
LayerCount: 2
Fore
SplineSet
70 0 m 1,0,-1
 70 710 l 1,1,-1
 190 710 l 1,2,-1
 190 590 l 1,3,-1
 285 590 l 2,4,5
 370 590 370 590 430.5 562 c 128,-1,6
 491 534 491 534 523.5 482 c 128,-1,7
 556 430 556 430 556 356 c 0,8,9
 556 286 556 286 522 233.5 c 128,-1,10
 488 181 488 181 426 152.5 c 128,-1,11
 364 124 364 124 280 124 c 0,12,13
 260 124 260 124 237.5 126 c 128,-1,14
 215 128 215 128 190 131 c 1,15,-1
 190 0 l 1,16,-1
 70 0 l 1,0,-1
190 484 m 1,17,-1
 190 237 l 1,18,19
 212 234 212 234 234 232 c 128,-1,20
 256 230 256 230 275 230 c 0,21,22
 351 230 351 230 391.5 263 c 128,-1,23
 432 296 432 296 432 357 c 0,24,25
 432 417 432 417 393 450.5 c 128,-1,26
 354 484 354 484 283 484 c 2,27,-1
 190 484 l 1,17,-1
EndSplineSet
Validated: 1
Position2: "'case' Case-Sensitive Forms in Latin lookup 0 subtable" dx=10 dy=0 dh=20 dv=0
EndChar

StartChar: AE
Encoding: 198 198 207
Width: 1015
GlyphClass: 2
Flags: W
LayerCount: 2
Fore
SplineSet
19 0 m 1,0,-1
 471 710 l 1,1,-1
 947 710 l 1,2,-1
 947 605 l 1,3,-1
 647 605 l 1,4,-1
 647 419 l 1,5,-1
 917 419 l 1,6,-1
 917 314 l 1,7,-1
 647 314 l 1,8,-1
 647 105 l 1,9,-1
 957 105 l 1,10,-1
 957 0 l 1,11,-1
 527 0 l 1,12,-1
 527 176 l 1,13,-1
 263 176 l 1,14,-1
 155 0 l 1,15,-1
 19 0 l 1,0,-1
327 280 m 1,16,-1
 527 280 l 1,17,-1
 527 604 l 1,18,-1
 327 280 l 1,16,-1
EndSplineSet
Validated: 1
Position2: "'case' Case-Sensitive Forms in Latin lookup 0 subtable" dx=10 dy=0 dh=20 dv=0
EndChar

StartChar: OE
Encoding: 338 338 208
Width: 1032
GlyphClass: 2
Flags: W
LayerCount: 2
Fore
SplineSet
422 0 m 2,0,1
 338 0 338 0 268.5 25.5 c 128,-1,2
 199 51 199 51 149.5 97.5 c 128,-1,3
 100 144 100 144 73 209 c 128,-1,4
 46 274 46 274 46 354 c 256,5,6
 46 434 46 434 73 499.5 c 128,-1,7
 100 565 100 565 150 612 c 128,-1,8
 200 659 200 659 269 684.5 c 128,-1,9
 338 710 338 710 422 710 c 2,10,-1
 964 710 l 1,11,-1
 964 605 l 1,12,-1
 664 605 l 1,13,-1
 664 419 l 1,14,-1
 934 419 l 1,15,-1
 934 314 l 1,16,-1
 664 314 l 1,17,-1
 664 105 l 1,18,-1
 974 105 l 1,19,-1
 974 0 l 1,20,-1
 422 0 l 2,0,1
428 109 m 2,21,-1
 544 109 l 1,22,-1
 544 601 l 1,23,-1
 428 601 l 2,24,25
 350 601 350 601 292.5 571 c 128,-1,26
 235 541 235 541 203.5 485.5 c 128,-1,27
 172 430 172 430 172 355 c 256,28,29
 172 280 172 280 203.5 224.5 c 128,-1,30
 235 169 235 169 292.5 139 c 128,-1,31
 350 109 350 109 428 109 c 2,21,-1
EndSplineSet
Validated: 1
Position2: "'case' Case-Sensitive Forms in Latin lookup 0 subtable" dx=10 dy=0 dh=20 dv=0
EndChar

StartChar: uni1E9E
Encoding: 7838 7838 209
Width: 646
GlyphClass: 2
Flags: W
LayerCount: 2
Fore
SplineSet
372 -15 m 0,0,1
 337 -15 337 -15 306.5 -7 c 128,-1,2
 276 1 276 1 248 16 c 1,3,-1
 275 115 l 1,4,5
 294 104 294 104 320 98 c 128,-1,6
 346 92 346 92 368 92 c 0,7,8
 404 92 404 92 432 107.5 c 128,-1,9
 460 123 460 123 476 150.5 c 128,-1,10
 492 178 492 178 492 214 c 0,11,12
 492 251 492 251 474 278.5 c 128,-1,13
 456 306 456 306 424 322 c 128,-1,14
 392 338 392 338 348 338 c 1,15,-1
 337 411 l 1,16,-1
 458 569 l 1,17,18
 436 590 436 590 405.5 603 c 128,-1,19
 375 616 375 616 340 616 c 0,20,21
 294 616 294 616 258.5 593.5 c 128,-1,22
 223 571 223 571 203.5 529.5 c 128,-1,23
 184 488 184 488 184 431 c 2,24,-1
 184 0 l 1,25,-1
 62 0 l 1,26,-1
 62 428 l 2,27,28
 62 495 62 495 81.5 549.5 c 128,-1,29
 101 604 101 604 137.5 643.5 c 128,-1,30
 174 683 174 683 224.5 704 c 128,-1,31
 275 725 275 725 337 725 c 0,32,33
 417 725 417 725 485 690 c 128,-1,34
 553 655 553 655 597 591 c 1,35,-1
 466 419 l 1,36,37
 511 406 511 406 545 376.5 c 128,-1,38
 579 347 579 347 598 305.5 c 128,-1,39
 617 264 617 264 617 214 c 256,40,41
 617 164 617 164 598.5 122.5 c 128,-1,42
 580 81 580 81 547 50 c 128,-1,43
 514 19 514 19 469.5 2 c 128,-1,44
 425 -15 425 -15 372 -15 c 0,0,1
EndSplineSet
Validated: 1
Position2: "'case' Case-Sensitive Forms in Latin lookup 0 subtable" dx=10 dy=0 dh=20 dv=0
EndChar

StartChar: thorn
Encoding: 254 254 210
Width: 632
GlyphClass: 2
Flags: W
LayerCount: 2
Fore
SplineSet
62 -198 m 1,0,-1
 62 744 l 1,1,-1
 177 744 l 1,2,-1
 177 447 l 1,3,4
 205 490 205 490 250 514 c 128,-1,5
 295 538 295 538 349 538 c 0,6,7
 401 538 401 538 445.5 517 c 128,-1,8
 490 496 490 496 523 459 c 128,-1,9
 556 422 556 422 574.5 372 c 128,-1,10
 593 322 593 322 593 264 c 0,11,12
 593 205 593 205 574 154 c 128,-1,13
 555 103 555 103 521 65 c 128,-1,14
 487 27 487 27 441.5 6 c 128,-1,15
 396 -15 396 -15 343 -15 c 0,16,17
 291 -15 291 -15 248 7 c 128,-1,18
 205 29 205 29 177 69 c 1,19,-1
 177 -198 l 1,20,-1
 62 -198 l 1,0,-1
325 89 m 256,21,22
 368 89 368 89 402 111.5 c 128,-1,23
 436 134 436 134 455.5 173 c 128,-1,24
 475 212 475 212 475 262 c 256,25,26
 475 312 475 312 455.5 350.5 c 128,-1,27
 436 389 436 389 402 411.5 c 128,-1,28
 368 434 368 434 325 434 c 256,29,30
 282 434 282 434 248 411.5 c 128,-1,31
 214 389 214 389 194.5 350.5 c 128,-1,32
 175 312 175 312 175 262 c 256,33,34
 175 212 175 212 194.5 173 c 128,-1,35
 214 134 214 134 248 111.5 c 128,-1,36
 282 89 282 89 325 89 c 256,21,22
EndSplineSet
Validated: 1
EndChar

StartChar: f_i.liga
Encoding: 65572 -1 211
Width: 624
GlyphClass: 3
Flags: W
LayerCount: 2
Fore
SplineSet
109 0 m 1,0,-1
 109 430 l 1,1,-1
 17 430 l 1,2,-1
 17 523 l 1,3,-1
 109 523 l 1,4,-1
 109 560 l 2,5,6
 109 618 109 618 131.5 661.5 c 128,-1,7
 154 705 154 705 194 729.5 c 128,-1,8
 234 754 234 754 285 754 c 0,9,10
 312 754 312 754 335.5 747.5 c 128,-1,11
 359 741 359 741 377 731 c 1,12,-1
 351 643 l 1,13,14
 340 648 340 648 326 652 c 128,-1,15
 312 656 312 656 297 656 c 0,16,17
 260 656 260 656 242 629.5 c 128,-1,18
 224 603 224 603 224 554 c 2,19,-1
 224 523 l 1,20,-1
 562 523 l 1,21,-1
 562 0 l 1,22,-1
 447 0 l 1,23,-1
 447 430 l 1,24,-1
 224 430 l 1,25,-1
 224 0 l 1,26,-1
 109 0 l 1,0,-1
574 669 m 256,27,28
 574 650 574 650 564.5 634 c 128,-1,29
 555 618 555 618 539.5 608.5 c 128,-1,30
 524 599 524 599 504 599 c 256,31,32
 484 599 484 599 468.5 608.5 c 128,-1,33
 453 618 453 618 443.5 634 c 128,-1,34
 434 650 434 650 434 669 c 256,35,36
 434 688 434 688 443.5 704 c 128,-1,37
 453 720 453 720 468.5 729.5 c 128,-1,38
 484 739 484 739 504 739 c 256,39,40
 524 739 524 739 539.5 729.5 c 128,-1,41
 555 720 555 720 564.5 704 c 128,-1,42
 574 688 574 688 574 669 c 256,27,28
EndSplineSet
Validated: 1
Ligature2: "'liga' Standard Ligatures in Latin lookup 23 subtable" f i
EndChar

StartChar: f_f.liga
Encoding: 65573 -1 212
Width: 735
GlyphClass: 3
Flags: W
LayerCount: 2
Fore
SplineSet
109 0 m 1,0,-1
 109 430 l 1,1,-1
 17 430 l 1,2,-1
 17 523 l 1,3,-1
 109 523 l 1,4,-1
 109 560 l 2,5,6
 109 618 109 618 133 661.5 c 128,-1,7
 157 705 157 705 199 729.5 c 128,-1,8
 241 754 241 754 295 754 c 0,9,10
 326 754 326 754 351.5 746.5 c 128,-1,11
 377 739 377 739 397 728 c 1,12,-1
 371 640 l 1,13,14
 358 647 358 647 341.5 651.5 c 128,-1,15
 325 656 325 656 309 656 c 0,16,17
 266 656 266 656 245 629.5 c 128,-1,18
 224 603 224 603 224 554 c 2,19,-1
 224 523 l 1,20,-1
 447 523 l 1,21,-1
 447 560 l 2,22,23
 447 618 447 618 471 661.5 c 128,-1,24
 495 705 495 705 536.5 729.5 c 128,-1,25
 578 754 578 754 633 754 c 0,26,27
 664 754 664 754 689.5 746.5 c 128,-1,28
 715 739 715 739 735 728 c 1,29,-1
 709 640 l 1,30,31
 696 647 696 647 679.5 651.5 c 128,-1,32
 663 656 663 656 647 656 c 0,33,34
 604 656 604 656 583 629.5 c 128,-1,35
 562 603 562 603 562 554 c 2,36,-1
 562 523 l 1,37,-1
 712 523 l 1,38,-1
 712 430 l 1,39,-1
 562 430 l 1,40,-1
 562 0 l 1,41,-1
 447 0 l 1,42,-1
 447 430 l 1,43,-1
 224 430 l 1,44,-1
 224 0 l 1,45,-1
 109 0 l 1,0,-1
EndSplineSet
Validated: 1
Ligature2: "'liga' Standard Ligatures in Latin lookup 23 subtable" f f
EndChar

StartChar: f_f_i.liga
Encoding: 65574 -1 213
Width: 962
GlyphClass: 3
Flags: W
LayerCount: 2
Fore
SplineSet
109 0 m 1,0,-1
 109 430 l 1,1,-1
 17 430 l 1,2,-1
 17 523 l 1,3,-1
 109 523 l 1,4,-1
 109 560 l 2,5,6
 109 618 109 618 133 661.5 c 128,-1,7
 157 705 157 705 199 729.5 c 128,-1,8
 241 754 241 754 295 754 c 0,9,10
 326 754 326 754 351.5 746.5 c 128,-1,11
 377 739 377 739 397 728 c 1,12,-1
 371 640 l 1,13,14
 358 647 358 647 341.5 651.5 c 128,-1,15
 325 656 325 656 309 656 c 0,16,17
 266 656 266 656 245 629.5 c 128,-1,18
 224 603 224 603 224 554 c 2,19,-1
 224 523 l 1,20,-1
 447 523 l 1,21,-1
 447 560 l 2,22,23
 447 618 447 618 469.5 661.5 c 128,-1,24
 492 705 492 705 532 729.5 c 128,-1,25
 572 754 572 754 623 754 c 0,26,27
 650 754 650 754 673.5 747.5 c 128,-1,28
 697 741 697 741 715 731 c 1,29,-1
 689 643 l 1,30,31
 678 648 678 648 664 652 c 128,-1,32
 650 656 650 656 635 656 c 0,33,34
 598 656 598 656 580 629.5 c 128,-1,35
 562 603 562 603 562 554 c 2,36,-1
 562 523 l 1,37,-1
 900 523 l 1,38,-1
 900 0 l 1,39,-1
 785 0 l 1,40,-1
 785 430 l 1,41,-1
 562 430 l 1,42,-1
 562 0 l 1,43,-1
 447 0 l 1,44,-1
 447 430 l 1,45,-1
 224 430 l 1,46,-1
 224 0 l 1,47,-1
 109 0 l 1,0,-1
912 669 m 256,48,49
 912 650 912 650 902.5 634 c 128,-1,50
 893 618 893 618 877.5 608.5 c 128,-1,51
 862 599 862 599 842 599 c 256,52,53
 822 599 822 599 806.5 608.5 c 128,-1,54
 791 618 791 618 781.5 634 c 128,-1,55
 772 650 772 650 772 669 c 256,56,57
 772 688 772 688 781.5 704 c 128,-1,58
 791 720 791 720 806.5 729.5 c 128,-1,59
 822 739 822 739 842 739 c 256,60,61
 862 739 862 739 877.5 729.5 c 128,-1,62
 893 720 893 720 902.5 704 c 128,-1,63
 912 688 912 688 912 669 c 256,48,49
EndSplineSet
Validated: 1
Ligature2: "'liga' Standard Ligatures in Latin lookup 23 subtable" f f i
EndChar

StartChar: ae.ss01
Encoding: 65575 -1 214
Width: 971
Flags: W
LayerCount: 2
Fore
SplineSet
278 -15 m 0,0,1
 227 -15 227 -15 183.5 6 c 128,-1,2
 140 27 140 27 107.5 64 c 128,-1,3
 75 101 75 101 57 151 c 128,-1,4
 39 201 39 201 39 259 c 0,5,6
 39 318 39 318 57.5 369 c 128,-1,7
 76 420 76 420 109 458 c 128,-1,8
 142 496 142 496 186.5 517 c 128,-1,9
 231 538 231 538 283 538 c 0,10,11
 337 538 337 538 380.5 512 c 128,-1,12
 424 486 424 486 449 438 c 1,13,-1
 453 523 l 1,14,-1
 542 523 l 1,15,-1
 545 460 l 1,16,17
 574 497 574 497 614.5 517.5 c 128,-1,18
 655 538 655 538 705 538 c 0,19,20
 754 538 754 538 796 518.5 c 128,-1,21
 838 499 838 499 869 463 c 128,-1,22
 900 427 900 427 917.5 377.5 c 128,-1,23
 935 328 935 328 935 268 c 2,24,-1
 935 234 l 1,25,-1
 558 234 l 1,26,27
 562 188 562 188 581 154.5 c 128,-1,28
 600 121 600 121 630 103 c 128,-1,29
 660 85 660 85 700 85 c 0,30,31
 779 85 779 85 823 158 c 1,32,-1
 924 119 l 1,33,34
 906 78 906 78 872.5 48 c 128,-1,35
 839 18 839 18 796 1.5 c 128,-1,36
 753 -15 753 -15 707 -15 c 0,37,38
 656 -15 656 -15 615 5.5 c 128,-1,39
 574 26 574 26 545 62 c 1,40,-1
 542 0 l 1,41,-1
 453 0 l 1,42,-1
 449 91 l 1,43,44
 423 42 423 42 378 13.5 c 128,-1,45
 333 -15 333 -15 278 -15 c 0,0,1
691 445 m 256,46,47
 658 445 658 445 631 429 c 128,-1,48
 604 413 604 413 586 384.5 c 128,-1,49
 568 356 568 356 560 316 c 1,50,-1
 815 316 l 1,51,52
 810 355 810 355 793 384 c 128,-1,53
 776 413 776 413 750 429 c 128,-1,54
 724 445 724 445 691 445 c 256,46,47
302 89 m 256,55,56
 344 89 344 89 376.5 111.5 c 128,-1,57
 409 134 409 134 428 173 c 128,-1,58
 447 212 447 212 447 261 c 0,59,60
 447 311 447 311 428 350 c 128,-1,61
 409 389 409 389 376.5 411.5 c 128,-1,62
 344 434 344 434 302 434 c 256,63,64
 260 434 260 434 227.5 411.5 c 128,-1,65
 195 389 195 389 176 350 c 128,-1,66
 157 311 157 311 157 261 c 0,67,68
 157 212 157 212 176 173 c 128,-1,69
 195 134 195 134 227.5 111.5 c 128,-1,70
 260 89 260 89 302 89 c 256,55,56
EndSplineSet
Validated: 1
EndChar

StartChar: ae
Encoding: 230 230 215
Width: 891
GlyphClass: 2
Flags: W
LayerCount: 2
Fore
SplineSet
232 -15 m 0,0,1
 190 -15 190 -15 154.5 -3 c 128,-1,2
 119 9 119 9 92.5 31 c 128,-1,3
 66 53 66 53 51.5 83 c 128,-1,4
 37 113 37 113 37 150 c 0,5,6
 37 199 37 199 63 236.5 c 128,-1,7
 89 274 89 274 135.5 295 c 128,-1,8
 182 316 182 316 245 316 c 0,9,10
 279 316 279 316 309.5 309.5 c 128,-1,11
 340 303 340 303 368 291 c 1,12,-1
 368 324 l 2,13,14
 368 359 368 359 355.5 385.5 c 128,-1,15
 343 412 343 412 320 427 c 128,-1,16
 297 442 297 442 265 442 c 0,17,18
 230 442 230 442 202.5 423 c 128,-1,19
 175 404 175 404 162 370 c 1,20,-1
 56 394 l 1,21,22
 68 438 68 438 98.5 470 c 128,-1,23
 129 502 129 502 172.5 520 c 128,-1,24
 216 538 216 538 267 538 c 0,25,26
 321 538 321 538 363.5 515 c 128,-1,27
 406 492 406 492 432 451 c 1,28,29
 465 492 465 492 511.5 515 c 128,-1,30
 558 538 558 538 615 538 c 0,31,32
 667 538 667 538 710.5 518.5 c 128,-1,33
 754 499 754 499 786.5 463 c 128,-1,34
 819 427 819 427 837 377.5 c 128,-1,35
 855 328 855 328 855 268 c 2,36,-1
 855 234 l 1,37,-1
 478 234 l 1,38,39
 482 188 482 188 501 154.5 c 128,-1,40
 520 121 520 121 550 103 c 128,-1,41
 580 85 580 85 620 85 c 0,42,43
 699 85 699 85 743 158 c 1,44,-1
 844 119 l 1,45,46
 826 78 826 78 792 47.5 c 128,-1,47
 758 17 758 17 714 1 c 128,-1,48
 670 -15 670 -15 622 -15 c 0,49,50
 556 -15 556 -15 503.5 13.5 c 128,-1,51
 451 42 451 42 418 92 c 1,52,53
 404 61 404 61 377.5 36.5 c 128,-1,54
 351 12 351 12 314 -1.5 c 128,-1,55
 277 -15 277 -15 232 -15 c 0,0,1
611 445 m 256,56,57
 578 445 578 445 551 429 c 128,-1,58
 524 413 524 413 506 384.5 c 128,-1,59
 488 356 488 356 480 316 c 1,60,-1
 735 316 l 1,61,62
 730 355 730 355 713 384 c 128,-1,63
 696 413 696 413 670 429 c 128,-1,64
 644 445 644 445 611 445 c 256,56,57
153 154 m 0,65,66
 153 120 153 120 178.5 98.5 c 128,-1,67
 204 77 204 77 245 77 c 0,68,69
 280 77 280 77 307.5 93 c 128,-1,70
 335 109 335 109 351.5 136.5 c 128,-1,71
 368 164 368 164 368 199 c 2,72,-1
 368 212 l 1,73,74
 343 222 343 222 316.5 228.5 c 128,-1,75
 290 235 290 235 263 235 c 0,76,77
 213 235 213 235 183 213 c 128,-1,78
 153 191 153 191 153 154 c 0,65,66
EndSplineSet
Validated: 1
Substitution2: "'ss01' Style Set 1 in Latin lookup 14 subtable" ae.ss01
EndChar

StartChar: oe
Encoding: 339 339 216
Width: 979
GlyphClass: 2
Flags: W
LayerCount: 2
Fore
SplineSet
298 -15 m 0,0,1
 244 -15 244 -15 197 5.5 c 128,-1,2
 150 26 150 26 114.5 63.5 c 128,-1,3
 79 101 79 101 59 151 c 128,-1,4
 39 201 39 201 39 261 c 0,5,6
 39 320 39 320 59 370.5 c 128,-1,7
 79 421 79 421 114.5 458.5 c 128,-1,8
 150 496 150 496 197.5 517 c 128,-1,9
 245 538 245 538 300 538 c 0,10,11
 365 538 365 538 417 509.5 c 128,-1,12
 469 481 469 481 502 432 c 1,13,14
 536 482 536 482 587 510 c 128,-1,15
 638 538 638 538 701 538 c 0,16,17
 754 538 754 538 798 518.5 c 128,-1,18
 842 499 842 499 874.5 463 c 128,-1,19
 907 427 907 427 925 377.5 c 128,-1,20
 943 328 943 328 943 268 c 2,21,-1
 943 234 l 1,22,-1
 566 234 l 1,23,24
 570 188 570 188 589 154.5 c 128,-1,25
 608 121 608 121 638 103 c 128,-1,26
 668 85 668 85 708 85 c 0,27,28
 787 85 787 85 831 158 c 1,29,-1
 932 119 l 1,30,31
 914 78 914 78 880.5 47.5 c 128,-1,32
 847 17 847 17 802.5 1 c 128,-1,33
 758 -15 758 -15 709 -15 c 0,34,35
 643 -15 643 -15 589 13.5 c 128,-1,36
 535 42 535 42 501 93 c 1,37,38
 468 43 468 43 415.5 14 c 128,-1,39
 363 -15 363 -15 298 -15 c 0,0,1
699 445 m 256,40,41
 666 445 666 445 639 429 c 128,-1,42
 612 413 612 413 594 384.5 c 128,-1,43
 576 356 576 356 568 316 c 1,44,-1
 823 316 l 1,45,46
 818 355 818 355 801 384 c 128,-1,47
 784 413 784 413 758 429 c 128,-1,48
 732 445 732 445 699 445 c 256,40,41
302 89 m 256,49,50
 344 89 344 89 376.5 111.5 c 128,-1,51
 409 134 409 134 428 173 c 128,-1,52
 447 212 447 212 447 262 c 256,53,54
 447 312 447 312 428 350.5 c 128,-1,55
 409 389 409 389 376.5 411.5 c 128,-1,56
 344 434 344 434 302 434 c 256,57,58
 260 434 260 434 227.5 411.5 c 128,-1,59
 195 389 195 389 176 350.5 c 128,-1,60
 157 312 157 312 157 262 c 256,61,62
 157 212 157 212 176 173 c 128,-1,63
 195 134 195 134 227.5 111.5 c 128,-1,64
 260 89 260 89 302 89 c 256,49,50
EndSplineSet
Validated: 1
EndChar

StartChar: germandbls
Encoding: 223 223 217
Width: 600
GlyphClass: 2
Flags: W
LayerCount: 2
Fore
SplineSet
331 -10 m 0,0,1
 306 -10 306 -10 281 -6 c 128,-1,2
 256 -2 256 -2 237 6 c 1,3,-1
 254 104 l 1,4,5
 267 99 267 99 284.5 95.5 c 128,-1,6
 302 92 302 92 319 92 c 0,7,8
 354 92 354 92 382.5 107.5 c 128,-1,9
 411 123 411 123 427 150.5 c 128,-1,10
 443 178 443 178 443 214 c 0,11,12
 443 252 443 252 425.5 281 c 128,-1,13
 408 310 408 310 377 327 c 128,-1,14
 346 344 346 344 306 344 c 2,15,-1
 274 344 l 1,16,-1
 274 441 l 1,17,-1
 296 441 l 2,18,19
 328 441 328 441 353 455 c 128,-1,20
 378 469 378 469 392.5 493 c 128,-1,21
 407 517 407 517 407 547 c 256,22,23
 407 577 407 577 392 600.5 c 128,-1,24
 377 624 377 624 351.5 638 c 128,-1,25
 326 652 326 652 295 652 c 0,26,27
 260 652 260 652 233.5 636 c 128,-1,28
 207 620 207 620 192 590 c 128,-1,29
 177 560 177 560 177 519 c 2,30,-1
 177 0 l 1,31,-1
 62 0 l 1,32,-1
 62 519 l 2,33,34
 62 572 62 572 79 615 c 128,-1,35
 96 658 96 658 127 690 c 128,-1,36
 158 722 158 722 200.5 739 c 128,-1,37
 243 756 243 756 295 756 c 0,38,39
 344 756 344 756 385.5 741 c 128,-1,40
 427 726 427 726 458 699 c 128,-1,41
 489 672 489 672 506 635.5 c 128,-1,42
 523 599 523 599 523 557 c 0,43,44
 523 508 523 508 500 467 c 128,-1,45
 477 426 477 426 435 401 c 1,46,47
 473 388 473 388 501.5 360.5 c 128,-1,48
 530 333 530 333 545.5 295 c 128,-1,49
 561 257 561 257 561 212 c 0,50,51
 561 165 561 165 544 124.5 c 128,-1,52
 527 84 527 84 496.5 54 c 128,-1,53
 466 24 466 24 424 7 c 128,-1,54
 382 -10 382 -10 331 -10 c 0,0,1
EndSplineSet
Validated: 1
EndChar

StartChar: kgreenlandic
Encoding: 312 312 218
Width: 561
GlyphClass: 2
Flags: W
LayerCount: 2
Fore
SplineSet
62 0 m 1,0,-1
 62 523 l 1,1,-1
 177 523 l 1,2,-1
 177 297 l 1,3,-1
 391 523 l 1,4,-1
 531 523 l 1,5,-1
 296 282 l 1,6,-1
 555 0 l 1,7,-1
 404 0 l 1,8,-1
 177 254 l 1,9,-1
 177 0 l 1,10,-1
 62 0 l 1,0,-1
EndSplineSet
Validated: 1
EndChar

StartChar: Eng
Encoding: 330 330 219
Width: 721
GlyphClass: 2
Flags: W
LayerCount: 2
Fore
SplineSet
70 0 m 1,0,-1
 70 710 l 1,1,-1
 178 710 l 1,2,-1
 532 202 l 1,3,-1
 532 710 l 1,4,-1
 651 710 l 1,5,-1
 651 -9 l 2,6,7
 651 -71 651 -71 626 -117 c 128,-1,8
 601 -163 601 -163 557.5 -188 c 128,-1,9
 514 -213 514 -213 459 -213 c 0,10,11
 421 -213 421 -213 390.5 -202 c 128,-1,12
 360 -191 360 -191 338 -175 c 1,13,-1
 372 -86 l 1,14,15
 388 -96 388 -96 409.5 -102 c 128,-1,16
 431 -108 431 -108 450 -108 c 0,17,18
 488 -108 488 -108 510 -82 c 128,-1,19
 532 -56 532 -56 532 -9 c 2,20,-1
 532 16 l 1,21,-1
 189 510 l 1,22,-1
 189 0 l 1,23,-1
 70 0 l 1,0,-1
EndSplineSet
Validated: 1
EndChar

StartChar: eng
Encoding: 331 331 220
Width: 587
GlyphClass: 2
Flags: W
LayerCount: 2
Fore
SplineSet
62 0 m 1,0,-1
 62 523 l 1,1,-1
 167 523 l 1,2,-1
 171 451 l 1,3,4
 194 491 194 491 235.5 514.5 c 128,-1,5
 277 538 277 538 331 538 c 0,6,7
 390 538 390 538 433.5 510 c 128,-1,8
 477 482 477 482 501 431 c 128,-1,9
 525 380 525 380 525 311 c 2,10,-1
 525 -39 l 2,11,12
 525 -91 525 -91 504.5 -130 c 128,-1,13
 484 -169 484 -169 447 -191 c 128,-1,14
 410 -213 410 -213 362 -213 c 0,15,16
 336 -213 336 -213 312.5 -206.5 c 128,-1,17
 289 -200 289 -200 270 -189 c 1,18,-1
 296 -99 l 1,19,20
 306 -104 306 -104 319.5 -108 c 128,-1,21
 333 -112 333 -112 345 -112 c 0,22,23
 375 -112 375 -112 392.5 -91 c 128,-1,24
 410 -70 410 -70 410 -32 c 2,25,-1
 410 298 l 2,26,27
 410 362 410 362 381.5 398 c 128,-1,28
 353 434 353 434 302 434 c 0,29,30
 266 434 266 434 237.5 417 c 128,-1,31
 209 400 209 400 193 371 c 128,-1,32
 177 342 177 342 177 304 c 2,33,-1
 177 0 l 1,34,-1
 62 0 l 1,0,-1
EndSplineSet
Validated: 1
EndChar

StartChar: Eth
Encoding: 208 208 221
Width: 761
GlyphClass: 2
Flags: W
LayerCount: 2
Fore
SplineSet
80 0 m 1,0,-1
 80 317 l 1,1,-1
 -2 317 l 1,2,-1
 -2 416 l 1,3,-1
 80 416 l 1,4,-1
 80 710 l 1,5,-1
 339 710 l 2,6,7
 423 710 423 710 492.5 684.5 c 128,-1,8
 562 659 562 659 611.5 612.5 c 128,-1,9
 661 566 661 566 688 501 c 128,-1,10
 715 436 715 436 715 356 c 256,11,12
 715 276 715 276 688 210.5 c 128,-1,13
 661 145 661 145 611 98 c 128,-1,14
 561 51 561 51 492 25.5 c 128,-1,15
 423 0 423 0 339 0 c 2,16,-1
 80 0 l 1,0,-1
202 109 m 1,17,-1
 333 109 l 2,18,19
 412 109 412 109 469 139 c 128,-1,20
 526 169 526 169 557.5 224.5 c 128,-1,21
 589 280 589 280 589 355 c 256,22,23
 589 430 589 430 557.5 485.5 c 128,-1,24
 526 541 526 541 468.5 571 c 128,-1,25
 411 601 411 601 333 601 c 2,26,-1
 202 601 l 1,27,-1
 202 416 l 1,28,-1
 356 416 l 1,29,-1
 356 317 l 1,30,-1
 202 317 l 1,31,-1
 202 109 l 1,17,-1
EndSplineSet
Validated: 1
Position2: "'case' Case-Sensitive Forms in Latin lookup 0 subtable" dx=10 dy=0 dh=20 dv=0
EndChar

StartChar: Hbar
Encoding: 294 294 223
Width: 751
GlyphClass: 2
Flags: W
LayerCount: 2
Fore
SplineSet
80 0 m 1,0,-1
 80 529 l 1,1,-1
 -2 529 l 1,2,-1
 -2 619 l 1,3,-1
 80 619 l 1,4,-1
 80 710 l 1,5,-1
 202 710 l 1,6,-1
 202 619 l 1,7,-1
 549 619 l 1,8,-1
 549 710 l 1,9,-1
 671 710 l 1,10,-1
 671 619 l 1,11,-1
 753 619 l 1,12,-1
 753 529 l 1,13,-1
 671 529 l 1,14,-1
 671 0 l 1,15,-1
 549 0 l 1,16,-1
 549 306 l 1,17,-1
 202 306 l 1,18,-1
 202 0 l 1,19,-1
 80 0 l 1,0,-1
202 415 m 1,20,-1
 549 415 l 1,21,-1
 549 529 l 1,22,-1
 202 529 l 1,23,-1
 202 415 l 1,20,-1
EndSplineSet
Validated: 1
Position2: "'case' Case-Sensitive Forms in Latin lookup 0 subtable" dx=10 dy=0 dh=20 dv=0
EndChar

StartChar: Tbar
Encoding: 358 358 224
Width: 624
GlyphClass: 2
Flags: W
LayerCount: 2
Fore
SplineSet
251 0 m 1,0,-1
 251 286 l 1,1,-1
 125 286 l 1,2,-1
 125 385 l 1,3,-1
 251 385 l 1,4,-1
 251 601 l 1,5,-1
 44 601 l 1,6,-1
 44 710 l 1,7,-1
 580 710 l 1,8,-1
 580 601 l 1,9,-1
 373 601 l 1,10,-1
 373 385 l 1,11,-1
 499 385 l 1,12,-1
 499 286 l 1,13,-1
 373 286 l 1,14,-1
 373 0 l 1,15,-1
 251 0 l 1,0,-1
EndSplineSet
Validated: 1
Position2: "'case' Case-Sensitive Forms in Latin lookup 0 subtable" dx=10 dy=0 dh=20 dv=0
EndChar

StartChar: Lslash
Encoding: 321 321 225
Width: 546
GlyphClass: 2
Flags: W
LayerCount: 2
Fore
SplineSet
80 0 m 1,0,-1
 80 227 l 1,1,-1
 -2 167 l 1,2,-1
 -2 282 l 1,3,-1
 80 342 l 1,4,-1
 80 710 l 1,5,-1
 202 710 l 1,6,-1
 202 432 l 1,7,-1
 331 527 l 1,8,-1
 331 412 l 1,9,-1
 202 317 l 1,10,-1
 202 109 l 1,11,-1
 503 109 l 1,12,-1
 503 0 l 1,13,-1
 80 0 l 1,0,-1
EndSplineSet
Validated: 1
Position2: "'case' Case-Sensitive Forms in Latin lookup 0 subtable" dx=10 dy=0 dh=20 dv=0
EndChar

StartChar: Oslash
Encoding: 216 216 226
Width: 810
GlyphClass: 2
Flags: W
LayerCount: 2
Fore
SplineSet
174 -35 m 1,0,-1
 56 -35 l 1,1,-1
 148 88 l 1,2,3
 100 138 100 138 73 206.5 c 128,-1,4
 46 275 46 275 46 355 c 0,5,6
 46 419 46 419 63.5 476 c 128,-1,7
 81 533 81 533 113 579.5 c 128,-1,8
 145 626 145 626 189.5 659.5 c 128,-1,9
 234 693 234 693 288.5 711.5 c 128,-1,10
 343 730 343 730 405 730 c 0,11,12
 456 730 456 730 502.5 717.5 c 128,-1,13
 549 705 549 705 588 681 c 1,14,-1
 636 745 l 1,15,-1
 754 745 l 1,16,-1
 662 622 l 1,17,18
 710 572 710 572 737 503.5 c 128,-1,19
 764 435 764 435 764 355 c 0,20,21
 764 291 764 291 746.5 234 c 128,-1,22
 729 177 729 177 697 130.5 c 128,-1,23
 665 84 665 84 621 50.5 c 128,-1,24
 577 17 577 17 522.5 -1.5 c 128,-1,25
 468 -20 468 -20 406 -20 c 0,26,27
 355 -20 355 -20 308.5 -7 c 128,-1,28
 262 6 262 6 222 29 c 1,29,-1
 174 -35 l 1,0,-1
169 354 m 0,30,31
 169 304 169 304 182 260.5 c 128,-1,32
 195 217 195 217 219 184 c 1,33,-1
 521 591 l 1,34,35
 496 605 496 605 467 613 c 128,-1,36
 438 621 438 621 406 621 c 0,37,38
 354 621 354 621 310.5 601.5 c 128,-1,39
 267 582 267 582 235.5 546 c 128,-1,40
 204 510 204 510 186.5 461 c 128,-1,41
 169 412 169 412 169 354 c 0,30,31
404 89 m 0,42,43
 456 89 456 89 499.5 108.5 c 128,-1,44
 543 128 543 128 574.5 164 c 128,-1,45
 606 200 606 200 623.5 249 c 128,-1,46
 641 298 641 298 641 356 c 0,47,48
 641 406 641 406 628 449.5 c 128,-1,49
 615 493 615 493 591 526 c 1,50,-1
 289 119 l 1,51,52
 314 105 314 105 343 97 c 128,-1,53
 372 89 372 89 404 89 c 0,42,43
EndSplineSet
Validated: 1
Position2: "'case' Case-Sensitive Forms in Latin lookup 0 subtable" dx=10 dy=0 dh=20 dv=0
EndChar

StartChar: eth
Encoding: 240 240 227
Width: 623
GlyphClass: 2
Flags: W
LayerCount: 2
Fore
SplineSet
305 -15 m 0,0,1
 248 -15 248 -15 199.5 5 c 128,-1,2
 151 25 151 25 115 61.5 c 128,-1,3
 79 98 79 98 59 147 c 128,-1,4
 39 196 39 196 39 253 c 256,5,6
 39 310 39 310 58 358.5 c 128,-1,7
 77 407 77 407 111 444 c 128,-1,8
 145 481 145 481 190 501.5 c 128,-1,9
 235 522 235 522 286 522 c 0,10,11
 332 522 332 522 369.5 505 c 128,-1,12
 407 488 407 488 434 457 c 1,13,14
 418 494 418 494 395 531.5 c 128,-1,15
 372 569 372 569 343 604 c 1,16,-1
 247 558 l 1,17,-1
 214 627 l 1,18,-1
 289 663 l 1,19,20
 254 697 254 697 216 725 c 1,21,-1
 333 756 l 1,22,23
 361 735 361 735 387 711 c 1,24,-1
 476 754 l 1,25,-1
 509 685 l 1,26,-1
 441 652 l 1,27,28
 483 599 483 599 513.5 538.5 c 128,-1,29
 544 478 544 478 560 414.5 c 128,-1,30
 576 351 576 351 576 289 c 0,31,32
 576 220 576 220 556.5 164 c 128,-1,33
 537 108 537 108 501 68 c 128,-1,34
 465 28 465 28 415 6.5 c 128,-1,35
 365 -15 365 -15 305 -15 c 0,0,1
308 89 m 256,36,37
 352 89 352 89 385.5 110.5 c 128,-1,38
 419 132 419 132 438.5 169.5 c 128,-1,39
 458 207 458 207 458 255 c 256,40,41
 458 303 458 303 438.5 340.5 c 128,-1,42
 419 378 419 378 385.5 399 c 128,-1,43
 352 420 352 420 308 420 c 256,44,45
 264 420 264 420 230 399 c 128,-1,46
 196 378 196 378 176.5 340.5 c 128,-1,47
 157 303 157 303 157 255 c 256,48,49
 157 207 157 207 176.5 169.5 c 128,-1,50
 196 132 196 132 230 110.5 c 128,-1,51
 264 89 264 89 308 89 c 256,36,37
EndSplineSet
Validated: 1
EndChar

StartChar: dcroat
Encoding: 273 273 228
Width: 632
GlyphClass: 2
Flags: W
LayerCount: 2
Fore
SplineSet
283 -15 m 0,0,1
 231 -15 231 -15 186.5 6 c 128,-1,2
 142 27 142 27 109 64 c 128,-1,3
 76 101 76 101 57.5 151 c 128,-1,4
 39 201 39 201 39 259 c 0,5,6
 39 318 39 318 58 369 c 128,-1,7
 77 420 77 420 111 458 c 128,-1,8
 145 496 145 496 190.5 517 c 128,-1,9
 236 538 236 538 289 538 c 0,10,11
 341 538 341 538 384 516 c 128,-1,12
 427 494 427 494 455 454 c 1,13,-1
 455 591 l 1,14,-1
 309 591 l 1,15,-1
 309 672 l 1,16,-1
 455 672 l 1,17,-1
 455 744 l 1,18,-1
 570 744 l 1,19,-1
 570 672 l 1,20,-1
 644 672 l 1,21,-1
 644 591 l 1,22,-1
 570 591 l 1,23,-1
 570 0 l 1,24,-1
 465 0 l 1,25,-1
 460 84 l 1,26,27
 432 38 432 38 386 11.5 c 128,-1,28
 340 -15 340 -15 283 -15 c 0,0,1
307 89 m 256,29,30
 350 89 350 89 384 111.5 c 128,-1,31
 418 134 418 134 437.5 173 c 128,-1,32
 457 212 457 212 457 261 c 0,33,34
 457 311 457 311 437.5 350 c 128,-1,35
 418 389 418 389 384 411.5 c 128,-1,36
 350 434 350 434 307 434 c 256,37,38
 264 434 264 434 230 411.5 c 128,-1,39
 196 389 196 389 176.5 350 c 128,-1,40
 157 311 157 311 157 261 c 0,41,42
 157 212 157 212 176.5 173 c 128,-1,43
 196 134 196 134 230 111.5 c 128,-1,44
 264 89 264 89 307 89 c 256,29,30
EndSplineSet
Validated: 1
EndChar

StartChar: hbar
Encoding: 295 295 229
Width: 587
GlyphClass: 2
Flags: W
LayerCount: 2
Fore
SplineSet
62 0 m 1,0,-1
 62 591 l 1,1,-1
 -12 591 l 1,2,-1
 -12 672 l 1,3,-1
 62 672 l 1,4,-1
 62 744 l 1,5,-1
 177 744 l 1,6,-1
 177 672 l 1,7,-1
 323 672 l 1,8,-1
 323 591 l 1,9,-1
 177 591 l 1,10,-1
 177 460 l 1,11,12
 201 496 201 496 241 517 c 128,-1,13
 281 538 281 538 331 538 c 0,14,15
 390 538 390 538 433.5 510 c 128,-1,16
 477 482 477 482 501 431 c 128,-1,17
 525 380 525 380 525 311 c 2,18,-1
 525 0 l 1,19,-1
 410 0 l 1,20,-1
 410 298 l 2,21,22
 410 362 410 362 381.5 398 c 128,-1,23
 353 434 353 434 302 434 c 0,24,25
 266 434 266 434 237.5 417 c 128,-1,26
 209 400 209 400 193 371 c 128,-1,27
 177 342 177 342 177 304 c 2,28,-1
 177 0 l 1,29,-1
 62 0 l 1,0,-1
EndSplineSet
Validated: 1
EndChar

StartChar: tbar
Encoding: 359 359 230
Width: 426
GlyphClass: 2
Flags: W
LayerCount: 2
Fore
SplineSet
27 233 m 1,0,-1
 27 318 l 1,1,-1
 109 318 l 1,2,-1
 109 430 l 1,3,-1
 17 430 l 1,4,-1
 17 523 l 1,5,-1
 109 523 l 1,6,-1
 109 700 l 1,7,-1
 224 700 l 1,8,-1
 224 523 l 1,9,-1
 376 523 l 1,10,-1
 376 430 l 1,11,-1
 224 430 l 1,12,-1
 224 318 l 1,13,-1
 366 318 l 1,14,-1
 366 233 l 1,15,-1
 224 233 l 1,16,-1
 224 173 l 2,17,18
 224 131 224 131 241.5 108.5 c 128,-1,19
 259 86 259 86 293 86 c 0,20,21
 311 86 311 86 332 91.5 c 128,-1,22
 353 97 353 97 371 107 c 1,23,-1
 397 20 l 1,24,25
 374 4 374 4 343.5 -5.5 c 128,-1,26
 313 -15 313 -15 278 -15 c 0,27,28
 199 -15 199 -15 154 30.5 c 128,-1,29
 109 76 109 76 109 161 c 2,30,-1
 109 233 l 1,31,-1
 27 233 l 1,0,-1
EndSplineSet
Validated: 1
EndChar

StartChar: lslash
Encoding: 322 322 231
Width: 273
GlyphClass: 2
Flags: W
LayerCount: 2
Fore
SplineSet
79 0 m 1,0,-1
 79 275 l 1,1,-1
 4 219 l 1,2,-1
 4 324 l 1,3,-1
 79 380 l 1,4,-1
 79 744 l 1,5,-1
 194 744 l 1,6,-1
 194 466 l 1,7,-1
 269 522 l 1,8,-1
 269 417 l 1,9,-1
 194 361 l 1,10,-1
 194 0 l 1,11,-1
 79 0 l 1,0,-1
EndSplineSet
Validated: 1
EndChar

StartChar: oslash
Encoding: 248 248 232
Width: 614
GlyphClass: 2
Flags: W
LayerCount: 2
Fore
SplineSet
151 -25 m 1,0,-1
 46 -25 l 1,1,-1
 113 68 l 1,2,3
 79 105 79 105 59 154.5 c 128,-1,4
 39 204 39 204 39 262 c 0,5,6
 39 321 39 321 59 371.5 c 128,-1,7
 79 422 79 422 115.5 459.5 c 128,-1,8
 152 497 152 497 201.5 517.5 c 128,-1,9
 251 538 251 538 309 538 c 0,10,11
 343 538 343 538 374.5 530 c 128,-1,12
 406 522 406 522 433 507 c 1,13,-1
 463 548 l 1,14,-1
 568 548 l 1,15,-1
 501 456 l 1,16,17
 535 419 535 419 555 369 c 128,-1,18
 575 319 575 319 575 262 c 0,19,20
 575 202 575 202 555 151.5 c 128,-1,21
 535 101 535 101 498.5 63.5 c 128,-1,22
 462 26 462 26 412.5 5.5 c 128,-1,23
 363 -15 363 -15 305 -15 c 0,24,25
 271 -15 271 -15 239.5 -7 c 128,-1,26
 208 1 208 1 181 16 c 1,27,-1
 151 -25 l 1,0,-1
155 262 m 0,28,29
 155 233 155 233 162 207.5 c 128,-1,30
 169 182 169 182 181 161 c 1,31,-1
 371 421 l 1,32,33
 341 436 341 436 307 436 c 0,34,35
 274 436 274 436 246.5 423 c 128,-1,36
 219 410 219 410 198.5 386.5 c 128,-1,37
 178 363 178 363 166.5 331.5 c 128,-1,38
 155 300 155 300 155 262 c 0,28,29
307 87 m 0,39,40
 350 87 350 87 384.5 109.5 c 128,-1,41
 419 132 419 132 439 172 c 128,-1,42
 459 212 459 212 459 262 c 0,43,44
 459 291 459 291 452 316.5 c 128,-1,45
 445 342 445 342 433 362 c 1,46,-1
 243 102 l 1,47,48
 273 87 273 87 307 87 c 0,39,40
EndSplineSet
Validated: 1
EndChar

StartChar: uni0327
Encoding: 807 807 233
Width: 0
GlyphClass: 4
Flags: W
AnchorPoint: "Anchor-0" 0 -50 mark 0
LayerCount: 2
Fore
SplineSet
-32 11 m 1,0,-1
 42 11 l 1,1,-1
 25 -46 l 1,2,3
 57 -53 57 -53 77 -76 c 128,-1,4
 97 -99 97 -99 97 -128 c 0,5,6
 97 -156 97 -156 80.5 -178 c 128,-1,7
 64 -200 64 -200 35 -212 c 128,-1,8
 6 -224 6 -224 -32 -224 c 0,9,10
 -74 -224 -74 -224 -111 -209 c 1,11,-1
 -97 -144 l 1,12,13
 -81 -149 -81 -149 -67.5 -151.5 c 128,-1,14
 -54 -154 -54 -154 -43 -154 c 0,15,16
 -22 -154 -22 -154 -9 -145 c 128,-1,17
 4 -136 4 -136 4 -121 c 0,18,19
 4 -86 4 -86 -63 -86 c 1,20,-1
 -32 11 l 1,0,-1
EndSplineSet
Validated: 1
EndChar

StartChar: glyph234
Encoding: 65576 -1 234
Width: 0
GlyphClass: 4
Flags: W
AnchorPoint: "Anchor-1" 0 -50 mark 0
LayerCount: 2
Fore
SplineSet
-30 8 m 1,0,-1
 47 8 l 1,1,-1
 29 -51 l 1,2,3
 61 -60 61 -60 81 -83 c 128,-1,4
 101 -106 101 -106 101 -136 c 0,5,6
 101 -165 101 -165 84.5 -187 c 128,-1,7
 68 -209 68 -209 38.5 -221.5 c 128,-1,8
 9 -234 9 -234 -30 -234 c 0,9,10
 -74 -234 -74 -234 -114 -219 c 1,11,-1
 -99 -151 l 1,12,13
 -83 -156 -83 -156 -69 -158.5 c 128,-1,14
 -55 -161 -55 -161 -43 -161 c 0,15,16
 -21 -161 -21 -161 -8.5 -152 c 128,-1,17
 4 -143 4 -143 4 -128 c 0,18,19
 4 -93 4 -93 -63 -93 c 1,20,-1
 -30 8 l 1,0,-1
EndSplineSet
Validated: 1
EndChar

StartChar: uni0326
Encoding: 806 806 236
Width: 0
GlyphClass: 4
Flags: W
AnchorPoint: "Anchor-0" 0 -50 mark 0
LayerCount: 2
Fore
SplineSet
-31 -256 m 1,0,-1
 -53 -205 l 1,1,2
 -31 -195 -31 -195 -17 -181 c 128,-1,3
 -3 -167 -3 -167 1 -151 c 1,4,5
 -7 -156 -7 -156 -18 -156 c 0,6,7
 -38 -156 -38 -156 -51.5 -142 c 128,-1,8
 -65 -128 -65 -128 -65 -107 c 0,9,10
 -65 -85 -65 -85 -48.5 -70 c 128,-1,11
 -32 -55 -32 -55 -6 -55 c 0,12,13
 15 -55 15 -55 31.5 -65.5 c 128,-1,14
 48 -76 48 -76 57 -94 c 128,-1,15
 66 -112 66 -112 66 -135 c 0,16,17
 66 -176 66 -176 40 -208 c 128,-1,18
 14 -240 14 -240 -31 -256 c 1,0,-1
EndSplineSet
Validated: 1
EndChar

StartChar: glyph237
Encoding: 65577 -1 237
Width: 0
GlyphClass: 4
Flags: W
AnchorPoint: "Anchor-1" 0 -50 mark 0
LayerCount: 2
Fore
SplineSet
-33 -268 m 1,0,-1
 -55 -217 l 1,1,2
 -32 -207 -32 -207 -17.5 -193 c 128,-1,3
 -3 -179 -3 -179 0 -163 c 1,4,5
 -8 -168 -8 -168 -19 -168 c 0,6,7
 -39 -168 -39 -168 -53 -153.5 c 128,-1,8
 -67 -139 -67 -139 -67 -119 c 0,9,10
 -67 -95 -67 -95 -49.5 -80 c 128,-1,11
 -32 -65 -32 -65 -6 -65 c 0,12,13
 15 -65 15 -65 31.5 -75.5 c 128,-1,14
 48 -86 48 -86 57.5 -104 c 128,-1,15
 67 -122 67 -122 67 -145 c 0,16,17
 67 -186 67 -186 40.5 -219 c 128,-1,18
 14 -252 14 -252 -33 -268 c 1,0,-1
EndSplineSet
Validated: 1
EndChar

StartChar: uni0312
Encoding: 786 786 238
Width: 0
GlyphClass: 4
Flags: W
AnchorPoint: "Anchor-10" 0 562 mark 0
AnchorPoint: "Anchor-6" 0 562 mark 0
LayerCount: 2
Fore
SplineSet
7 581 m 0,0,1
 -14 581 -14 581 -30 591.5 c 128,-1,2
 -46 602 -46 602 -55.5 620 c 128,-1,3
 -65 638 -65 638 -65 661 c 0,4,5
 -65 702 -65 702 -39 734 c 128,-1,6
 -13 766 -13 766 32 782 c 1,7,-1
 54 731 l 1,8,9
 32 721 32 721 18 707 c 128,-1,10
 4 693 4 693 0 677 c 1,11,12
 8 682 8 682 19 682 c 0,13,14
 38 682 38 682 52 668 c 128,-1,15
 66 654 66 654 66 633 c 0,16,17
 66 611 66 611 49 596 c 128,-1,18
 32 581 32 581 7 581 c 0,0,1
EndSplineSet
Validated: 1
EndChar

StartChar: uni0328
Encoding: 808 808 239
Width: 0
GlyphClass: 4
Flags: W
AnchorPoint: "Anchor-2" 0 -50 mark 0
LayerCount: 2
Fore
SplineSet
-74 -219 m 0,0,1
 -106 -219 -106 -219 -131 -208 c 128,-1,2
 -156 -197 -156 -197 -169.5 -177 c 128,-1,3
 -183 -157 -183 -157 -183 -131 c 0,4,5
 -183 -94 -183 -94 -153.5 -56.5 c 128,-1,6
 -124 -19 -124 -19 -63 24 c 1,7,-1
 0 0 l 1,8,9
 -47 -36 -47 -36 -68.5 -62 c 128,-1,10
 -90 -88 -90 -88 -90 -107 c 0,11,12
 -90 -122 -90 -122 -79.5 -131 c 128,-1,13
 -69 -140 -69 -140 -51 -140 c 0,14,15
 -38 -140 -38 -140 -24.5 -138 c 128,-1,16
 -11 -136 -11 -136 -2 -131 c 1,17,-1
 11 -202 l 1,18,19
 -32 -219 -32 -219 -74 -219 c 0,0,1
EndSplineSet
Validated: 1
EndChar

StartChar: glyph240
Encoding: 65578 -1 240
Width: 0
GlyphClass: 4
Flags: W
AnchorPoint: "Anchor-4" 0 -50 mark 0
LayerCount: 2
Fore
SplineSet
-76 -222 m 0,0,1
 -109 -222 -109 -222 -133.5 -210.5 c 128,-1,2
 -158 -199 -158 -199 -172 -179 c 128,-1,3
 -186 -159 -186 -159 -186 -132 c 0,4,5
 -186 -94 -186 -94 -157 -56.5 c 128,-1,6
 -128 -19 -128 -19 -67 24 c 1,7,-1
 0 0 l 1,8,9
 -47 -36 -47 -36 -68.5 -62 c 128,-1,10
 -90 -88 -90 -88 -90 -107 c 0,11,12
 -90 -122 -90 -122 -79.5 -131 c 128,-1,13
 -69 -140 -69 -140 -51 -140 c 0,14,15
 -39 -140 -39 -140 -25.5 -138 c 128,-1,16
 -12 -136 -12 -136 -2 -131 c 1,17,-1
 11 -205 l 1,18,19
 -12 -213 -12 -213 -33.5 -217.5 c 128,-1,20
 -55 -222 -55 -222 -76 -222 c 0,0,1
EndSplineSet
Validated: 1
EndChar

StartChar: glyph241
Encoding: 65579 -1 241
Width: 0
GlyphClass: 4
Flags: W
AnchorPoint: "Anchor-3" 0 -50 mark 0
LayerCount: 2
Fore
SplineSet
-69 -219 m 0,0,1
 -104 -219 -104 -219 -129.5 -207.5 c 128,-1,2
 -155 -196 -155 -196 -169 -175 c 128,-1,3
 -183 -154 -183 -154 -183 -127 c 0,4,5
 -183 -88 -183 -88 -153 -46 c 128,-1,6
 -123 -4 -123 -4 -61 42 c 1,7,-1
 11 51 l 1,8,9
 -42 0 -42 0 -66 -36.5 c 128,-1,10
 -90 -73 -90 -73 -90 -100 c 0,11,12
 -90 -140 -90 -140 -45 -140 c 0,13,14
 -34 -140 -34 -140 -22 -138 c 128,-1,15
 -10 -136 -10 -136 -2 -131 c 1,16,-1
 11 -202 l 1,17,18
 -29 -219 -29 -219 -69 -219 c 0,0,1
EndSplineSet
Validated: 1
EndChar

StartChar: glyph242
Encoding: 65580 -1 242
Width: 0
GlyphClass: 4
Flags: W
AnchorPoint: "Anchor-5" 0 -50 mark 0
LayerCount: 2
Fore
SplineSet
-74 -222 m 0,0,1
 -125 -222 -125 -222 -155.5 -196 c 128,-1,2
 -186 -170 -186 -170 -186 -127 c 0,3,4
 -186 -47 -186 -47 -63 48 c 1,5,-1
 11 57 l 1,6,7
 -41 5 -41 5 -65.5 -33.5 c 128,-1,8
 -90 -72 -90 -72 -90 -100 c 0,9,10
 -90 -119 -90 -119 -79.5 -129.5 c 128,-1,11
 -69 -140 -69 -140 -50 -140 c 0,12,13
 -38 -140 -38 -140 -24.5 -138 c 128,-1,14
 -11 -136 -11 -136 -2 -131 c 1,15,-1
 11 -205 l 1,16,17
 -32 -222 -32 -222 -74 -222 c 0,0,1
EndSplineSet
Validated: 1
EndChar

StartChar: acutecomb
Encoding: 769 769 269
Width: 0
GlyphClass: 4
Flags: W
AnchorPoint: "Anchor-10" 0 562 mark 0
AnchorPoint: "Anchor-6" 0 562 mark 0
LayerCount: 2
Fore
SplineSet
-86 601 m 1,0,-1
 30 744 l 1,1,-1
 160 744 l 1,2,-1
 24 601 l 1,3,-1
 -86 601 l 1,0,-1
EndSplineSet
Validated: 1
EndChar

StartChar: glyph270
Encoding: 65582 -1 270
Width: 0
GlyphClass: 4
Flags: W
AnchorPoint: "Anchor-11" 0 760 mark 0
AnchorPoint: "Anchor-7" 0 760 mark 0
LayerCount: 2
Fore
SplineSet
-102 786 m 1,0,-1
 35 914 l 1,1,-1
 183 914 l 1,2,-1
 20 786 l 1,3,-1
 -102 786 l 1,0,-1
EndSplineSet
Validated: 1
EndChar

StartChar: uni030B
Encoding: 779 779 272
Width: 0
GlyphClass: 4
Flags: W
AnchorPoint: "Anchor-10" 0 562 mark 0
AnchorPoint: "Anchor-6" 0 562 mark 0
LayerCount: 2
Fore
SplineSet
-151 601 m 1,0,-1
 -53 744 l 1,1,-1
 65 744 l 1,2,-1
 -54 601 l 1,3,-1
 -151 601 l 1,0,-1
25 601 m 1,4,-1
 123 744 l 1,5,-1
 241 744 l 1,6,-1
 122 601 l 1,7,-1
 25 601 l 1,4,-1
EndSplineSet
Validated: 1
EndChar

StartChar: glyph273
Encoding: 65583 -1 273
Width: 0
GlyphClass: 4
Flags: W
AnchorPoint: "Anchor-11" 0 760 mark 0
AnchorPoint: "Anchor-7" 0 760 mark 0
LayerCount: 2
Fore
SplineSet
-196 786 m 1,0,-1
 -57 914 l 1,1,-1
 82 914 l 1,2,-1
 -81 786 l 1,3,-1
 -196 786 l 1,0,-1
14 786 m 1,4,-1
 153 914 l 1,5,-1
 292 914 l 1,6,-1
 129 786 l 1,7,-1
 14 786 l 1,4,-1
EndSplineSet
Validated: 1
EndChar

StartChar: gravecomb
Encoding: 768 768 308
Width: 0
GlyphClass: 4
Flags: W
AnchorPoint: "Anchor-10" 0 562 mark 0
AnchorPoint: "Anchor-6" 0 562 mark 0
LayerCount: 2
Fore
SplineSet
-24 601 m 1,0,-1
 -160 744 l 1,1,-1
 -30 744 l 1,2,-1
 86 601 l 1,3,-1
 -24 601 l 1,0,-1
EndSplineSet
Validated: 1
EndChar

StartChar: glyph309
Encoding: 65587 -1 309
Width: 0
GlyphClass: 4
Flags: W
AnchorPoint: "Anchor-11" 0 760 mark 0
AnchorPoint: "Anchor-7" 0 760 mark 0
LayerCount: 2
Fore
SplineSet
-20 786 m 1,0,-1
 -183 914 l 1,1,-1
 -35 914 l 1,2,-1
 102 786 l 1,3,-1
 -20 786 l 1,0,-1
EndSplineSet
Validated: 1
EndChar

StartChar: uni0302
Encoding: 770 770 327
Width: 0
GlyphClass: 4
Flags: W
AnchorPoint: "Anchor-10" 0 562 mark 0
AnchorPoint: "Anchor-6" 0 562 mark 0
LayerCount: 2
Fore
SplineSet
-175 601 m 1,0,-1
 -46 744 l 1,1,-1
 47 744 l 1,2,-1
 176 601 l 1,3,-1
 71 601 l 1,4,-1
 0 672 l 1,5,-1
 -73 601 l 1,6,-1
 -175 601 l 1,0,-1
EndSplineSet
Validated: 1
EndChar

StartChar: glyph328
Encoding: 65589 -1 328
Width: 0
GlyphClass: 4
Flags: W
AnchorPoint: "Anchor-11" 0 760 mark 0
AnchorPoint: "Anchor-7" 0 760 mark 0
LayerCount: 2
Fore
SplineSet
-201 786 m 1,0,-1
 -56 914 l 1,1,-1
 56 914 l 1,2,-1
 201 786 l 1,3,-1
 79 786 l 1,4,-1
 -1 848 l 1,5,-1
 -82 786 l 1,6,-1
 -201 786 l 1,0,-1
EndSplineSet
Validated: 1
EndChar

StartChar: tildecomb
Encoding: 771 771 330
Width: 0
GlyphClass: 4
Flags: W
AnchorPoint: "Anchor-10" 0 562 mark 0
AnchorPoint: "Anchor-6" 0 562 mark 0
LayerCount: 2
Fore
SplineSet
65 597 m 0,0,1
 43 597 43 597 26 604.5 c 128,-1,2
 9 612 9 612 -4.5 622 c 128,-1,3
 -18 632 -18 632 -30 639.5 c 128,-1,4
 -42 647 -42 647 -54 647 c 0,5,6
 -67 647 -67 647 -76 635.5 c 128,-1,7
 -85 624 -85 624 -87 602 c 1,8,-1
 -167 602 l 1,9,10
 -161 666 -161 666 -133 700.5 c 128,-1,11
 -105 735 -105 735 -64 735 c 0,12,13
 -42 735 -42 735 -25 727.5 c 128,-1,14
 -8 720 -8 720 5.5 710 c 128,-1,15
 19 700 19 700 31 692.5 c 128,-1,16
 43 685 43 685 55 685 c 0,17,18
 68 685 68 685 77 696.5 c 128,-1,19
 86 708 86 708 88 730 c 1,20,-1
 168 730 l 1,21,22
 162 666 162 666 134 631.5 c 128,-1,23
 106 597 106 597 65 597 c 0,0,1
EndSplineSet
Validated: 1
EndChar

StartChar: glyph331
Encoding: 65590 -1 331
Width: 0
GlyphClass: 4
Flags: W
AnchorPoint: "Anchor-11" 0 760 mark 0
AnchorPoint: "Anchor-7" 0 760 mark 0
LayerCount: 2
Fore
SplineSet
73 783 m 0,0,1
 49 783 49 783 29.5 791 c 128,-1,2
 10 799 10 799 -5.5 809 c 128,-1,3
 -21 819 -21 819 -35 827 c 128,-1,4
 -49 835 -49 835 -63 835 c 0,5,6
 -80 835 -80 835 -91 823 c 128,-1,7
 -102 811 -102 811 -107 789 c 1,8,-1
 -189 789 l 1,9,10
 -184 830 -184 830 -168.5 859.5 c 128,-1,11
 -153 889 -153 889 -128.5 905 c 128,-1,12
 -104 921 -104 921 -72 921 c 0,13,14
 -48 921 -48 921 -28.5 913 c 128,-1,15
 -9 905 -9 905 6.5 895 c 128,-1,16
 22 885 22 885 36 877 c 128,-1,17
 50 869 50 869 64 869 c 0,18,19
 81 869 81 869 92.5 881 c 128,-1,20
 104 893 104 893 108 915 c 1,21,-1
 190 915 l 1,22,23
 186 874 186 874 170 844.5 c 128,-1,24
 154 815 154 815 129 799 c 128,-1,25
 104 783 104 783 73 783 c 0,0,1
EndSplineSet
Validated: 1
EndChar

StartChar: uni030C
Encoding: 780 780 359
Width: 0
GlyphClass: 4
Flags: W
AnchorPoint: "Anchor-10" 0 562 mark 0
AnchorPoint: "Anchor-6" 0 562 mark 0
LayerCount: 2
Fore
SplineSet
-46 601 m 1,0,-1
 -175 744 l 1,1,-1
 -70 744 l 1,2,-1
 1 673 l 1,3,-1
 74 744 l 1,4,-1
 176 744 l 1,5,-1
 47 601 l 1,6,-1
 -46 601 l 1,0,-1
EndSplineSet
Validated: 1
EndChar

StartChar: glyph360
Encoding: 65593 -1 360
Width: 0
GlyphClass: 4
Flags: W
AnchorPoint: "Anchor-11" 0 760 mark 0
AnchorPoint: "Anchor-7" 0 760 mark 0
LayerCount: 2
Fore
SplineSet
-56 786 m 1,0,-1
 -201 914 l 1,1,-1
 -79 914 l 1,2,-1
 1 852 l 1,3,-1
 82 914 l 1,4,-1
 201 914 l 1,5,-1
 56 786 l 1,6,-1
 -56 786 l 1,0,-1
EndSplineSet
Validated: 1
EndChar

StartChar: uni0315
Encoding: 789 789 362
Width: 0
GlyphClass: 4
Flags: W
AnchorPoint: "Anchor-8" 0 790 mark 0
LayerCount: 2
Fore
SplineSet
70 568 m 1,0,-1
 87 744 l 1,1,-1
 189 744 l 1,2,-1
 144 568 l 1,3,-1
 70 568 l 1,0,-1
EndSplineSet
Validated: 1
EndChar

StartChar: glyph363
Encoding: 65594 -1 363
Width: 0
GlyphClass: 4
Flags: W
AnchorPoint: "Anchor-9" 0 790 mark 0
LayerCount: 2
Fore
SplineSet
68 591 m 1,0,-1
 82 744 l 1,1,-1
 184 744 l 1,2,-1
 144 591 l 1,3,-1
 68 591 l 1,0,-1
EndSplineSet
Validated: 1
EndChar

StartChar: uni0304
Encoding: 772 772 364
Width: 0
GlyphClass: 4
Flags: W
AnchorPoint: "Anchor-10" 0 562 mark 0
AnchorPoint: "Anchor-6" 0 562 mark 0
LayerCount: 2
Fore
SplineSet
-153 610 m 1,0,-1
 -153 693 l 1,1,-1
 153 693 l 1,2,-1
 153 610 l 1,3,-1
 -153 610 l 1,0,-1
EndSplineSet
Validated: 1
EndChar

StartChar: glyph365
Encoding: 65595 -1 365
Width: 0
GlyphClass: 4
Flags: W
AnchorPoint: "Anchor-11" 0 760 mark 0
AnchorPoint: "Anchor-7" 0 760 mark 0
LayerCount: 2
Fore
SplineSet
-175 791 m 1,0,-1
 -175 879 l 1,1,-1
 175 879 l 1,2,-1
 175 791 l 1,3,-1
 -175 791 l 1,0,-1
EndSplineSet
Validated: 1
EndChar

StartChar: uni0308
Encoding: 776 776 395
Width: 0
GlyphClass: 4
Flags: W
AnchorPoint: "Anchor-10" 0 562 mark 0
AnchorPoint: "Anchor-6" 0 562 mark 0
LayerCount: 2
Fore
SplineSet
-101 604 m 256,0,1
 -119 604 -119 604 -133.5 613 c 128,-1,2
 -148 622 -148 622 -157 636.5 c 128,-1,3
 -166 651 -166 651 -166 669 c 256,4,5
 -166 687 -166 687 -157 701.5 c 128,-1,6
 -148 716 -148 716 -133.5 725 c 128,-1,7
 -119 734 -119 734 -101 734 c 256,8,9
 -83 734 -83 734 -68 725 c 128,-1,10
 -53 716 -53 716 -44.5 701.5 c 128,-1,11
 -36 687 -36 687 -36 669 c 256,12,13
 -36 651 -36 651 -44.5 636.5 c 128,-1,14
 -53 622 -53 622 -68 613 c 128,-1,15
 -83 604 -83 604 -101 604 c 256,0,1
101 604 m 256,16,17
 83 604 83 604 68 613 c 128,-1,18
 53 622 53 622 44.5 636.5 c 128,-1,19
 36 651 36 651 36 669 c 256,20,21
 36 687 36 687 44.5 701.5 c 128,-1,22
 53 716 53 716 68 725 c 128,-1,23
 83 734 83 734 101 734 c 256,24,25
 119 734 119 734 133.5 725 c 128,-1,26
 148 716 148 716 157 701.5 c 128,-1,27
 166 687 166 687 166 669 c 256,28,29
 166 651 166 651 157 636.5 c 128,-1,30
 148 622 148 622 133.5 613 c 128,-1,31
 119 604 119 604 101 604 c 256,16,17
EndSplineSet
Validated: 1
EndChar

StartChar: glyph396
Encoding: 65597 -1 396
Width: 0
GlyphClass: 4
Flags: W
AnchorPoint: "Anchor-11" 0 760 mark 0
AnchorPoint: "Anchor-7" 0 760 mark 0
LayerCount: 2
Fore
SplineSet
-116 779 m 256,0,1
 -136 779 -136 779 -151.5 788 c 128,-1,2
 -167 797 -167 797 -176 812.5 c 128,-1,3
 -185 828 -185 828 -185 847 c 256,4,5
 -185 866 -185 866 -176 881.5 c 128,-1,6
 -167 897 -167 897 -151.5 906 c 128,-1,7
 -136 915 -136 915 -116 915 c 256,8,9
 -96 915 -96 915 -80.5 906 c 128,-1,10
 -65 897 -65 897 -56 881.5 c 128,-1,11
 -47 866 -47 866 -47 847 c 256,12,13
 -47 828 -47 828 -56 812.5 c 128,-1,14
 -65 797 -65 797 -80.5 788 c 128,-1,15
 -96 779 -96 779 -116 779 c 256,0,1
117 779 m 256,16,17
 98 779 98 779 82 788 c 128,-1,18
 66 797 66 797 57 812.5 c 128,-1,19
 48 828 48 828 48 847 c 256,20,21
 48 866 48 866 57 881.5 c 128,-1,22
 66 897 66 897 82 906 c 128,-1,23
 98 915 98 915 117 915 c 256,24,25
 136 915 136 915 152 906 c 128,-1,26
 168 897 168 897 177 881.5 c 128,-1,27
 186 866 186 866 186 847 c 256,28,29
 186 828 186 828 177 812.5 c 128,-1,30
 168 797 168 797 152 788 c 128,-1,31
 136 779 136 779 117 779 c 256,16,17
EndSplineSet
Validated: 1
EndChar

StartChar: uni0306
Encoding: 774 774 398
Width: 0
GlyphClass: 4
Flags: W
AnchorPoint: "Anchor-10" 0 562 mark 0
AnchorPoint: "Anchor-6" 0 562 mark 0
LayerCount: 2
Fore
SplineSet
0 600 m 256,0,1
 -43 600 -43 600 -77.5 616.5 c 128,-1,2
 -112 633 -112 633 -134 662.5 c 128,-1,3
 -156 692 -156 692 -163 733 c 1,4,-1
 -71 733 l 1,5,6
 -64 704 -64 704 -45.5 690 c 128,-1,7
 -27 676 -27 676 0 676 c 256,8,9
 27 676 27 676 45.5 690 c 128,-1,10
 64 704 64 704 71 733 c 1,11,-1
 163 733 l 1,12,13
 156 692 156 692 134 662.5 c 128,-1,14
 112 633 112 633 77.5 616.5 c 128,-1,15
 43 600 43 600 0 600 c 256,0,1
EndSplineSet
Validated: 1
EndChar

StartChar: glyph399
Encoding: 65598 -1 399
Width: 0
GlyphClass: 4
Flags: W
AnchorPoint: "Anchor-11" 0 760 mark 0
AnchorPoint: "Anchor-7" 0 760 mark 0
LayerCount: 2
Fore
SplineSet
0 781 m 256,0,1
 -46 781 -46 781 -82.5 798 c 128,-1,2
 -119 815 -119 815 -143.5 845.5 c 128,-1,3
 -168 876 -168 876 -175 919 c 1,4,-1
 -80 919 l 1,5,6
 -72 890 -72 890 -51 874 c 128,-1,7
 -30 858 -30 858 0 858 c 0,8,9
 31 858 31 858 51.5 874 c 128,-1,10
 72 890 72 890 80 919 c 1,11,-1
 175 919 l 1,12,13
 168 876 168 876 143.5 845.5 c 128,-1,14
 119 815 119 815 82.5 798 c 128,-1,15
 46 781 46 781 0 781 c 256,0,1
EndSplineSet
Validated: 1
EndChar

StartChar: uni0307
Encoding: 775 775 421
Width: 0
GlyphClass: 4
Flags: W
AnchorPoint: "Anchor-10" 0 562 mark 0
AnchorPoint: "Anchor-6" 0 562 mark 0
LayerCount: 2
Fore
SplineSet
70 669 m 256,0,1
 70 650 70 650 60.5 634 c 128,-1,2
 51 618 51 618 35.5 608.5 c 128,-1,3
 20 599 20 599 0 599 c 256,4,5
 -20 599 -20 599 -35.5 608.5 c 128,-1,6
 -51 618 -51 618 -60.5 634 c 128,-1,7
 -70 650 -70 650 -70 669 c 256,8,9
 -70 688 -70 688 -60.5 704 c 128,-1,10
 -51 720 -51 720 -35.5 729.5 c 128,-1,11
 -20 739 -20 739 0 739 c 256,12,13
 20 739 20 739 35.5 729.5 c 128,-1,14
 51 720 51 720 60.5 704 c 128,-1,15
 70 688 70 688 70 669 c 256,0,1
EndSplineSet
Validated: 1
EndChar

StartChar: glyph422
Encoding: 65601 -1 422
Width: 0
GlyphClass: 4
Flags: W
AnchorPoint: "Anchor-11" 0 760 mark 0
AnchorPoint: "Anchor-7" 0 760 mark 0
LayerCount: 2
Fore
SplineSet
0 779 m 256,0,1
 -20 779 -20 779 -36.5 788.5 c 128,-1,2
 -53 798 -53 798 -62.5 814.5 c 128,-1,3
 -72 831 -72 831 -72 851 c 256,4,5
 -72 871 -72 871 -62.5 887 c 128,-1,6
 -53 903 -53 903 -36.5 912.5 c 128,-1,7
 -20 922 -20 922 0 922 c 256,8,9
 20 922 20 922 36.5 912.5 c 128,-1,10
 53 903 53 903 62.5 887 c 128,-1,11
 72 871 72 871 72 851 c 256,12,13
 72 831 72 831 62.5 814.5 c 128,-1,14
 53 798 53 798 36.5 788.5 c 128,-1,15
 20 779 20 779 0 779 c 256,0,1
EndSplineSet
Validated: 1
EndChar

StartChar: dotbelowcomb
Encoding: 803 803 424
Width: 0
GlyphClass: 4
Flags: W
AnchorPoint: "Anchor-0" 0 -50 mark 0
LayerCount: 2
Fore
SplineSet
70 -148 m 256,0,1
 70 -168 70 -168 60.5 -183.5 c 128,-1,2
 51 -199 51 -199 35.5 -208.5 c 128,-1,3
 20 -218 20 -218 0 -218 c 256,4,5
 -20 -218 -20 -218 -35.5 -208.5 c 128,-1,6
 -51 -199 -51 -199 -60.5 -183.5 c 128,-1,7
 -70 -168 -70 -168 -70 -148 c 256,8,9
 -70 -128 -70 -128 -60.5 -112.5 c 128,-1,10
 -51 -97 -51 -97 -35.5 -87.5 c 128,-1,11
 -20 -78 -20 -78 0 -78 c 256,12,13
 20 -78 20 -78 35.5 -87.5 c 128,-1,14
 51 -97 51 -97 60.5 -112.5 c 128,-1,15
 70 -128 70 -128 70 -148 c 256,0,1
EndSplineSet
Validated: 1
EndChar

StartChar: glyph425
Encoding: 65602 -1 425
Width: 0
GlyphClass: 4
Flags: W
AnchorPoint: "Anchor-1" 0 -50 mark 0
LayerCount: 2
Fore
SplineSet
0 -226 m 256,0,1
 -20 -226 -20 -226 -36.5 -216.5 c 128,-1,2
 -53 -207 -53 -207 -62.5 -190.5 c 128,-1,3
 -72 -174 -72 -174 -72 -154 c 256,4,5
 -72 -134 -72 -134 -62.5 -118 c 128,-1,6
 -53 -102 -53 -102 -36.5 -92.5 c 128,-1,7
 -20 -83 -20 -83 0 -83 c 256,8,9
 20 -83 20 -83 36.5 -92.5 c 128,-1,10
 53 -102 53 -102 62.5 -118 c 128,-1,11
 72 -134 72 -134 72 -154 c 256,12,13
 72 -174 72 -174 62.5 -190.5 c 128,-1,14
 53 -207 53 -207 36.5 -216.5 c 128,-1,15
 20 -226 20 -226 0 -226 c 256,0,1
EndSplineSet
Validated: 1
EndChar

StartChar: uni030A
Encoding: 778 778 439
Width: 0
GlyphClass: 4
Flags: W
AnchorPoint: "Anchor-10" 0 562 mark 0
AnchorPoint: "Anchor-6" 0 562 mark 0
LayerCount: 2
Fore
SplineSet
0 574 m 256,0,1
 -30 574 -30 574 -54.5 588 c 128,-1,2
 -79 602 -79 602 -93.5 625.5 c 128,-1,3
 -108 649 -108 649 -108 678 c 256,4,5
 -108 707 -108 707 -93.5 730.5 c 128,-1,6
 -79 754 -79 754 -54.5 768 c 128,-1,7
 -30 782 -30 782 0 782 c 256,8,9
 30 782 30 782 54.5 768 c 128,-1,10
 79 754 79 754 93.5 730.5 c 128,-1,11
 108 707 108 707 108 678 c 256,12,13
 108 649 108 649 93.5 625.5 c 128,-1,14
 79 602 79 602 54.5 588 c 128,-1,15
 30 574 30 574 0 574 c 256,0,1
0 631 m 256,16,17
 19 631 19 631 32.5 644.5 c 128,-1,18
 46 658 46 658 46 678 c 256,19,20
 46 698 46 698 32.5 711.5 c 128,-1,21
 19 725 19 725 0 725 c 256,22,23
 -19 725 -19 725 -32.5 711.5 c 128,-1,24
 -46 698 -46 698 -46 678 c 256,25,26
 -46 658 -46 658 -32.5 644.5 c 128,-1,27
 -19 631 -19 631 0 631 c 256,16,17
EndSplineSet
Validated: 1
EndChar

StartChar: glyph440
Encoding: 65603 -1 440
Width: 0
GlyphClass: 4
Flags: W
AnchorPoint: "Anchor-11" 0 760 mark 0
AnchorPoint: "Anchor-7" 0 760 mark 0
LayerCount: 2
Fore
SplineSet
0 751 m 256,0,1
 -31 751 -31 751 -56 765 c 128,-1,2
 -81 779 -81 779 -95.5 803.5 c 128,-1,3
 -110 828 -110 828 -110 857 c 256,4,5
 -110 886 -110 886 -95.5 910.5 c 128,-1,6
 -81 935 -81 935 -56 949 c 128,-1,7
 -31 963 -31 963 0 963 c 256,8,9
 31 963 31 963 56 949 c 128,-1,10
 81 935 81 935 95.5 910.5 c 128,-1,11
 110 886 110 886 110 857 c 256,12,13
 110 828 110 828 95.5 803.5 c 128,-1,14
 81 779 81 779 56 765 c 128,-1,15
 31 751 31 751 0 751 c 256,0,1
0 811 m 256,16,17
 18 811 18 811 31.5 824.5 c 128,-1,18
 45 838 45 838 45 857 c 256,19,20
 45 876 45 876 31.5 889.5 c 128,-1,21
 18 903 18 903 0 903 c 256,22,23
 -18 903 -18 903 -31.5 889.5 c 128,-1,24
 -45 876 -45 876 -45 857 c 256,25,26
 -45 838 -45 838 -31.5 824.5 c 128,-1,27
 -18 811 -18 811 0 811 c 256,16,17
EndSplineSet
Validated: 1
EndChar

StartChar: colon_B_e_l_o_colon.dlig
Encoding: 65605 -1 447
Width: 781
GlyphClass: 2
Flags: W
LayerCount: 2
Fore
SplineSet
390 92 m 1,0,1
 297 -10 297 -10 207 -10 c 0,2,3
 174 -10 174 -10 145.5 2 c 128,-1,4
 117 14 117 14 95.5 35 c 128,-1,5
 74 56 74 56 61.5 84 c 128,-1,6
 49 112 49 112 49 144 c 0,7,8
 49 164 49 164 55.5 186.5 c 128,-1,9
 62 209 62 209 77 243 c 0,10,11
 88 268 88 268 104 301.5 c 128,-1,12
 120 335 120 335 138.5 373.5 c 128,-1,13
 157 412 157 412 176.5 451.5 c 128,-1,14
 196 491 196 491 214.5 527.5 c 128,-1,15
 233 564 233 564 248 593.5 c 128,-1,16
 263 623 263 623 273 642 c 0,17,18
 316 720 316 720 390 720 c 0,19,20
 428 720 428 720 456.5 701 c 128,-1,21
 485 682 485 682 507 642 c 0,22,23
 517 623 517 623 532 593.5 c 128,-1,24
 547 564 547 564 565.5 527.5 c 128,-1,25
 584 491 584 491 603.5 451.5 c 128,-1,26
 623 412 623 412 641.5 373.5 c 128,-1,27
 660 335 660 335 676 301.5 c 128,-1,28
 692 268 692 268 703 243 c 0,29,30
 718 209 718 209 724.5 186.5 c 128,-1,31
 731 164 731 164 731 144 c 0,32,33
 731 112 731 112 718.5 84 c 128,-1,34
 706 56 706 56 684.5 35 c 128,-1,35
 663 14 663 14 634.5 2 c 128,-1,36
 606 -10 606 -10 573 -10 c 0,37,38
 483 -10 483 -10 390 92 c 1,0,1
390 674 m 256,39,40
 364 674 364 674 347 661 c 128,-1,41
 330 648 330 648 312 616 c 0,42,43
 304 602 304 602 289.5 573.5 c 128,-1,44
 275 545 275 545 256.5 508.5 c 128,-1,45
 238 472 238 472 218.5 431.5 c 128,-1,46
 199 391 199 391 180 352 c 128,-1,47
 161 313 161 313 145.5 279.5 c 128,-1,48
 130 246 130 246 120 224 c 0,49,50
 106 193 106 193 101 176.5 c 128,-1,51
 96 160 96 160 96 144 c 0,52,53
 96 115 96 115 111 90.5 c 128,-1,54
 126 66 126 66 151 51 c 128,-1,55
 176 36 176 36 206 36 c 0,56,57
 278 36 278 36 359 128 c 1,58,59
 265 243 265 243 265 328 c 0,60,61
 265 364 265 364 281.5 392.5 c 128,-1,62
 298 421 298 421 326 437.5 c 128,-1,63
 354 454 354 454 390 454 c 256,64,65
 426 454 426 454 454 437.5 c 128,-1,66
 482 421 482 421 498.5 392.5 c 128,-1,67
 515 364 515 364 515 328 c 0,68,69
 515 243 515 243 421 128 c 1,70,71
 502 36 502 36 574 36 c 0,72,73
 604 36 604 36 629 51 c 128,-1,74
 654 66 654 66 669 90.5 c 128,-1,75
 684 115 684 115 684 144 c 0,76,77
 684 160 684 160 679 176.5 c 128,-1,78
 674 193 674 193 660 224 c 0,79,80
 650 246 650 246 634.5 279.5 c 128,-1,81
 619 313 619 313 600 352 c 128,-1,82
 581 391 581 391 561.5 431.5 c 128,-1,83
 542 472 542 472 523.5 508.5 c 128,-1,84
 505 545 505 545 490.5 573.5 c 128,-1,85
 476 602 476 602 468 616 c 0,86,87
 450 648 450 648 433 661 c 128,-1,88
 416 674 416 674 390 674 c 256,39,40
390 407 m 256,89,90
 356 407 356 407 334 385.5 c 128,-1,91
 312 364 312 364 312 330 c 0,92,93
 312 298 312 298 332 254.5 c 128,-1,94
 352 211 352 211 390 164 c 1,95,96
 428 211 428 211 448 254.5 c 128,-1,97
 468 298 468 298 468 330 c 0,98,99
 468 364 468 364 446 385.5 c 128,-1,100
 424 407 424 407 390 407 c 256,89,90
EndSplineSet
Validated: 1
Ligature2: "'dlig' Discretionary Ligatures in Latin lookup 24 subtable" colon b eacute l o colon
Ligature2: "'dlig' Discretionary Ligatures in Latin lookup 24 subtable" colon b e l o colon
Ligature2: "'dlig' Discretionary Ligatures in Latin lookup 24 subtable" colon B eacute l o colon
Ligature2: "'dlig' Discretionary Ligatures in Latin lookup 24 subtable" colon B e l o colon
EndChar

StartChar: uniFFFD
Encoding: 65533 65533 449
Width: 808
GlyphClass: 2
Flags: W
LayerCount: 2
Fore
SplineSet
404 -34 m 1,0,-1
 15 355 l 1,1,-1
 404 744 l 1,2,-1
 793 355 l 1,3,-1
 404 -34 l 1,0,-1
364 240 m 1,4,-1
 432 240 l 1,5,-1
 432 301 l 1,6,7
 488 318 488 318 518.5 354 c 128,-1,8
 549 390 549 390 549 438 c 0,9,10
 549 474 549 474 530 503 c 128,-1,11
 511 532 511 532 478.5 549 c 128,-1,12
 446 566 446 566 404 566 c 0,13,14
 367 566 367 566 336 552.5 c 128,-1,15
 305 539 305 539 284 514.5 c 128,-1,16
 263 490 263 490 255 458 c 1,17,-1
 322 441 l 1,18,19
 330 470 330 470 351 486.5 c 128,-1,20
 372 503 372 503 401 503 c 0,21,22
 433 503 433 503 453.5 483 c 128,-1,23
 474 463 474 463 474 432 c 0,24,25
 474 398 474 398 446.5 373.5 c 128,-1,26
 419 349 419 349 364 336 c 1,27,-1
 364 240 l 1,4,-1
398 106 m 256,28,29
 417 106 417 106 430.5 119 c 128,-1,30
 444 132 444 132 444 151 c 256,31,32
 444 170 444 170 431 183.5 c 128,-1,33
 418 197 418 197 398 197 c 0,34,35
 379 197 379 197 366 184 c 128,-1,36
 353 171 353 171 353 151 c 0,37,38
 353 132 353 132 366 119 c 128,-1,39
 379 106 379 106 398 106 c 256,28,29
EndSplineSet
Validated: 1
EndChar
